<svg xmlns="http://www.w3.org/2000/svg" viewBox="0 0 149.25 19.48"><defs><style>.cls-1{fill:#006838;}</style></defs><g id="Layer_2" data-name="Layer 2"><g id="Layer_1-2" data-name="Layer 1"><path class="cls-1" d="M64.77,9.1c0,.07,0,.14,0,.2a.68.68,0,0,0,0,.12c0,.08,0,.13.12.13A.18.18,0,0,0,65,9.44a5.37,5.37,0,0,0,.22-.59,2.69,2.69,0,0,0,.08-.65,3.7,3.7,0,0,0-.09-.8A4.06,4.06,0,0,0,65,6.59a3.55,3.55,0,0,0-.47-.76,3.88,3.88,0,0,0-.69-.65,1.84,1.84,0,0,0-.17.52c0,.15,0,.34-.06.56a3.64,3.64,0,0,1,.91,1.08,2.87,2.87,0,0,1,.31,1.36,1.34,1.34,0,0,1,0,.19C64.78,9,64.77,9,64.77,9.1Z"/><path class="cls-1" d="M101.75,1.55l.22.1a1.69,1.69,0,0,0,.27.1,1.25,1.25,0,0,0,.35,0,1.23,1.23,0,0,0,.42-.07,2.35,2.35,0,0,0,.43-.19,2.55,2.55,0,0,0,.39-.24,3.12,3.12,0,0,0,.3-.24,1.65,1.65,0,0,0,.23-.3.62.62,0,0,0,.13-.37.35.35,0,0,0-.12-.28.39.39,0,0,0-.27-.1,1.11,1.11,0,0,0-.52.16,3.75,3.75,0,0,0-.51.38l-.26.24-.3.29L102.3,1a.69.69,0,0,0-.76.05,3.39,3.39,0,0,0-.42.33,3.53,3.53,0,0,0-.33.37.54.54,0,0,0-.13.26h.1a5,5,0,0,0,.46-.34.45.45,0,0,1,.32-.13A.52.52,0,0,1,101.75,1.55Zm1.14-.5a2.33,2.33,0,0,1,.23-.19,1.2,1.2,0,0,1,.27-.16.54.54,0,0,1,.26-.07.68.68,0,0,1,.29,0,.5.5,0,0,1,.13.11,2.31,2.31,0,0,1-.55.29,1.76,1.76,0,0,1-.61.13.24.24,0,0,1-.15,0Z"/><polygon class="cls-1" points="61.7 8.92 60.33 8.19 59.65 9.3 61.01 10.04 61.7 8.92"/><path class="cls-1" d="M56.33,12.62c0,.1,0,.15.1.15s.1,0,.15-.15a1.73,1.73,0,0,0,.13-.35c0-.14,0-.28.08-.42a2.87,2.87,0,0,0,0-.38c0-.24,0-.51,0-.82s-.07-.62-.11-1-.1-.66-.16-1-.11-.63-.17-.9c-.12-.65-.26-1.36-.42-2.15s-.29-1.65-.4-2.59c0-.09,0-.19,0-.31l0-.32a2.08,2.08,0,0,0-.06-.24c0-.06,0-.1-.09-.1-.15.29-.26.52-.34.69a4.35,4.35,0,0,0-.17.51,1.85,1.85,0,0,0-.07.31c0,.38.08.8.16,1.25s.16.92.26,1.39.2.93.31,1.39l.3,1.27c.17.75.31,1.4.41,2a7.12,7.12,0,0,1,.16,1.31v.15A2.62,2.62,0,0,0,56.33,12.62Z"/><path class="cls-1" d="M54.15,1.64a.42.42,0,0,1,.31-.13.52.52,0,0,1,.21,0l.23.1a1.69,1.69,0,0,0,.27.1,1.2,1.2,0,0,0,.35,0,1.28,1.28,0,0,0,.42-.07,2.69,2.69,0,0,0,.43-.19,2.55,2.55,0,0,0,.39-.24,2.84,2.84,0,0,0,.29-.24,2.22,2.22,0,0,0,.24-.3.69.69,0,0,0,.13-.37A.33.33,0,0,0,57.29.1.39.39,0,0,0,57,0a1.08,1.08,0,0,0-.51.16A4.6,4.6,0,0,0,56,.54l-.25.24-.3.29a1.2,1.2,0,0,1-.22-.1.71.71,0,0,0-.38-.09.78.78,0,0,0-.38.14,4.23,4.23,0,0,0-.41.33,3.53,3.53,0,0,0-.33.37.6.6,0,0,0-.14.26h.11A5,5,0,0,0,54.15,1.64Zm1.67-.59L56,.86A1.91,1.91,0,0,1,56.31.7a.6.6,0,0,1,.27-.07.71.71,0,0,1,.29,0A.5.5,0,0,1,57,.78a2.4,2.4,0,0,1-.56.29,1.72,1.72,0,0,1-.61.13.28.28,0,0,1-.15,0Z"/><path class="cls-1" d="M49.68,3.4c-.07,0-.15.15-.23.44a4.07,4.07,0,0,1-.27.76.36.36,0,0,1-.36.22,1.06,1.06,0,0,1-.31-.05,1.24,1.24,0,0,1-.23-.11c0-.08,0-.18.06-.29a1.29,1.29,0,0,0,0-.35,1.25,1.25,0,0,0,0-.21c0-.05,0-.08-.09-.08a.24.24,0,0,0-.2.11,1.22,1.22,0,0,0-.13.28c0,.11-.09.24-.13.37a1.55,1.55,0,0,1-.19.36.87.87,0,0,1-.32.28,1,1,0,0,1-.51.12.42.42,0,0,1-.35-.12.41.41,0,0,1-.1-.27,1,1,0,0,1,.13-.47.76.76,0,0,0,.13-.32.4.4,0,0,0-.22.09,1.12,1.12,0,0,0-.25.24,1.45,1.45,0,0,0-.19.35,1.11,1.11,0,0,0-.08.44.89.89,0,0,0,.2.69.63.63,0,0,0,.46.19A1.41,1.41,0,0,0,47,6a1.64,1.64,0,0,0,.4-.19,1.82,1.82,0,0,0,.3-.23,1.46,1.46,0,0,0,.21-.25,1.82,1.82,0,0,0,.33.15,1.5,1.5,0,0,0,.55.1.75.75,0,0,0,.49-.17A1.22,1.22,0,0,0,49.6,5a1.83,1.83,0,0,0,.17-.53,2.8,2.8,0,0,0,.06-.55,1.84,1.84,0,0,0,0-.38C49.76,3.45,49.72,3.4,49.68,3.4Z"/><path class="cls-1" d="M49.64,10.56c0-.08,0-.12-.08-.12s-.09.05-.17.14a2.63,2.63,0,0,0-.28.62,2.41,2.41,0,0,0-.12.65,1.94,1.94,0,0,0,.4.43,4.91,4.91,0,0,0,.53.4A3.37,3.37,0,0,1,49,14.19a6.84,6.84,0,0,1-2,1.35,6.07,6.07,0,0,1-1,.36,7.21,7.21,0,0,1-1,.2c-.34,0-.68.07-1,.08l-.92,0a2.74,2.74,0,0,1-.56-.06,2.28,2.28,0,0,0-.42-.06c-.16,0-.24,0-.24.08s.12.14.38.19l1,.23.94.17.95.14c.33.05.69.09,1.09.13a2.75,2.75,0,0,0,.79-.14,5.71,5.71,0,0,0,.88-.4,6.55,6.55,0,0,0,.81-.57,3.15,3.15,0,0,0,.62-.65c.15-.2.28-.39.4-.58a6.48,6.48,0,0,0,.33-.57,3.92,3.92,0,0,0,.23-.6,3.26,3.26,0,0,0,.14-.68l.8,0,.56,0a4.63,4.63,0,0,0,.56-.11,2.05,2.05,0,0,0,.49-.18.93.93,0,0,0,.34-.27,2.73,2.73,0,0,0,.21-.47,3.31,3.31,0,0,0,.12-.45,3.89,3.89,0,0,0,0-.49c0-.17,0-.35,0-.55s0-.3,0-.48,0-.37-.06-.59-.06-.43-.1-.66-.09-.47-.14-.71c-.1-.42-.19-.81-.27-1.18s-.15-.72-.22-1.06l-.18-1c-.05-.33-.11-.68-.16-1l.14,0s.09,0,.13-.09l.09-.18a1.89,1.89,0,0,0,.11-.25,2,2,0,0,0,.1-.26,1.6,1.6,0,0,0,.08-.23l-.37-.24A1.08,1.08,0,0,1,52.42,2a.82.82,0,0,1-.21-.25,1.27,1.27,0,0,1-.15-.35l0,0a3,3,0,0,0-.42.78,2.91,2.91,0,0,0-.15.62.5.5,0,0,0,.06.26,1.4,1.4,0,0,0,.17.2A14.93,14.93,0,0,0,51.87,5c.09.59.2,1.17.33,1.75l.39,1.72c.14.57.26,1.15.37,1.75a3.91,3.91,0,0,1,0,.39c0,.18,0,.34,0,.5a1.12,1.12,0,0,1-.52.31,1.89,1.89,0,0,1-.67.13,4.72,4.72,0,0,1-.7,0,2.33,2.33,0,0,1-.55-.12,1.66,1.66,0,0,1-.45-.25,2.68,2.68,0,0,1-.43-.41A.53.53,0,0,1,49.64,10.56Z"/><path class="cls-1" d="M45.94,12.28a1.13,1.13,0,0,0,.16-.51l-3.81,1.39a2,2,0,0,0-.75.39,1.51,1.51,0,0,0-.12.2,1,1,0,0,0-.09.3l4.24-1.52A.72.72,0,0,0,45.94,12.28Z"/><path class="cls-1" d="M76,4.07a.42.42,0,0,0-.23.09,1.36,1.36,0,0,0-.24.24,1.46,1.46,0,0,0-.2.35,1.32,1.32,0,0,0-.08.44.93.93,0,0,0,.2.69.66.66,0,0,0,.47.19A1.41,1.41,0,0,0,76.38,6a1.57,1.57,0,0,0,.39-.19,1.92,1.92,0,0,0,.31-.23l.21-.25a2,2,0,0,0,.32.15,1.56,1.56,0,0,0,.56.1.77.77,0,0,0,.49-.17A1.19,1.19,0,0,0,79,5a2.21,2.21,0,0,0,.18-.53,3.74,3.74,0,0,0,0-.55,1.34,1.34,0,0,0,0-.38c0-.09-.06-.14-.11-.14s-.15.15-.23.44a4.23,4.23,0,0,1-.26.76.38.38,0,0,1-.36.22,1.06,1.06,0,0,1-.31-.05,1,1,0,0,1-.23-.11c0-.08,0-.18.06-.29a1.9,1.9,0,0,0,0-.35.68.68,0,0,0,0-.21.09.09,0,0,0-.09-.08.23.23,0,0,0-.19.11,1.22,1.22,0,0,0-.14.28c0,.11-.08.24-.13.37a1.24,1.24,0,0,1-.19.36.8.8,0,0,1-.32.28,1,1,0,0,1-.5.12.44.44,0,0,1-.36-.12.4.4,0,0,1-.09-.27.85.85,0,0,1,.13-.47A.94.94,0,0,0,76,4.07Z"/><path class="cls-1" d="M67.62,1.84a.84.84,0,0,0,.11-.49L62.05,3.43a1.78,1.78,0,0,0-.7.45l-.11.17a.71.71,0,0,0-.07.27l6.1-2.24A1.07,1.07,0,0,0,67.62,1.84Z"/><path class="cls-1" d="M94.1,4a0,0,0,0,0,0,0,.33.33,0,0,0-.21.1,1.12,1.12,0,0,0-.23.25,1.52,1.52,0,0,0-.19.36,1.55,1.55,0,0,0-.07.43,1,1,0,0,0,.2.69A.65.65,0,0,0,94,6a1.47,1.47,0,0,0,.48-.07,1.76,1.76,0,0,0,.39-.19,1.5,1.5,0,0,0,.31-.24,2.25,2.25,0,0,0,.21-.24l.32.15a1.57,1.57,0,0,0,.56.09.76.76,0,0,0,.49-.16,1.3,1.3,0,0,0,.32-.41,2.14,2.14,0,0,0,.18-.54,3.61,3.61,0,0,0,0-.54,1.29,1.29,0,0,0,0-.38c0-.1-.06-.15-.11-.15s-.15.15-.23.45a5,5,0,0,1-.26.75.39.39,0,0,1-.36.23A.81.81,0,0,1,96,4.7a1,1,0,0,1-.23-.1,1.88,1.88,0,0,1,.06-.29,2,2,0,0,0,0-.35,1.25,1.25,0,0,0,0-.21q0-.09-.09-.09a.22.22,0,0,0-.19.12,1,1,0,0,0-.14.28l-.13.36a1.3,1.3,0,0,1-.19.37,1,1,0,0,1-.32.28,1,1,0,0,1-.5.11.44.44,0,0,1-.36-.11.4.4,0,0,1-.09-.27A.82.82,0,0,1,94,4.34.82.82,0,0,0,94.1,4Z"/><path class="cls-1" d="M140.46,5.27l.31-.2a.59.59,0,0,1,.32-.09l1,0c.35,0,.66,0,.91.08a3.1,3.1,0,0,1-.61.53,5.09,5.09,0,0,1-.68.38,6.27,6.27,0,0,1-.63.27l-.51.18c-.09,0-.13.06-.13.09s.06.08.19.08a4.14,4.14,0,0,0,.55-.07,6.18,6.18,0,0,0,.62-.12l.56-.16a2.69,2.69,0,0,0,.37-.14,2.74,2.74,0,0,0,.33-.28,4.62,4.62,0,0,0,.41-.46c.13-.17.24-.33.34-.48a.82.82,0,0,0,.14-.34c0-.16-.1-.25-.31-.27l-.38,0-.56,0-.61,0-.49,0a1.29,1.29,0,0,0-.48.1,1.47,1.47,0,0,0-.4.24,1.52,1.52,0,0,0-.3.32,1.13,1.13,0,0,0-.18.34.2.2,0,0,0,0,.09.05.05,0,0,0,.06.06A.3.3,0,0,0,140.46,5.27Z"/><path class="cls-1" d="M97.17,1.67a.84.84,0,0,0,.11-.49L91.6,3.26a1.7,1.7,0,0,0-.7.45l-.11.17a.71.71,0,0,0-.07.27l6.1-2.24A1.07,1.07,0,0,0,97.17,1.67Z"/><path class="cls-1" d="M49.67,1.84a.76.76,0,0,0,.12-.49L42.52,3.92a1.71,1.71,0,0,0-.7.44l-.11.17a.84.84,0,0,0-.07.28l7.69-2.73A1,1,0,0,0,49.67,1.84Z"/><path class="cls-1" d="M67.39,3.89a.19.19,0,0,0,0,.08s0,.07.05.07A.24.24,0,0,0,67.58,4l.31-.2a.57.57,0,0,1,.32-.08l1,0c.36,0,.67,0,.92.08a3.06,3.06,0,0,1-.61.53,5.91,5.91,0,0,1-.68.39c-.23.1-.44.19-.64.26l-.5.18c-.09,0-.13.07-.13.1s.06.07.19.07l.55-.06L69,5.14,69.51,5a2.29,2.29,0,0,0,.38-.15,2,2,0,0,0,.33-.28,4.62,4.62,0,0,0,.41-.46A4.07,4.07,0,0,0,71,3.63a.77.77,0,0,0,.15-.35c0-.15-.11-.24-.32-.26l-.37,0-.57,0-.6,0h-.49a1.28,1.28,0,0,0-.48.09,2.23,2.23,0,0,0-.4.24,1.55,1.55,0,0,0-.3.33A1.31,1.31,0,0,0,67.39,3.89Z"/><path class="cls-1" d="M79.06,1.84a.84.84,0,0,0,.11-.49L73.49,3.43a1.78,1.78,0,0,0-.7.45l-.11.17a.71.71,0,0,0-.07.27l6.1-2.24A1,1,0,0,0,79.06,1.84Z"/><path class="cls-1" d="M71.45,12a1.23,1.23,0,0,0,.09-.43,2.35,2.35,0,0,0-.07-.6,1.78,1.78,0,0,0-.25-.52,1.52,1.52,0,0,0-.45-.42,2.45,2.45,0,0,0-.71-.3l.44-.09.59-.1.65-.09.65-.07c.64-.07,1.21-.12,1.73-.15s1.06-.06,1.62-.06a14.09,14.09,0,0,1,1.76.11c.57.07,1.12.16,1.66.25h.12a.12.12,0,0,0,.07-.07L80,8.36c0-.09,0-.13-.08-.13h-.31l-1.15-.06c-.38,0-.78-.1-1.21-.18s-.85-.19-1.29-.31l-1-.32L72.87,6.6a7,7,0,0,0-2.14-.48,2.75,2.75,0,0,0-.88.13,2.79,2.79,0,0,0-.71.36,1.8,1.8,0,0,0-.51.52,1.85,1.85,0,0,0-.29.62l.14.07a1.49,1.49,0,0,1,.74-.31A5.79,5.79,0,0,1,70,7.44,9.27,9.27,0,0,1,74,8.51L73,8.6l-.81.1-1.45.17c-.41.06-.76.11-1.06.18a3.68,3.68,0,0,0-.77.24,2.26,2.26,0,0,0-.59.37,4.06,4.06,0,0,0-.51.56,9.48,9.48,0,0,0-.51.8,1.19,1.19,0,0,1-.4.43,1.62,1.62,0,0,1-.52.23,2.89,2.89,0,0,1-.6.09l-.61,0a5,5,0,0,1-1-.07,1.65,1.65,0,0,1-.58-.19,1,1,0,0,1-.25-.2L63.12,11l-.22-.33a3.08,3.08,0,0,1-.16-.28,0,0,0,0,0,0,0l0,0a7.4,7.4,0,0,0-.42.68,3.5,3.5,0,0,0-.28.61,10.56,10.56,0,0,1,.87,1.44,2.58,2.58,0,0,1,.28,1,.62.62,0,0,1-.18.39,3.23,3.23,0,0,1-.5.42c-.21.15-.45.29-.72.45l-.88.45a16.51,16.51,0,0,1-2.14.84,25.85,25.85,0,0,1-2.77.71c-1,.2-2.11.37-3.28.49a33.23,33.23,0,0,1-3.67.19,43.7,43.7,0,0,1-4.67-.26,41.1,41.1,0,0,1-4.7-.77,38.89,38.89,0,0,1-4.55-1.31A30.87,30.87,0,0,1,30.82,14l-.15.19.82.67.76.61c.25.19.5.38.76.56s.54.36.84.54c.75.34,1.65.69,2.67,1a33.49,33.49,0,0,0,3.4,1c1.25.28,2.58.52,4,.7a35,35,0,0,0,4.43.27,39.41,39.41,0,0,0,4.37-.23,34,34,0,0,0,3.68-.61,23.42,23.42,0,0,0,3-.89,16.45,16.45,0,0,0,2.33-1.07,5.92,5.92,0,0,0,1-.65,3.27,3.27,0,0,0,.64-.76,3.13,3.13,0,0,0,.35-1,6.49,6.49,0,0,0,.11-1.24l.44,0h.4c.21,0,.41,0,.62,0s.43,0,.69-.08a2.25,2.25,0,0,0,1-.35A3.8,3.8,0,0,0,67.6,12a2.84,2.84,0,0,0,.67.41,5.84,5.84,0,0,0,.8.28,6.26,6.26,0,0,0,.73.17,3.08,3.08,0,0,0,.47.06,1,1,0,0,0,.53-.14,1.44,1.44,0,0,0,.4-.33A1.56,1.56,0,0,0,71.45,12Zm-1.13-.45a2.05,2.05,0,0,1-.57-.08,4.08,4.08,0,0,1-.62-.2,3.31,3.31,0,0,1-.5-.26.72.72,0,0,1-.25-.26,1.18,1.18,0,0,1,.29-.3.63.63,0,0,1,.35-.11,1.25,1.25,0,0,1,.53.13,2.82,2.82,0,0,1,.53.31,2.49,2.49,0,0,1,.41.37.92.92,0,0,1,.2.35A1.3,1.3,0,0,1,70.32,11.52Z"/><path class="cls-1" d="M84.28,1.75a1.25,1.25,0,0,0,.35,0,1.23,1.23,0,0,0,.42-.07,2.35,2.35,0,0,0,.43-.19,3.26,3.26,0,0,0,.4-.24l.29-.24a1.65,1.65,0,0,0,.23-.3.62.62,0,0,0,.13-.37A.35.35,0,0,0,86.41.1a.39.39,0,0,0-.27-.1,1.11,1.11,0,0,0-.52.16,3.75,3.75,0,0,0-.51.38l-.26.24-.3.29L84.34,1a.69.69,0,0,0-.76.05,3.39,3.39,0,0,0-.42.33,3.53,3.53,0,0,0-.33.37A.54.54,0,0,0,82.7,2h.1l.47-.34a.42.42,0,0,1,.31-.13.52.52,0,0,1,.21,0l.22.1A1.69,1.69,0,0,0,84.28,1.75Zm.65-.7a2.33,2.33,0,0,1,.23-.19A1.2,1.2,0,0,1,85.43.7a.54.54,0,0,1,.26-.07.68.68,0,0,1,.29,0,.5.5,0,0,1,.13.11,2.31,2.31,0,0,1-.55.29A1.76,1.76,0,0,1,85,1.2a.24.24,0,0,1-.15,0Z"/><path class="cls-1" d="M85.9,11.85a3.08,3.08,0,0,0,0-.38c0-.24,0-.51,0-.82s-.07-.62-.12-1-.09-.66-.15-1-.12-.63-.17-.9c-.13-.65-.27-1.36-.42-2.15S84.74,4,84.62,3.08c0-.09,0-.19,0-.31l0-.32a1.11,1.11,0,0,0,0-.24c0-.06-.06-.1-.09-.1a7,7,0,0,0-.34.69q-.1.27-.18.51c0,.18-.07.28-.07.31,0,.38.08.8.16,1.25s.17.92.26,1.39.21.93.32,1.39.2.88.3,1.27c.17.75.3,1.4.41,2a7.9,7.9,0,0,1,.15,1.31v.15a2.64,2.64,0,0,0,0,.28q0,.15.09.15c.06,0,.11,0,.16-.15a1.3,1.3,0,0,0,.12-.35C85.85,12.13,85.88,12,85.9,11.85Z"/><path class="cls-1" d="M142.89,16a1.62,1.62,0,0,0-.13.19,1.38,1.38,0,0,0-.09.3l4.4-1.57a.69.69,0,0,0,.36-.25,1,1,0,0,0,.16-.51l-4,1.44A1.83,1.83,0,0,0,142.89,16Z"/><path class="cls-1" d="M82.62,9.14c0-.21-.07-.43-.11-.66s-.09-.47-.14-.71c-.1-.42-.19-.82-.26-1.18s-.15-.72-.22-1.06-.13-.68-.18-1-.11-.68-.17-1l.15,0a.22.22,0,0,0,.13-.09l.09-.18C82,3.1,82,3,82,2.93s.07-.17.1-.26a1.44,1.44,0,0,0,.07-.23l-.37-.24A1.27,1.27,0,0,1,81.53,2a1.27,1.27,0,0,1-.21-.25,1,1,0,0,1-.14-.35l0,0a3.49,3.49,0,0,0-.43.78,2.83,2.83,0,0,0-.14.62.5.5,0,0,0,.06.26,1.4,1.4,0,0,0,.17.2A17.26,17.26,0,0,0,81,5c.1.59.21,1.17.33,1.75s.26,1.14.4,1.72.25,1.15.36,1.75a3,3,0,0,1,.06.39c0,.18,0,.34,0,.5a1.18,1.18,0,0,1-.52.31,2.2,2.2,0,0,1-.68.13,6.81,6.81,0,0,1-.7,0,2.14,2.14,0,0,1-.54-.12,1.72,1.72,0,0,1-.46-.25,2.29,2.29,0,0,1-.42-.41.34.34,0,0,1-.09-.2q0-.12-.09-.12s-.08.05-.16.14a2.68,2.68,0,0,0-.29.62,3.4,3.4,0,0,0-.12.65,2.22,2.22,0,0,0,.4.43,6.25,6.25,0,0,0,.54.4,4.86,4.86,0,0,1-.3.79,4.63,4.63,0,0,1-.54.79,5.5,5.5,0,0,1-.82.76,7,7,0,0,1-1.09.67,6.21,6.21,0,0,1-1.06.4c-.36.1-.72.17-1.06.23s-.67.08-1,.1l-.85,0a2.57,2.57,0,0,1-.55-.06,2.36,2.36,0,0,0-.43-.06q-.24,0-.24.09c0,.07.13.13.38.19l1,.22c.32.07.63.12.94.17l1,.14c.32.05.68.1,1.08.14a2.2,2.2,0,0,0,.78-.17,5.07,5.07,0,0,0,.83-.43,6.15,6.15,0,0,0,.78-.59,4.16,4.16,0,0,0,.61-.67,7.28,7.28,0,0,0,.71-1.22,4.53,4.53,0,0,0,.35-1.36l.8,0,.56,0a4.46,4.46,0,0,0,.55-.11,1.9,1.9,0,0,0,.49-.18.89.89,0,0,0,.35-.27,2.73,2.73,0,0,0,.21-.47,2.46,2.46,0,0,0,.11-.45,3.87,3.87,0,0,0,0-.49c0-.17,0-.36,0-.55s0-.3,0-.48S82.64,9.36,82.62,9.14Z"/><path class="cls-1" d="M100.51,9.91c-.09-.29-.2-.6-.31-.92s-.23-.63-.33-.92L99.6,7.3a5,5,0,0,1-.16-.5l-.18-.61a7.56,7.56,0,0,0-.34-.87,3.17,3.17,0,0,0-.22.7c0,.19-.06.36-.09.53s0,.16,0,.22a.66.66,0,0,0,0,.13,2.38,2.38,0,0,0,.13.58c.09.28.19.61.31,1,.06.19.14.43.25.72s.23.63.38,1l.56,1.53a.22.22,0,0,1-.06.15s-.16.08-.39.08a2.61,2.61,0,0,1-.66-.09,3.38,3.38,0,0,1-.69-.26,2.42,2.42,0,0,1-.62-.42,1.79,1.79,0,0,1-.43-.57c-.12-.25-.24-.54-.36-.86a7.72,7.72,0,0,1-.29-1c-.06-.27-.14-.57-.22-.88s-.17-.61-.25-.88-.1-.28-.16-.43a5.23,5.23,0,0,0-.22-.51l-.13.37a3,3,0,0,0-.09.29c0,.09,0,.19-.06.32s0,.26-.08.43l.16.73c0,.18.08.36.13.54l.11.45c.14.64.24,1.11.29,1.43a4.69,4.69,0,0,1,.07.58.83.83,0,0,1-.14.24,2.21,2.21,0,0,1-.44.4,2.7,2.7,0,0,1-.7.36,2.45,2.45,0,0,1-.93.16,2,2,0,0,1-.84-.16,2,2,0,0,1-.93-.85,1.54,1.54,0,0,1-.15-.36,3.17,3.17,0,0,1-.07-.57c0-.21,0-.43,0-.66s0-.59,0-.9,0-.55,0-.75a1.75,1.75,0,0,0-.05-.43c0-.12-.08-.18-.14-.18a2.51,2.51,0,0,0-.25.41,3.35,3.35,0,0,0-.15.35c0,.11-.07.22-.1.34l-.1.42-.68.35-.86.4-.84.41a6,6,0,0,0-.64.38,3.34,3.34,0,0,0-.55.52,6.43,6.43,0,0,0-.47.63,5.82,5.82,0,0,0-.32.55,1,1,0,0,0-.13.32.38.38,0,0,0,.06.17.48.48,0,0,0,.2.2,1.42,1.42,0,0,0,.39.18,2.31,2.31,0,0,0,.64.07h.75l.65,0,.49,0,.25,0a7.51,7.51,0,0,0,.72-.43,1.82,1.82,0,0,0,.33-.27.66.66,0,0,0,.1-.17.11.11,0,0,1,.1-.08,6.17,6.17,0,0,0,.31.63,1.81,1.81,0,0,0,.54.59,2.34,2.34,0,0,0,.61.32,2.77,2.77,0,0,0,.87.12,2.71,2.71,0,0,0,.71-.09,2.76,2.76,0,0,0,.59-.22,2.15,2.15,0,0,0,.46-.3,2.92,2.92,0,0,0,.34-.37c.13-.17.24-.33.33-.47l.31-.51a2.29,2.29,0,0,0,.26.38,2.35,2.35,0,0,0,.33.3,4.64,4.64,0,0,0,.4.26l.47.26a4.71,4.71,0,0,0,.72.3,2.84,2.84,0,0,0,.84.12.66.66,0,0,0,.43-.15,1.5,1.5,0,0,0,.32-.38,3.29,3.29,0,0,0,.23-.5c.06-.19.11-.36.15-.53a4.39,4.39,0,0,0,.07-.44,1.69,1.69,0,0,0,0-.26,2.24,2.24,0,0,0-.09-.52C100.67,10.47,100.6,10.21,100.51,9.91Zm-9.43,1.66a2.91,2.91,0,0,1-.47.13,4.51,4.51,0,0,1-.53.09l-.51,0-.56,0-.54,0a2.55,2.55,0,0,1-.4-.08q-.15,0-.15-.09c0-.07,0-.14.14-.23a1.35,1.35,0,0,1,.29-.18l.68-.26.87-.36c.29-.14.56-.28.81-.43a1.5,1.5,0,0,0,.48-.44h.15V10c0,.27,0,.5,0,.72s0,.44,0,.69A1.35,1.35,0,0,1,91.08,11.57Z"/><path class="cls-1" d="M107.43,15.52l-.13.19a1,1,0,0,0-.08.31l4.39-1.58a.69.69,0,0,0,.36-.25,1.12,1.12,0,0,0,.17-.51l-4,1.44A1.83,1.83,0,0,0,107.43,15.52Z"/><path class="cls-1" d="M86,15.79l-.13.2a1,1,0,0,0-.08.3l4.39-1.57a.75.75,0,0,0,.36-.25,1.13,1.13,0,0,0,.17-.52l-4,1.45A2,2,0,0,0,86,15.79Z"/><path class="cls-1" d="M33.1,12l.39-.15a4.07,4.07,0,0,0,.44-.18,4.23,4.23,0,0,0,.42-.22,1.91,1.91,0,0,0,.35-.27h.11a4,4,0,0,0,.51.46c.21.15.42.29.64.42s.42.22.6.3a1.1,1.1,0,0,0,.42.13,3.66,3.66,0,0,0,.74-.1,6.43,6.43,0,0,0,.71-.22l.72-.31.75-.35,1.33-.6c.23-.09.48-.18.75-.26s.55-.14.85-.2.58-.09.88-.12a8.07,8.07,0,0,1,.83,0h.54l.76,0,.94.07,1,.1a.19.19,0,0,0,.16-.08l.45-1.08c0-.07,0-.1-.13-.1H47.18a13.76,13.76,0,0,1-5-.85c-.36-.15-.71-.28-1-.4s-.65-.2-.94-.28-.54-.14-.77-.18a2.64,2.64,0,0,0-.54-.07,2.48,2.48,0,0,0-2.5,1.7l.13.09a4.48,4.48,0,0,1,.88-.27,4.58,4.58,0,0,1,.74-.08l.48,0,.57.09.63.15.63.19,1.17.39a4.17,4.17,0,0,0,.63.18l-.84.2c-.44.11-1,.29-1.78.53L38.46,11a3.43,3.43,0,0,1-1,.17,4.91,4.91,0,0,1-.82-.06,3.75,3.75,0,0,1-.6-.15,1.91,1.91,0,0,1-.43-.2,1.73,1.73,0,0,1-.29-.23.69.69,0,0,0,.15-.21.43.43,0,0,0,.06-.22.78.78,0,0,0,0-.22.15.15,0,0,0-.15-.1.38.38,0,0,0-.27.15,2.33,2.33,0,0,1-.49.37,3.83,3.83,0,0,1-.67.3c-.25.09-.54.18-.86.27l-1.1.3c-.51.14-1.15.27-1.93.4s-1.67.25-2.65.36-2,.19-3.18.26-2.31.1-3.53.1c-.55,0-1.16,0-1.83,0s-1.35-.06-2-.11S15.51,12,14.94,12s-1-.12-1.33-.19-.81-.19-1.13-.28a6.6,6.6,0,0,1-.89-.35,4.12,4.12,0,0,1-.77-.48,6,6,0,0,1-.76-.7,4.51,4.51,0,0,0-.82-.7A1.46,1.46,0,0,0,8.46,9,3.14,3.14,0,0,0,8,9.06a2.69,2.69,0,0,0-.6.23,3.92,3.92,0,0,0-.65.44,3.57,3.57,0,0,0-.63.73,1.7,1.7,0,0,0-.24.58,4.07,4.07,0,0,0-.07.61,7.8,7.8,0,0,1-2.22,1.71A15.43,15.43,0,0,1,.29,14.61c-.2.07-.29.14-.29.2s.12.1.35.1c.6,0,1.2-.1,1.81-.18a6.91,6.91,0,0,0,1.8-.5,3.72,3.72,0,0,0,.83-.47,5.59,5.59,0,0,0,.67-.6A4.88,4.88,0,0,0,6,12.54c.15-.2.28-.39.39-.56a11.88,11.88,0,0,0,1.81.68,4.68,4.68,0,0,0,1.09.21.83.83,0,0,0,.41-.12,1.14,1.14,0,0,0,.42-.38l.19-.26a3.76,3.76,0,0,0,1.14.53c.44.13.91.24,1.42.35a12.42,12.42,0,0,0,1.36.21c.56.06,1.17.12,1.85.17s1.39.09,2.14.12,1.48,0,2.21,0c1.34,0,2.66,0,4-.15S26.9,13.14,28,13s2.13-.33,3-.51A20,20,0,0,0,33.1,12Zm-25.63-1c-.44-.16-.67-.31-.67-.44a.26.26,0,0,1,.09-.16,1.19,1.19,0,0,1,.19-.2A1.4,1.4,0,0,1,7.34,10a.54.54,0,0,1,.26-.07,1.16,1.16,0,0,1,.46.12,3,3,0,0,1,.51.34,2.76,2.76,0,0,1,.43.47,1.25,1.25,0,0,1,.23.55A9.84,9.84,0,0,1,7.47,10.91Z"/><polygon class="cls-1" points="37.33 14.25 38.7 15 39.38 13.88 38.02 13.14 37.33 14.25"/><path class="cls-1" d="M6.05,15.52a.92.92,0,0,0-.13.19,1,1,0,0,0-.09.31l4.39-1.58a.76.76,0,0,0,.37-.25,1.13,1.13,0,0,0,.16-.51l-4,1.44A1.72,1.72,0,0,0,6.05,15.52Z"/><path class="cls-1" d="M149,8.43a10.86,10.86,0,0,0-.74-1.49,15.42,15.42,0,0,0-1-1.43c-.35-.45-.66-.85-.95-1.19a.14.14,0,0,0-.11-.06c-.06,0-.09,0-.1.07a4.51,4.51,0,0,0-.23.86,5.67,5.67,0,0,0-.08.9.44.44,0,0,0,.08.25.91.91,0,0,0,.21.18,1.24,1.24,0,0,0,.29.1l.3,0a12.19,12.19,0,0,1,.82,1.11c.25.39.47.74.65,1.08a6.35,6.35,0,0,1,.43.88,1.86,1.86,0,0,1,.15.56.27.27,0,0,1-.18.28,1.54,1.54,0,0,1-.57.07l-.54,0a4.14,4.14,0,0,1-.72-.14,3.76,3.76,0,0,1-.77-.31,3,3,0,0,1-.73-.57,2.09,2.09,0,0,0,.09-.52c0-.15,0-.22-.12-.22A.39.39,0,0,0,145,9a1.38,1.38,0,0,0-.27.42l-.29.56a2.78,2.78,0,0,1-.26.4.94.94,0,0,1-.28.25.73.73,0,0,1-.36.08,1.85,1.85,0,0,1-.44-.06,2.91,2.91,0,0,1-.5-.16,3.62,3.62,0,0,1-.44-.2,1.32,1.32,0,0,1-.29-.19l.15-.44a1.54,1.54,0,0,0,.09-.46A.51.51,0,0,0,142,9a.14.14,0,0,0-.13-.09c-.08,0-.17.08-.27.25-.22.36-.42.65-.6.89a2.21,2.21,0,0,1-.6.55,2.1,2.1,0,0,1-.8.28,6.55,6.55,0,0,1-1.18.08,2.15,2.15,0,0,1-.45,0,1.56,1.56,0,0,1-.4-.1.76.76,0,0,1-.27-.15.26.26,0,0,1-.1-.21,2.59,2.59,0,0,1,.14-.29.49.49,0,0,0,.09-.28c0-.14,0-.2-.13-.2a.47.47,0,0,0-.31.15,3.24,3.24,0,0,1-.66.34c-.3.13-.64.25-1,.38s-.79.26-1.22.38-.86.23-1.27.32-1.15.24-1.89.37-1.57.23-2.5.34-1.95.18-3,.25-2.27.1-3.5.1c-.52,0-1.11,0-1.77,0s-1.32-.06-2-.1-1.26-.1-1.83-.16a13,13,0,0,1-1.33-.2c-.43-.09-.81-.18-1.13-.28a5.49,5.49,0,0,1-.89-.34,4.77,4.77,0,0,1-.77-.49,6.69,6.69,0,0,1-.76-.69,4.51,4.51,0,0,0-.82-.7,1.48,1.48,0,0,0-.78-.26,2.31,2.31,0,0,0-.47.06,2.62,2.62,0,0,0-.6.22,3.83,3.83,0,0,0-.65.45,3.57,3.57,0,0,0-.63.73,1.58,1.58,0,0,0-.24.57,4.36,4.36,0,0,0-.07.62A8.28,8.28,0,0,1,105,13.45a16.31,16.31,0,0,1-3.3,1.25c-.19.07-.29.14-.29.2s.12.1.35.1c.6,0,1.2-.1,1.81-.19a7.3,7.3,0,0,0,1.8-.49,3.75,3.75,0,0,0,.83-.48,4.79,4.79,0,0,0,.67-.59,5.52,5.52,0,0,0,.52-.62l.39-.57a13.27,13.27,0,0,0,1.81.69,4.68,4.68,0,0,0,1.09.21.83.83,0,0,0,.41-.12,1.34,1.34,0,0,0,.42-.38l.19-.27a3.34,3.34,0,0,0,1.14.53c.44.13.91.25,1.42.35.35.08.81.15,1.38.22s1.18.12,1.86.17,1.39.08,2.15.11,1.5,0,2.23,0c1.33,0,2.57,0,3.73-.12s2.24-.17,3.22-.29,1.88-.25,2.68-.41,1.51-.31,2.12-.47l.7-.2.7-.22.62-.24a4.06,4.06,0,0,0,.46-.22h.11a.66.66,0,0,0,.24.36,1.54,1.54,0,0,0,.46.24,3.41,3.41,0,0,0,.59.13,4.63,4.63,0,0,0,.65,0,8.19,8.19,0,0,0,.87,0,4.86,4.86,0,0,0,.81-.15,3.56,3.56,0,0,0,.73-.28,2.46,2.46,0,0,0,.6-.46h0a2.36,2.36,0,0,0,.41.25,3.26,3.26,0,0,0,.48.2l.45.12a2,2,0,0,0,.38.05,4.28,4.28,0,0,0,.56,0,.82.82,0,0,0,.4-.13,1.49,1.49,0,0,0,.38-.35c.14-.16.31-.38.53-.66h.07a6.18,6.18,0,0,0,1.46.83,5,5,0,0,0,1.78.28,1.16,1.16,0,0,0,.4-.07.86.86,0,0,0,.38-.29,1.68,1.68,0,0,0,.28-.6,3.68,3.68,0,0,0,.12-1A3.9,3.9,0,0,0,149,8.43ZM108.83,11c-.44-.17-.66-.32-.66-.44a.26.26,0,0,1,.08-.17,1.14,1.14,0,0,1,.19-.19,1.45,1.45,0,0,1,.26-.17A.54.54,0,0,1,109,10a1,1,0,0,1,.46.13,2.93,2.93,0,0,1,.51.33,2.83,2.83,0,0,1,.43.48,1.2,1.2,0,0,1,.23.55A11.92,11.92,0,0,1,108.83,11Z"/><polygon class="cls-1" points="145.22 12.37 144.35 13.51 145.68 14.29 146.6 13.14 145.22 12.37"/><polygon class="cls-1" points="35.09 14.58 36.45 15.31 37.14 14.2 35.77 13.47 35.09 14.58"/><path class="cls-1" d="M103.41,12.62q0,.15.09.15c.06,0,.11,0,.16-.15a1.3,1.3,0,0,0,.12-.35c0-.14.06-.28.08-.42a3.08,3.08,0,0,0,0-.38c0-.24,0-.51-.05-.82s-.07-.62-.12-1-.09-.66-.15-1-.12-.63-.17-.9c-.13-.65-.27-1.36-.42-2.15s-.29-1.65-.41-2.59c0-.09,0-.19,0-.31l0-.32a.7.7,0,0,0-.06-.24c0-.06,0-.1-.08-.1a7,7,0,0,0-.34.69q-.11.27-.18.51c0,.18-.07.28-.07.31,0,.38.08.8.16,1.25s.17.92.26,1.39.21.93.32,1.39.2.88.29,1.27c.18.75.31,1.4.42,2a7.9,7.9,0,0,1,.15,1.31v.15A2.64,2.64,0,0,0,103.41,12.62Z"/><path class="cls-1" d="M61.28,18l-.11.17a.78.78,0,0,0-.07.28l6.1-2.24a1,1,0,0,0,.35-.25.75.75,0,0,0,.11-.49L62,17.57A1.76,1.76,0,0,0,61.28,18Z"/></g></g></svg>