<svg xmlns="http://www.w3.org/2000/svg" xmlns:xlink="http://www.w3.org/1999/xlink" viewBox="0 0 563.82 62.14"><defs><style>.cls-1{fill:#006838;}.cls-2{fill:url(#linear-gradient);}.cls-3{fill:#21b14b;}.cls-4{fill:#2e100f;}.cls-5{fill:#148441;}.cls-6{fill:url(#linear-gradient-2);}.cls-7{fill:url(#linear-gradient-3);}.cls-8{fill:url(#linear-gradient-4);}.cls-9{fill:url(#linear-gradient-5);}.cls-10{fill:url(#linear-gradient-6);}.cls-11{fill:url(#linear-gradient-7);}.cls-12{fill:url(#linear-gradient-8);}.cls-13{fill:url(#linear-gradient-9);}.cls-14{fill:url(#linear-gradient-10);}.cls-15{fill:url(#radial-gradient);}.cls-16{fill:#fff;}.cls-17{fill:#231f20;}</style><linearGradient id="linear-gradient" x1="287.85" y1="10.41" x2="287.85" y2="46.96" gradientTransform="matrix(1.01, 0.02, -0.02, 1, -9.75, -6.52)" gradientUnits="userSpaceOnUse"><stop offset="0.18" stop-color="#fff"/><stop offset="0.61" stop-color="#f6eb0f"/></linearGradient><linearGradient id="linear-gradient-2" x1="291.1" y1="46.17" x2="291.1" y2="40.55" gradientTransform="matrix(1.05, -0.04, 0.04, 1.09, -28.48, -20.82)" gradientUnits="userSpaceOnUse"><stop offset="0" stop-color="#f6eb0f"/><stop offset="1" stop-color="#ee3c24"/></linearGradient><linearGradient id="linear-gradient-3" x1="286.1" y1="47.87" x2="286.1" y2="35.46" xlink:href="#linear-gradient-2"/><linearGradient id="linear-gradient-4" x1="286.88" y1="47.87" x2="286.88" y2="35.46" xlink:href="#linear-gradient-2"/><linearGradient id="linear-gradient-5" x1="288.27" y1="47.87" x2="288.27" y2="35.46" xlink:href="#linear-gradient-2"/><linearGradient id="linear-gradient-6" x1="290.07" y1="47.87" x2="290.07" y2="35.46" xlink:href="#linear-gradient-2"/><linearGradient id="linear-gradient-7" x1="292.02" y1="47.87" x2="292.02" y2="35.46" xlink:href="#linear-gradient-2"/><linearGradient id="linear-gradient-8" x1="293.83" y1="47.87" x2="293.83" y2="35.46" xlink:href="#linear-gradient-2"/><linearGradient id="linear-gradient-9" x1="295.25" y1="47.87" x2="295.25" y2="35.46" xlink:href="#linear-gradient-2"/><linearGradient id="linear-gradient-10" x1="296.07" y1="47.87" x2="296.07" y2="35.46" xlink:href="#linear-gradient-2"/><radialGradient id="radial-gradient" cx="278.86" cy="27.73" r="27.49" gradientUnits="userSpaceOnUse"><stop offset="0.72" stop-color="#00622c"/><stop offset="0.74" stop-color="#0d7634"/><stop offset="0.78" stop-color="#219740"/><stop offset="0.81" stop-color="#2dac47"/><stop offset="0.84" stop-color="#32b34a"/><stop offset="0.87" stop-color="#30af49"/><stop offset="0.91" stop-color="#29a444"/><stop offset="0.94" stop-color="#1d913d"/><stop offset="0.98" stop-color="#0c7633"/><stop offset="1" stop-color="#00622c"/></radialGradient></defs><g id="Layer_2" data-name="Layer 2"><g id="Layer_1-2" data-name="Layer 1"><path class="cls-1" d="M319.94,37.3a2,2,0,0,1-.44-.47,2.69,2.69,0,0,1-.31-.61,1.9,1.9,0,0,1-.11-.58,1,1,0,0,1,.23-.65,1.46,1.46,0,0,1,.71-.46l1.72-.58q.42-.14.66-.24a1.05,1.05,0,0,0,.34-.22.47.47,0,0,0,.14-.28,2.22,2.22,0,0,0,0-.41V29l-.82,1c-.27.33-.54.65-.82.95a10.48,10.48,0,0,1-.9.86,7.51,7.51,0,0,1-1,.71q-2.79,1.55-2.79,3.35a3.23,3.23,0,0,0,.15.94,8.88,8.88,0,0,0,.34.92l.34.71a1.57,1.57,0,0,1,.16.32l-1.33,1.34h6.63A1.16,1.16,0,0,0,324,39l.34-1.52h-4A.75.75,0,0,1,319.94,37.3Z"/><path class="cls-1" d="M348.86,28.88a3.89,3.89,0,0,1,1.62,1.32,5,5,0,0,0,.84-1.81,1,1,0,0,0-.19-.54c-.13-.19-.27-.38-.42-.58s-.3-.41-.44-.62A1.25,1.25,0,0,1,350,26c-1.26,1.08-1.9,1.76-1.9,2S348.38,28.68,348.86,28.88Z"/><path class="cls-1" d="M360.45,38.4a1.56,1.56,0,0,1-.26-.69,6.49,6.49,0,0,1-.08-1.11V18.48q-2.46,3-3.56,3,1.86,3.48,1.86,4.57V36.45a.94.94,0,0,1-.08.36,1.41,1.41,0,0,1-.22.34,1.42,1.42,0,0,1-.3.25.64.64,0,0,1-.31.09h-3.4c-.05-.13-.11-.28-.2-.47s-.19-.41-.31-.68l-1.07-2.26a5.76,5.76,0,0,1-.69-2.08,5.13,5.13,0,0,1,.22-1.34l-2,2a3,3,0,0,0-.79,2,7.13,7.13,0,0,0,.83,2.36l.71,1.53a4.92,4.92,0,0,1,.53,1.49,1.36,1.36,0,0,1-.27.78L349.38,39c-.93-1-1.59-1.49-2-1.53h-2.52L341.83,31l-2.12,2.22a2.41,2.41,0,0,1,1,1l1.56,3.27h-1.82l-2.35-5L336,34.7a2.3,2.3,0,0,1,1,1l.84,1.76h-1.81L334.41,34l-2.13,2.22a2.17,2.17,0,0,1,1,1l.13.29h-2.64a.92.92,0,0,1-.48-.23,4.23,4.23,0,0,1-.56-.56,4.33,4.33,0,0,1-.49-.66,1.07,1.07,0,0,1-.21-.52v-17q-2.46,3-3.57,3c1.24,2.32,1.87,3.84,1.87,4.57v14h20a1.49,1.49,0,0,1,.86.37,6.36,6.36,0,0,1,.95.93,7.1,7.1,0,0,1,.81,1.16,3.77,3.77,0,0,1,.44,1.08L353,41.1c.21-.22.4-.41.56-.59s.28-.33.36-.45h6a2.46,2.46,0,0,0,2-.94,8.51,8.51,0,0,1-.88-.31A1.36,1.36,0,0,1,360.45,38.4Z"/><path class="cls-1" d="M369.36,39.08a6.85,6.85,0,0,1-1.48-.68,3.23,3.23,0,0,1-.95-.88,3.11,3.11,0,0,1-.51-1.14,7.54,7.54,0,0,1-.14-1.51V18.48q-2.32,3-3.57,3c1.24,2.32,1.87,3.84,1.87,4.57V36.77a5,5,0,0,0,.2,1.56,2.08,2.08,0,0,0,.68,1,2.91,2.91,0,0,0,1.27.54,9.92,9.92,0,0,0,2,.17q2,0,2.37-.45l-1-.31Z"/><path class="cls-1" d="M378.44,25.82a4,4,0,0,1,1.63,1.32,4.89,4.89,0,0,0,.84-1.82,1,1,0,0,0-.2-.54l-.42-.58c-.15-.2-.3-.4-.44-.61a1.23,1.23,0,0,1-.22-.63c-1.27,1.09-1.9,1.76-1.9,2S378,25.61,378.44,25.82Z"/><path class="cls-1" d="M382.19,25.82a3.89,3.89,0,0,1,1.62,1.32,5,5,0,0,0,.85-1.82,1,1,0,0,0-.2-.54L384,24.2c-.15-.2-.3-.4-.44-.61a1.25,1.25,0,0,1-.23-.63c-1.26,1.09-1.89,1.76-1.89,2S381.71,25.61,382.19,25.82Z"/><path class="cls-1" d="M403.34,39.32a2.37,2.37,0,0,1-.57-.06,1.2,1.2,0,0,1-.45-.23,2,2,0,0,1-.42-.5,5.59,5.59,0,0,1-.46-.87L398.31,31l-2.12,2.22a2.46,2.46,0,0,1,1,1l1.55,3.27H397l-2.36-5-2.12,2.22a2.3,2.3,0,0,1,1,1l.84,1.76h-1.82L390.88,34l-2.12,2.22a2.17,2.17,0,0,1,1,1l.13.29h-3.54L384.19,33a9.7,9.7,0,0,1-1.14-3,5.91,5.91,0,0,1,.36-2l-1.09,1.14-.92-1.86-2.21,2.19,1,2-2.69,2.85a3,3,0,0,0-.86,2.14,2.37,2.37,0,0,0,.1.67c.06.24.14.48.22.71s.15.44.22.63a1.61,1.61,0,0,1,.09.44,3,3,0,0,1-.66,1.2h24.94A2.5,2.5,0,0,0,403.34,39.32Zm-20.57-1.81H382l-.48,0L380.71,36a2.42,2.42,0,0,1-.29-1,.67.67,0,0,1,.16-.36,4.62,4.62,0,0,1,.34-.47c.12-.15.24-.28.35-.4l.17-.19a4.23,4.23,0,0,0,.54,1.66l1.12,2.33Z"/><path class="cls-1" d="M409.85,32.17a5.72,5.72,0,0,1-.7-2.09,5.07,5.07,0,0,1,.22-1.33l-2,2a3,3,0,0,0-.79,2,7.21,7.21,0,0,0,.83,2.36l.71,1.52a11.09,11.09,0,0,1,.79,1.87,3.58,3.58,0,0,1-1.26,2.14l-4.87,5a9.54,9.54,0,0,1-2,1.62,7.55,7.55,0,0,1-1.78.78,2.77,2.77,0,0,0,1,.17,5.08,5.08,0,0,0,3.81-1.54l6.66-6.88a3.88,3.88,0,0,0,1.29-2.65,7.54,7.54,0,0,0-.86-2.72Z"/><path class="cls-1" d="M437.53,29.94a5.91,5.91,0,0,1,.36-2L432,34.27a2.41,2.41,0,0,0-.71,1.66,2,2,0,0,0,.26.91l.29.65h-2.5l-1.17-2.67c-.37-.86-.7-1.28-1-1.28h-6.8a1.71,1.71,0,0,1-1.54-1.2l-2-4.31-2.12,2.22a2.33,2.33,0,0,1,1,1L417,34c.66,1.4,1.47,2.1,2.42,2.1h6.24l.67,1.39H419a6.89,6.89,0,0,1-4.26-1.63v4.2h27.44l-3.63-7.43A7.86,7.86,0,0,1,437.53,29.94Zm-.28,7.57h-.81l-.48,0L435.2,36a2.31,2.31,0,0,1-.3-1,.76.76,0,0,1,.16-.36c.1-.16.22-.31.34-.47s.24-.28.35-.4l.18-.19a4.35,4.35,0,0,0,.53,1.66l1.12,2.33Z"/><path class="cls-1" d="M464.73,31.4a3.9,3.9,0,0,1,1.63,1.32,5,5,0,0,0,.84-1.82,1,1,0,0,0-.2-.54c-.13-.19-.27-.38-.42-.58s-.3-.4-.43-.61a1.19,1.19,0,0,1-.23-.63c-1.27,1.08-1.9,1.76-1.9,2S464.26,31.19,464.73,31.4Z"/><path class="cls-1" d="M471,34.08a5.63,5.63,0,0,1-.7-2.08,5.21,5.21,0,0,1,.23-1.34l-2,2a3,3,0,0,0-.8,2,7.39,7.39,0,0,0,.83,2.36l.71,1.53a5.07,5.07,0,0,1,.54,1.49,1.38,1.38,0,0,1-.28.78c-.31-.33-.62-.66-.92-1l-.94-1c-.9-.89-1.6-1.33-2.11-1.33h-9.12a1,1,0,0,1-.44-.1,1.84,1.84,0,0,1-.4-.26,1.31,1.31,0,0,1-.29-.34.77.77,0,0,1-.1-.38,3.27,3.27,0,0,1,.48-.77l1.14-1.28a9.79,9.79,0,0,0,.47.89,1.58,1.58,0,0,0,1.12.79,6.33,6.33,0,0,0,1,.06h2.32a4.67,4.67,0,0,0,.72,0,1.67,1.67,0,0,0,.52-.16,2.07,2.07,0,0,0,.47-.34c.16-.15.35-.35.58-.6l1.07-1.17h-3.8a2.06,2.06,0,0,1-2.06-1.37l-.71-1.76-9.08,9.4h16.19a1.74,1.74,0,0,1,.95.36,5.61,5.61,0,0,1,1,.89,7.47,7.47,0,0,1,.87,1.16A4,4,0,0,1,469,43.6l2.51-2.5.71-.75a2.45,2.45,0,0,0,.39-.58,1.74,1.74,0,0,0,.17-.55,4.3,4.3,0,0,0,0-.67,6.19,6.19,0,0,0-.69-2.21Z"/><path class="cls-1" d="M461,31.4a3.81,3.81,0,0,1,1.62,1.32,5,5,0,0,0,.84-1.82,1,1,0,0,0-.19-.54c-.13-.19-.27-.38-.42-.58s-.3-.4-.44-.61a1.28,1.28,0,0,1-.23-.63c-1.26,1.08-1.9,1.76-1.9,2S460.51,31.19,461,31.4Z"/><path class="cls-1" d="M482.53,28.88a3.89,3.89,0,0,1,1.62,1.32,5,5,0,0,0,.84-1.81,1,1,0,0,0-.19-.54c-.13-.19-.27-.38-.42-.58s-.3-.41-.44-.62a1.25,1.25,0,0,1-.23-.62c-1.26,1.08-1.9,1.76-1.9,2S482.05,28.68,482.53,28.88Z"/><path class="cls-1" d="M494.77,42.31c-.15-.2-.29-.41-.44-.62a1.23,1.23,0,0,1-.22-.62c-1.27,1.08-1.9,1.76-1.9,2s.24.62.71.82a4,4,0,0,1,1.63,1.32,5,5,0,0,0,.84-1.81,1,1,0,0,0-.2-.54C495.07,42.7,494.92,42.51,494.77,42.31Z"/><path class="cls-1" d="M498.88,37.92l-3.25-6.81c-.42-.89-.75-1.34-1-1.34s-.84.37-1.53,1.1l-3,3.11a2.91,2.91,0,0,1,1.4-.37,1.88,1.88,0,0,1,1.07.39,4.33,4.33,0,0,1,1.07,1.23l1.39,2.26h-7.31c0-.13-.11-.28-.2-.47l-.31-.68-1.07-2.26a5.83,5.83,0,0,1-.7-2.08,5.21,5.21,0,0,1,.23-1.34l-2,2a3,3,0,0,0-.79,2,7.28,7.28,0,0,0,.82,2.36l.72,1.53a5.24,5.24,0,0,1,.53,1.49,1.36,1.36,0,0,1-.27.78L483.05,39c-.93-1-1.59-1.49-2-1.53h-1.51a.87.87,0,0,1-.47-.23,3.75,3.75,0,0,1-.57-.56A5.12,5.12,0,0,1,478,36a1.07,1.07,0,0,1-.21-.52v-17q-2.46,3-3.56,3,1.86,3.48,1.86,4.57v14h4.95a1.49,1.49,0,0,1,.86.37,6.36,6.36,0,0,1,.95.93,8.59,8.59,0,0,1,.81,1.16,3.77,3.77,0,0,1,.44,1.08l2.52-2.5c.21-.22.4-.41.56-.59l.36-.45h9.15a7.6,7.6,0,0,0,5.82,2.63,1.41,1.41,0,0,0,.78-.19,6.81,6.81,0,0,0-1-.48A8.7,8.7,0,0,1,498.88,37.92Z"/><path class="cls-1" d="M514.11,25.82a3.89,3.89,0,0,1,1.62,1.32,4.89,4.89,0,0,0,.84-1.82,1,1,0,0,0-.19-.54L516,24.2c-.15-.2-.3-.4-.44-.61a1.25,1.25,0,0,1-.23-.63c-1.26,1.09-1.9,1.76-1.9,2S513.63,25.61,514.11,25.82Z"/><path class="cls-1" d="M510.36,25.82A3.89,3.89,0,0,1,512,27.14a4.81,4.81,0,0,0,.85-1.82,1,1,0,0,0-.2-.54l-.42-.58c-.15-.2-.3-.4-.44-.61a1.35,1.35,0,0,1-.23-.63c-1.26,1.09-1.89,1.76-1.89,2S509.88,25.61,510.36,25.82Z"/><path class="cls-1" d="M538.19,44.46c-.15-.2-.29-.4-.43-.61a1.25,1.25,0,0,1-.23-.63c-1.27,1.09-1.9,1.76-1.9,2s.24.61.71.82A3.86,3.86,0,0,1,538,47.4a5,5,0,0,0,.84-1.82,1,1,0,0,0-.19-.54C538.49,44.86,538.35,44.66,538.19,44.46Z"/><path class="cls-1" d="M534.45,44.46c-.15-.2-.3-.4-.44-.61a1.25,1.25,0,0,1-.23-.63c-1.26,1.09-1.9,1.76-1.9,2s.24.61.72.82a3.89,3.89,0,0,1,1.62,1.32,5,5,0,0,0,.84-1.82,1,1,0,0,0-.19-.54Z"/><path class="cls-1" d="M554.84,42.5a7.27,7.27,0,0,0-1-.48,8.71,8.71,0,0,1-3.41-4.1l-3.24-6.81c-.42-.89-.76-1.34-1-1.34s-.83.37-1.52,1.1l-3,3.11a2.87,2.87,0,0,1,1.39-.37,1.86,1.86,0,0,1,1.07.39,4,4,0,0,1,1.07,1.23l1.4,2.26h-7.32c0-.13-.11-.28-.19-.47l-.31-.68-1.07-2.26A5.63,5.63,0,0,1,537,32a5.21,5.21,0,0,1,.23-1.34l-2,2a3,3,0,0,0-.8,2,7.39,7.39,0,0,0,.83,2.36l.71,1.53a5.07,5.07,0,0,1,.54,1.49,1.31,1.31,0,0,1-.28.78L534.56,39c-.93-1-1.58-1.49-2-1.53h-2.4l-2.37-4.86a8,8,0,0,1-1-2.69,5.91,5.91,0,0,1,.36-2l-5.94,6.29a2.41,2.41,0,0,0-.71,1.66,1.84,1.84,0,0,0,.26.91l.29.65h-2.79L516.1,33a9.85,9.85,0,0,1-1.13-3,6.15,6.15,0,0,1,.35-2l-1.08,1.14-.93-1.86-2.2,2.19,1,2-2.69,2.85a3,3,0,0,0-.86,2.14,2.37,2.37,0,0,0,.1.67c.06.24.13.48.21.71s.16.44.22.63a1.37,1.37,0,0,1,.1.44,3,3,0,0,1-.66,1.2h24.08a1.46,1.46,0,0,1,.86.37,5.92,5.92,0,0,1,.95.93,7.1,7.1,0,0,1,.81,1.16,4.16,4.16,0,0,1,.45,1.08l2.51-2.5c.22-.22.4-.41.56-.59s.28-.33.37-.45h9.14a7.61,7.61,0,0,0,5.83,2.63A1.46,1.46,0,0,0,554.84,42.5Zm-40.16-5h-.81l-.48,0L512.63,36a2.42,2.42,0,0,1-.29-1,.72.72,0,0,1,.15-.36l.34-.47.35-.4.18-.19a4.23,4.23,0,0,0,.54,1.66L515,37.49Zm11.88,0h-.81l-.48,0L524.5,36a2.42,2.42,0,0,1-.29-1,.67.67,0,0,1,.16-.36,4.62,4.62,0,0,1,.34-.47c.12-.15.24-.28.35-.4l.17-.19a4.23,4.23,0,0,0,.54,1.66l1.12,2.33Z"/><path class="cls-1" d="M562.69,34.43l-1.07-2.26a5.72,5.72,0,0,1-.7-2.09,4.74,4.74,0,0,1,.23-1.33l-2,2a3,3,0,0,0-.79,2,7.47,7.47,0,0,0,.83,2.36l.71,1.52a11.72,11.72,0,0,1,.8,1.87,3.61,3.61,0,0,1-1.27,2.14l-4.87,5a9.78,9.78,0,0,1-2,1.62,7.79,7.79,0,0,1-1.79.78,2.77,2.77,0,0,0,1,.17,5.08,5.08,0,0,0,3.81-1.54l6.66-6.88a3.88,3.88,0,0,0,1.29-2.65A7.54,7.54,0,0,0,562.69,34.43Z"/><path class="cls-1" d="M423.64,44.05c-.66-.45-1.31-.09-1.88-.35,1-1.51,1.27-1.56,3.06-.52.08,1-.7,1.61-1.23,2.31s-1.32,1.22-1.59,2.26c1.4,1.35,3-.11,4.47.42a4.08,4.08,0,0,1-3.53,1.28c-1.29-.07-1.72-.84-1.34-2.2a5.78,5.78,0,0,1,1-1.61C422.91,45.14,423.55,44.88,423.64,44.05Z"/><path class="cls-1" d="M313.54,46.9a32.75,32.75,0,0,1,3.09-3.55c.47-.54,1.21-1.1,1.75-.86,1.27.57,2.17-.83,3.38-.47.47.14.23-.94.94-1,.4.77-.05,1.39-.43,2.1-1.5,0-2.91.8-4.5.76-.95,0-1.62.9-2.32,1.56s-1,1.38-1.89,1.46Z"/><path class="cls-1" d="M528.27,46.5c-.72.31-1.06-.34-1.61-.47-1.55,2.2-3.4,3.92-6.22,3.95,0-.73.53-.62.81-.76,2.12-1.06,4.26-2,5.47-4.4a1.45,1.45,0,0,1,1.1-.91A1.69,1.69,0,0,1,528.27,46.5Z"/><path class="cls-1" d="M375.73,49.27l3-3.39c.68-.74,1.58-1.42,2.48-1.14,1.18.38,1.75-.22,2.37-1l.51.65c.73,0,.2-.93.75-1,.09.13.23.22.23.31,0,.71.06,1.88-.65,1.78-1.26-.16-2.13,1.06-3.47.65-1.15-.36-2.1.68-3,1.48-.71.64-1.19,1.58-2.18,1.82Z"/><path class="cls-1" d="M497.47,50.13c.23-1.44,1.5-2.12,2.18-3.22-.67-.69-1.47-.17-2.14-.43.87-1.47,1.14-1.54,3.2-.78-.08,2.11-2,2.88-2.87,4.44Z"/><path class="cls-1" d="M559.19,48c.22-1.26,1.48-1.79,1.94-2.92-.61-.68-1.36-.17-1.94-.47.9-1.53,1.21-1.6,3-.56-.21,1.91-1.8,2.84-2.77,4.19Z"/><path class="cls-1" d="M559.46,48.19c.18,1.16,1,.88,1.74.9a9.81,9.81,0,0,1,2.62-.09,3.57,3.57,0,0,1-3.3,1.3c-1.51,0-1.75-.51-1.33-2.35Z"/><path class="cls-1" d="M434.35,44.77c-1.25,2.76-3.64,3.36-6.17,3.72,2-1.31,4.27-2.15,6.07-3.83Z"/><path class="cls-1" d="M329.68,41.56c.05,1.47-.74,2.68-.14,3.92.32.16.58-.14,1-.22.12.89-.11,1.61-1,1.64s-.94-.87-.92-1.57A7.22,7.22,0,0,1,329.68,41.56Z"/><path class="cls-1" d="M335.81,44.27c-.14-1.08-.14-1.08-1.19-1.18.07-1.1.58-1.81,1.62-1.48s.73,1.17.51,2a3.63,3.63,0,0,1-.56,1.11C336,44.67,335.89,44.45,335.81,44.27Z"/><path class="cls-1" d="M434.25,44.66c.06-1.15,1-1.54,1.51-2.36,1.49.78,1,1.78.78,2.64-.89.52-1.39-1.14-2.19-.17ZM436,43.53s-.08.1-.07.13.11.15.13.14.19-.18.07-.26S436.06,43.53,436,43.53Z"/><path class="cls-1" d="M483.18,45.91c.38,1.1-.84,2.33.14,3.36.51.1.62-.35.91-.5a.6.6,0,0,1,.09.74c-.29.51-.38,1.29-1.21,1.17a.8.8,0,0,1-.74-.84c0-1.36-.28-2.81.85-3.9Z"/><path class="cls-1" d="M520,42.46c.29.93-.6,2.27.84,2.8a.92.92,0,0,1-.82,1c-1-1.35-1-1.8,0-3.75Z"/><path class="cls-1" d="M416.47,43v2.09c.43.33.67,0,1-.11.33.38-.33,1.17-1.33,1.47a3.25,3.25,0,0,1,.32-3.48Z"/><path class="cls-1" d="M369.69,45.41c.13.13.44-.17.69-.27.15,1.07-.4,1.29-1,1.58-1.22-1.4-.35-2.7,0-4C370.08,43.53,368.81,44.48,369.69,45.41Z"/><path class="cls-1" d="M397.64,41.09c.39.53-.15.93-.17,1.4a2.65,2.65,0,0,0,.09,1.23c.32.51.72-.34,1,.14a1.52,1.52,0,0,1-.84,1.27C396.77,45.1,396.74,43.37,397.64,41.09Z"/><path class="cls-1" d="M550.42,46c-.25.79-.5,1.33-1.18,1.1s-.52-.74-.55-1.25a8.54,8.54,0,0,1,.56-2.47C550.27,43.93,548.07,45.93,550.42,46Z"/><path class="cls-1" d="M539.9,42.72c.21,1.86.21,1.86,1,2.55a1,1,0,0,1-.92,1C538.83,45.18,539.59,43.93,539.9,42.72Z"/><path class="cls-1" d="M463.9,45.22c.52.45.26,1.72,1.46,1.25-.05.77-.35,1.45-1,1.11C463.31,47.09,464,46.06,463.9,45.22Z"/><path class="cls-1" d="M491.45,47.2c.57.87-.42,2.33,1.2,2.3-.34.81-.7.94-1.28.6A5.43,5.43,0,0,1,491.45,47.2Z"/><path class="cls-1" d="M335.81,44.27c.08.18.14.4.38.43a3.29,3.29,0,0,1-2.14,1.91Z"/><path class="cls-1" d="M483.22,45.94a.73.73,0,0,1,.15-.8c.34.38.37.64-.19.77Z"/><path class="cls-1" d="M340.59,12.82c-.55.44-1.3-.56-1.82.26,1.34,1.33,1.34,1.33,4.06-.12-.23,1.8-1.25,2.63-4.85,3.95-.35-.75.6-.84.62-1.55-.44-.44-1.43-.74-1-1.83s.74-2.17,1.93-2.55C340.56,10.65,340.83,11.12,340.59,12.82Z"/><path class="cls-1" d="M401.12,20.7c-1-1.49-1-2.93,0-5.1.48,1.14-.93,2.38.21,3.44.45.2.65-.36,1.12-.44C402.36,19.54,402.17,20.32,401.12,20.7Z"/><path class="cls-1" d="M428.29,29.34c-.11-.3,0-.7-.37-.9a10.22,10.22,0,0,1,2.37-5.06Q429.29,26.37,428.29,29.34Z"/><path class="cls-1" d="M376.46,17c.29.93-.61,2.28.85,2.78a1,1,0,0,1-.82,1c-1-.31-1-1.86,0-3.77Z"/><path class="cls-1" d="M492.22,22.38c-.13-.95.43-1.85-.19-2.68-.32-.24-.53.27-.94.12a1.6,1.6,0,0,1,.9-1.53C493.24,19.6,492.68,21,492.22,22.38Z"/><path class="cls-1" d="M408.17,21c.76,1-1,2.69,1.12,2.84,0,.68-.3,1.15-1,1s-.56-.67-.62-1.19C407.59,22.76,408.17,22.05,408.17,21Z"/><path class="cls-1" d="M460.56,18.44l.1,2c.35.39.68-.06,1,.13-.25.64-.25,1.47-1.37,1.29-.34-1.15-.57-2.29.3-3.37Z"/><path class="cls-1" d="M347.59,15.05l.12,1.78c.44.55.68-.25,1.11,0-.2.73-.33,1.5-1.48,1.26-.18-1-.57-2.07.28-3Z"/><path class="cls-1" d="M371.26,18.93a1.21,1.21,0,0,1-.86,1.21c-1-.64-.81-1.56-.69-2.67C370.26,18.13,370.37,19.08,371.26,18.93Z"/><path class="cls-1" d="M528.37,19.75c0,.71-.32,1.79,1.11,1.42-.07.86-.36,1.41-1.35,1.14a4.82,4.82,0,0,1-.16-2.52A2.58,2.58,0,0,0,528.37,19.75Z"/><path class="cls-1" d="M528.37,19.75a2.58,2.58,0,0,1-.4,0c.17-.63.17-1.34.76-1.76l0,0C528.76,18.62,529,19.29,528.37,19.75Z"/><path class="cls-1" d="M468.66,18.91a1.09,1.09,0,0,1,.22-1c.25.46.42.82-.19,1.07Z"/><path class="cls-1" d="M347.62,15.08a1.28,1.28,0,0,1,.17-1.16c.31.51.48.92-.2,1.13Z"/><path class="cls-1" d="M528.73,18c0-.08.11-.16,0-.07l-.07,0Z"/><path class="cls-1" d="M367.05,15.07l.15-.32c0,.09.12.19.1.26s-.15.14-.28,0Z"/><path class="cls-1" d="M433.76,16.5c-.51.35-.75-.56-1.36-.25-1.19,1.49-.59,3.83-1.85,5.48-.38-1.11-.81-2.14-1.07-3.22-.32-1.36-2.13-.48-2.34-1.93a2.07,2.07,0,0,1,1-1.51c1.67.33,1.81,2.09,2.58,3.71.36-1.28.55-2.23.9-3.12.25-.62.57-1.37,1.44-1.24C433.75,14.52,433.92,15.1,433.76,16.5Z"/><path class="cls-1" d="M517.8,25.22c0-1.86,1.88-2,2.61-3.41-1.46-.87-.53-2.2-.69-3.41,1.35-.64,2.14.15,2.88,1s.62.95,0,2.6c-2-.56-2.45,1.92-4,2.47,1.37.53,2.68.1,4.16-.24C520.67,26.05,519.26,26.31,517.8,25.22Zm4.49-4.15c-.08-1.07-.08-1.07-.91-.63C521.53,20.9,521.91,21,522.29,21.07Zm-1.53-1.46c-.4.12-.8.25-.62.82a.39.39,0,0,0,.61.25C521.19,20.36,521,20,520.76,19.61Z"/><path class="cls-1" d="M331.21,14.79c2.45,2,2.79,3.5,1.65,6.55-.37,1-1.21,2-.44,3.12.61.23.84-.33,1.22-.56.05.12.18.28.14.36-.28.72-.53,1.53-1.48,1.41a.88.88,0,0,1-.85-.77,4.55,4.55,0,0,1,.09-1.91,10.83,10.83,0,0,1,.54-1.37,3.93,3.93,0,0,0-.83-5.15C330.69,16,330.17,15.48,331.21,14.79Z"/><path class="cls-1" d="M400.17,31.62c.54.27,1,0,1.48-.38a2.07,2.07,0,0,1-.72,1.52c-.72.59-1.56.11-1.71-.94a5.32,5.32,0,0,1,.62-2.66c1.11-2.89,1-3.5-1.13-5.81a2.49,2.49,0,0,1-.3-.52c.29-.72.67-.83,1.26-.38,1.49,1.15,1.94,3.18,1.33,5.39C400.66,29.08,399.55,30.16,400.17,31.62Z"/><path class="cls-1" d="M360.52,16.16c.6-.94,1.71-1.28,2.38-2.25-.34-.47-1.06-.72-1-1.51.57-.54.94.78,1.52.2.16-.54.13-1-.54-.83-.4.12-.56.14-.66-.28s.05-.72.08-1.07a2.72,2.72,0,0,1,3.13,1.46,2,2,0,0,1,0,1.66c-.37.8-1,.44-1.59.36-1.08.78-1.54,2.61-3.3,2.23ZM364,12c-.23,1,.25,1.09,1,1A1,1,0,0,0,364,12Z"/><path class="cls-1" d="M452,19.71c-.33,2.07-1.7,3.71-.88,5.7,1,.66,1.47-.25,2-.88.06.24.18.46.13.61-.64,1.89-1.42,2.59-2.45,2.24s-1.3-1.61-.94-3.36A9.52,9.52,0,0,1,452,19.71Z"/><path class="cls-1" d="M469.07,18.77a6,6,0,0,1-.95,3c-.39-1.12-.83-2.16-1.09-3.24-.31-1.36-2.14-.43-2.29-2.1a1.94,1.94,0,0,1,.95-1.34c1.48.26,1.86,1.6,2.23,2.86.19.65.36.6.75.28Z"/><path class="cls-1" d="M561.83,29.7a7.1,7.1,0,0,1,.22-.79c.94-2.29.79-3.14-.84-4.92-.28-.3-.66-.5-.76-1,.18-.65.55-.83,1.16-.44a4.45,4.45,0,0,1,1.7,4.44,10.62,10.62,0,0,1-1.17,3.14Z"/><path class="cls-1" d="M372.63,24.79c-.12.95-.19,1.9-1.18,2.24-1.39-1.32-1.41-2.66-.08-5.53.49.64-.13,1.15-.14,1.71s0,1.27,0,1.86C371.89,25.58,372.22,25.17,372.63,24.79Z"/><path class="cls-1" d="M336.74,21.61c2.34,1.23,2.91,3.06,1.74,5.34C339,24.75,337.2,23.46,336.74,21.61Z"/><path class="cls-1" d="M469.07,18.77l-.4-.56a5.18,5.18,0,0,1,.52-2.47c.3-.69.63-1.62,1.57-1.26a1.32,1.32,0,0,1,.67,1.89c-.56.56-.81-.34-1.32-.21C469.33,16.78,469.35,17.85,469.07,18.77Z"/><path class="cls-1" d="M479.61,19.38c.55-2.24-1.31-3.53-2.18-5.59C480,14.83,480.74,17,479.61,19.38Z"/><path class="cls-1" d="M503,20.66c-.07,1.39-.68,2.68-.11,4,.38.16.61-.19,1-.3.16.89-.06,1.66-.93,1.73-1,.09-1-.85-1.06-1.67A6.9,6.9,0,0,1,503,20.66Z"/><path class="cls-1" d="M360.47,16.13c.65.87,1.52.67,2.38.56.7-.1,1.41-.23,2.26-.37a5,5,0,0,1-3.64,1.6c-1,.11-1.22-.33-1-1.76Z"/><path class="cls-1" d="M319.39,20.53c1.8,1.22,2.12,3,1.62,5C321,23.71,319.47,22.37,319.39,20.53Z"/><path class="cls-1" d="M423.6,16.15c.54,1-.8,2.55,1,2.74a1.25,1.25,0,0,1-.78,1.09C422.89,20,422.79,18.63,423.6,16.15Z"/><path class="cls-1" d="M545.83,25.85c-.92-1.11-.24-2.23,0-3.62.56.89.07,1.71.39,2.34.4.2.62-.22,1-.21C546.92,25.06,547,26,545.83,25.85Z"/><path class="cls-1" d="M351.26,20.74v2.08c.43.33.68,0,1-.14.34.42-.3,1.2-1.31,1.51a3.32,3.32,0,0,1,.32-3.48Z"/><path class="cls-1" d="M550.35,26.53c.39.9-.86,2.37.87,2.7a1.09,1.09,0,0,1-.82,1.14c-1-.28-1-1.86,0-3.81Z"/><path class="cls-1" d="M482.86,20.5a4.12,4.12,0,0,1,0,1.05c-.2.9-.07,1.59.88,1.76-.14.71-.42,1.05-1.07,1.1-1-1.34-.64-2.62.21-3.88Z"/><path class="cls-1" d="M345.4,19.17c.69.71-1,2.42.93,2.51.16.72-.37.88-.58,1.2C344.66,22.86,344.57,21.54,345.4,19.17Z"/><path class="cls-1" d="M539.45,24.81c.22.51-.13,1.14,0,1.34.54.58.81,0,1.12.28.13.74-.35,1.08-.87,1.56a2.19,2.19,0,0,1-.26-3.15Z"/><path class="cls-1" d="M439.69,23.09c0,.48-.14,1,.13,1.37.43.41.61-.17.92-.15.26.72-.23,1.19-1.37,1.28a5.81,5.81,0,0,1-.11-2.49Z"/><path class="cls-1" d="M432,26.11c0,.71-.32,1.78,1.11,1.4-.08.87-.36,1.43-1.36,1.15a4.89,4.89,0,0,1-.15-2.51A2.71,2.71,0,0,0,432,26.11Z"/><path class="cls-1" d="M362.19,11.49c.1.42.26.4.66.28.67-.21.7.29.54.83-.58.58-.95-.74-1.52-.2A.77.77,0,0,1,362.19,11.49Z"/><path class="cls-1" d="M432,26.11a2.71,2.71,0,0,1-.4,0c.21-.69.19-1.51,1-1.89C432.29,24.84,432.72,25.66,432,26.11Z"/><path class="cls-1" d="M439.69,23.09h-.43a3.07,3.07,0,0,1,.54-1.52C440.36,22.17,440.08,22.64,439.69,23.09Z"/><path class="cls-1" d="M539.48,24.84a1.26,1.26,0,0,1,.17-1.11c.28.44.4.83-.2,1.08Z"/><path class="cls-1" d="M351.23,20.71a1.11,1.11,0,0,1,.22-1.05c.25.47.43.83-.19,1.08Z"/><path class="cls-1" d="M482.9,20.53a.69.69,0,0,1,.19-.76c.25.36.26.63-.23.73Z"/><path class="cls-1" d="M328.93,27a.84.84,0,0,1,.14-.78c.34.38.31.62-.18.75Z"/><path class="cls-1" d="M550.39,26.56a.79.79,0,0,1,.14-.77c.34.38.3.61-.18.74Z"/><path class="cls-1" d="M364,12a1,1,0,0,1,1,1C364.25,13.06,363.77,13,364,12Z"/><path class="cls-1" d="M340.16,45.93a1.9,1.9,0,0,1,.29-1,6.41,6.41,0,0,1,.67-.93,9.43,9.43,0,0,1,2.07-1.85,4.27,4.27,0,0,1,2.33-.72,3.44,3.44,0,0,1,1.29.24,5.4,5.4,0,0,1,1.07.58,3.92,3.92,0,0,1,.72.66,1,1,0,0,1,.26.53,4.09,4.09,0,0,1-.21,1.4A3.31,3.31,0,0,1,348,46l.51,0H349c1.44,0,2.86,0,4.26-.08s2.72-.12,4-.2,2.43-.17,3.51-.26l2.85-.25,2-.2.88-.08q.12,0,.12.09a11.61,11.61,0,0,1-1.09.6c-.32.16-.68.32-1.07.49l-1.13.5-1,.41a4.89,4.89,0,0,1-.64.22,5.41,5.41,0,0,1-.87.13c-.47.06-1.06.11-1.76.17l-2.39.18c-.88.07-1.8.13-2.74.18l-2.83.13c-.94,0-1.82,0-2.64,0a29.41,29.41,0,0,1-3.2-.16,21,21,0,0,1-2.62-.46,6.53,6.53,0,0,1-1.77-.69C340.38,46.53,340.16,46.24,340.16,45.93Zm1.58-1.21a.89.89,0,0,0,.46.34,7.17,7.17,0,0,0,1,.33c.39.11.85.2,1.37.3s1.09.16,1.7.21a4.31,4.31,0,0,0,.94-.49,3.79,3.79,0,0,0,.63-.52,2.45,2.45,0,0,0-.4-.48,3.64,3.64,0,0,0-.66-.53,4.12,4.12,0,0,0-.84-.42,2.7,2.7,0,0,0-1-.18,4,4,0,0,0-.71.08,4.4,4.4,0,0,0-.86.26,5.08,5.08,0,0,0-.87.44A3.63,3.63,0,0,0,341.74,44.72Z"/><path class="cls-1" d="M460.47,40.72a2.28,2.28,0,0,1,0,.26,2.44,2.44,0,0,1,0,.28,1.75,1.75,0,0,1-.05.5,1.06,1.06,0,0,1-.22.33c-.12.15-.25.31-.39.5a3.66,3.66,0,0,0-.37.61,1.47,1.47,0,0,0-.17.66c0,.08.06.14.19.19a1.58,1.58,0,0,0,.43.11l.5.06.38,0a1.08,1.08,0,0,1,.49.22.68.68,0,0,1,.24.6,2.86,2.86,0,0,1-.07.54,4.89,4.89,0,0,1-.19.62,3.36,3.36,0,0,1-.3.6,2.06,2.06,0,0,1-.4.51,2.44,2.44,0,0,1-1.1.64,8,8,0,0,1-1.82.4c-.36,0-.81.07-1.34.1l-1.79.08-2,0-2.1,0-2,0h-3.54l-1.55,0-1.12,0a3.39,3.39,0,0,1-.54,0,5.81,5.81,0,0,1-.65-.15l-1-.29-1.11-.36-1.05-.36c-.31-.11-.67-.26-1.09-.45l.07-.09h5.94l2.92,0,3.11,0c1,0,2.06,0,3.05-.08s1.91-.06,2.78-.11,1.64-.09,2.29-.15l.64-.07.67-.09.65-.11a3.61,3.61,0,0,0,.53-.14l-.37-.13a1.79,1.79,0,0,1-.39-.2,1.18,1.18,0,0,1-.3-.33.83.83,0,0,1-.13-.49,3.67,3.67,0,0,1,.14-.87,7.22,7.22,0,0,1,.4-1c.1-.2.21-.4.34-.61s.27-.42.42-.62a5.2,5.2,0,0,1,.46-.57A4.65,4.65,0,0,1,460.47,40.72Z"/><path class="cls-1" d="M509.6,46.64a17.58,17.58,0,0,1-1.84-.09,13.61,13.61,0,0,1-1.51-.22,6.9,6.9,0,0,1-1.13-.31,2.62,2.62,0,0,1-.7-.37,3.32,3.32,0,0,1-.59-.61,2.92,2.92,0,0,1-.32-.6,2.35,2.35,0,0,1-.13-.64c0-.23,0-.47,0-.74a1.11,1.11,0,0,1,.18-.51,3.08,3.08,0,0,1,.45-.61,2.72,2.72,0,0,1,.63-.5,1.31,1.31,0,0,1,.68-.21,2.71,2.71,0,0,1,1.58.54,8.6,8.6,0,0,1,1.54,1.46,12.43,12.43,0,0,1,.77,1l.72,1.05c1.08,0,2.1,0,3.05-.09s1.79-.13,2.52-.2,1.31-.14,1.77-.2l.81-.09.07.06c-.24.15-.46.28-.65.38l-.64.33-.68.33-.6.27-.39.14a5.34,5.34,0,0,1-.68.12l-1.3.15c-.52,0-1.08.08-1.71.11S510.23,46.64,509.6,46.64Zm-1.46-1.47a3.17,3.17,0,0,0-.2-.29l-.32-.4c-.11-.14-.24-.28-.37-.43s-.26-.29-.39-.42a5.14,5.14,0,0,0-.42-.38q-.22-.16-.45-.3a2.73,2.73,0,0,0-.47-.21,1.31,1.31,0,0,0-.41-.07,1,1,0,0,0-.77.3,2.71,2.71,0,0,0-.48.66,2.33,2.33,0,0,0,.31.32,4.72,4.72,0,0,0,1.74.85A12.8,12.8,0,0,0,508.14,45.17Z"/><path class="cls-1" d="M493.11,22.82c.47-.5.92-.94,1.36-1.33s.84-.71,1.22-1a7.86,7.86,0,0,1,1-.63,2.58,2.58,0,0,1,.75-.26,2.77,2.77,0,0,1,.81,0,2.1,2.1,0,0,1,.63.18,2.26,2.26,0,0,1,.52.35c.16.15.33.31.51.5a1.18,1.18,0,0,1,.21.5,3.07,3.07,0,0,1,.09.77,3.85,3.85,0,0,1-.11.83,1.49,1.49,0,0,1-.35.66,2.72,2.72,0,0,1-1.47.8,8.35,8.35,0,0,1-2.07.14c-.37,0-.77-.07-1.2-.13L493.8,24c-.76.81-1.46,1.6-2.09,2.36s-1.18,1.44-1.65,2-.84,1.09-1.12,1.48-.45.6-.51.67l-.1,0a6.74,6.74,0,0,1,.22-.77c.07-.22.14-.46.23-.71s.17-.51.26-.75.17-.45.25-.64a2.82,2.82,0,0,1,.17-.39c.05-.09.18-.29.4-.6s.5-.67.83-1.08.71-.88,1.13-1.37S492.67,23.29,493.11,22.82Zm2-.06.34,0,.48,0a4.93,4.93,0,0,0,.55,0h.56l.54-.05a4.11,4.11,0,0,0,.53-.13,2.78,2.78,0,0,0,.46-.21,1.15,1.15,0,0,0,.34-.25,1.17,1.17,0,0,0,.35-.8,3.07,3.07,0,0,0-.1-.82,1.55,1.55,0,0,0-.43,0,4.73,4.73,0,0,0-1.79.71A13.57,13.57,0,0,0,495.12,22.76Z"/><path class="cls-1" d="M448.52,27.74a3.37,3.37,0,0,1,1.07.13,3,3,0,0,1,.66.35c.49.31.72.61.69.91a2.38,2.38,0,0,0-1.11-.4,4,4,0,0,0-1.47.25,5.1,5.1,0,0,0-1.45.91,1.14,1.14,0,0,0,.17.65,3.43,3.43,0,0,0,.83,1.1,2.08,2.08,0,0,0,1.16.54,2.75,2.75,0,0,0,.68-.26,7,7,0,0,0,.63-.38l.7-.43c.25-.14.55-.29.88-.44-.08.32-.15.57-.2.76s-.16.44-.3.75a6.53,6.53,0,0,1-2.55,1.56,8.79,8.79,0,0,1-2.64.44,5.66,5.66,0,0,1-1-.07,4,4,0,0,1-1-.31,9.3,9.3,0,0,1-.19,1.88,3.63,3.63,0,0,1-.73,1.6H443a6,6,0,0,0,.46-1,4.33,4.33,0,0,0,.25-1.58,5.2,5.2,0,0,0-.33-1.8,9.65,9.65,0,0,0-.64-1.4,5,5,0,0,1,.4-1.77,4,4,0,0,1,.39.73c.13.32.24.62.32.89a2.09,2.09,0,0,0,1.94,1.36,5.55,5.55,0,0,0,.65,0,1.27,1.27,0,0,0,.37-.07,1.91,1.91,0,0,1-.55-.81,2.73,2.73,0,0,1-.11-.83,3.12,3.12,0,0,1,.24-1.19,4,4,0,0,1,.59-1,3.63,3.63,0,0,1,.77-.75A1.4,1.4,0,0,1,448.52,27.74Z"/><path class="cls-1" d="M552.33,18.12a1,1,0,0,1,.9.62,3.18,3.18,0,0,1,.3,1.39,9.08,9.08,0,0,1-.08,1.17,3.37,3.37,0,0,1-.22.87,2.56,2.56,0,0,1,.64.46,1.07,1.07,0,0,1,.32.5,5,5,0,0,1-.2.69,5.13,5.13,0,0,1-.41.81,3.66,3.66,0,0,0-.55-.44l-.51-.33a5.31,5.31,0,0,1-.55.87,9.76,9.76,0,0,1-.82.93c-.31.31-.64.61-1,.89a9.77,9.77,0,0,1-1,.74,6.17,6.17,0,0,1-.57.32l-.72.36-.66.29a1.25,1.25,0,0,1-.46.13l-.14-.22,2-1.56a20.33,20.33,0,0,0,1.67-1.5,8,8,0,0,0,1.36-1.76,3.54,3.54,0,0,0-.56-.22l-.69-.23a1.56,1.56,0,0,1-.66-.35.89.89,0,0,1-.22-.67,3.24,3.24,0,0,1,.32-1.38,5.38,5.38,0,0,1,.77-1.22,4.27,4.27,0,0,1,.93-.85A1.56,1.56,0,0,1,552.33,18.12Zm-1.91,2.69a.35.35,0,0,0,.22.29,1.92,1.92,0,0,0,.48.17l.58.17a2.13,2.13,0,0,1,.58.3,2.58,2.58,0,0,0,.06-.37c0-.11,0-.27,0-.48a1.45,1.45,0,0,0-.2-.75c-.14-.21-.27-.32-.41-.32a1.16,1.16,0,0,0-.93.38A1.43,1.43,0,0,0,550.42,20.81Z"/><path class="cls-1" d="M393.19,18.06a.79.79,0,0,1,.7.51,2.36,2.36,0,0,1,.27,1.11,7.82,7.82,0,0,1-.06.95,2.22,2.22,0,0,1-.18.7,1.71,1.71,0,0,1,.52.38,1.23,1.23,0,0,1,.26.39,3.06,3.06,0,0,1-.25.79,4.44,4.44,0,0,1-.27.49,3.24,3.24,0,0,0-.42-.37,4.92,4.92,0,0,0-.41-.31c-.18.3-.41.66-.69,1.07a9.91,9.91,0,0,1-1,1.19,5.67,5.67,0,0,1-1.23,1,2.82,2.82,0,0,1-1.43.39,1.36,1.36,0,0,1-1-.53,2.15,2.15,0,0,1-.46-1.48,6,6,0,0,1,.12-1.25,4.11,4.11,0,0,0,.11-.81,1.57,1.57,0,0,0,0-.32.14.14,0,0,0-.15-.14,1.25,1.25,0,0,0-.6.23,4.38,4.38,0,0,0-.59.49c-.19.19-.38.4-.56.61s-.35.41-.52.59l-.2-.2a16.76,16.76,0,0,1,1.06-1.63,8.13,8.13,0,0,1,.95-1.06,1.47,1.47,0,0,1,.93-.47.47.47,0,0,1,.43.22,1,1,0,0,1,.13.51,2.31,2.31,0,0,1,0,.4c0,.18-.06.37-.09.59l-.08.64a4,4,0,0,0,0,.57,1.33,1.33,0,0,0,.39,1,1.27,1.27,0,0,0,.91.39,1.87,1.87,0,0,0,.77-.2,4.06,4.06,0,0,0,.82-.55,6.29,6.29,0,0,0,.78-.77,5.08,5.08,0,0,0,.6-.85,2,2,0,0,0-.3-.19A2,2,0,0,0,392,22a2.92,2.92,0,0,1-.73-.3.62.62,0,0,1-.3-.57,2.64,2.64,0,0,1,.26-1.14,4.42,4.42,0,0,1,.62-1,3.55,3.55,0,0,1,.75-.67A1.25,1.25,0,0,1,393.19,18.06Zm-1.54,2.17a.28.28,0,0,0,.18.24l.39.15.48.15a1.4,1.4,0,0,1,.47.24,1.53,1.53,0,0,0,.08-.31,1.79,1.79,0,0,0,0-.4,2,2,0,0,0-.18-.6c-.1-.18-.21-.27-.36-.27a.91.91,0,0,0-.76.31A1.87,1.87,0,0,0,391.65,20.23Z"/><path class="cls-1" d="M533.89,21.44a3.7,3.7,0,0,1,.34-1,.58.58,0,0,1,.25-.27A2.89,2.89,0,0,1,535,20a3.53,3.53,0,0,1,.54-.13,3,3,0,0,1,.49,0c.18,0,.45,0,.82,0a10,10,0,0,0,1.08.05h1.43a12,12,0,0,0,1.42-.09l-.34,1.1c-.29.09-.58.18-.88.29s-.59.23-.89.37a6.2,6.2,0,0,0-1.22.71,7.17,7.17,0,0,0-1.14,1.07,6.67,6.67,0,0,0-.88,1.33,4.66,4.66,0,0,0-.45,1.52c0,.2,0,.45,0,.74s0,.5,0,.62h-.57a2.86,2.86,0,0,1-.07-.57c0-.18,0-.31,0-.38a7.33,7.33,0,0,1,.18-1.72,4.59,4.59,0,0,1,.5-1.32,4.92,4.92,0,0,1,.78-1,8.65,8.65,0,0,1,1-.83l.27-.18.31-.2.3-.19.22-.13-1.24,0h-.24l-.3,0-.61.15c-.16,0-.32.08-.46.1l-.41.1-.49.14Z"/><path class="cls-1" d="M478,46.63h-.11a1.1,1.1,0,0,0,.92-.31,1.17,1.17,0,0,1-1.06.2,9.32,9.32,0,0,0-1.32-.26c0-.13-.86-.53-.88-.52-.19-.06-.38-.14-.57-.21l.39.15-.39-.15a9.06,9.06,0,0,1-2.33-1.46,1.25,1.25,0,0,1-.54-.05.66.66,0,0,1-.26.3l0,0c.12.31.27.73.43,1.23.09.31.14.56.2.87a3.91,3.91,0,0,1,0,1.46,2.44,2.44,0,0,1-.06.26,2.45,2.45,0,0,0,.08-.29,2.93,2.93,0,0,1-.24,1,1.1,1.1,0,0,0,.16-.18l-.09.16a2,2,0,0,1-.37.63s-.1.07-.21.16l.06,0a5.75,5.75,0,0,1-1.36.93.39.39,0,0,1-.14,0,3.61,3.61,0,0,1-.44.22s-.39.13-.18,0a10.86,10.86,0,0,1-1,.41,36.7,36.7,0,0,1-4,.83h0c-.47.09-.88.22-1.47.29a6.63,6.63,0,0,0-1.13.34c-.46.12-.64.19-1.08.33.13,0-.41.16-.18.12s.31-.08.58-.11h0c1.19-.24,2.42-.38,3.69-.54.83-.15,1.76-.26,2.63-.46a11.78,11.78,0,0,0,2.67-.9l.46-.19a5.11,5.11,0,0,0,1.89-1.54l0,0a3.65,3.65,0,0,0,.52-1s0-.06,0-.08a2.84,2.84,0,0,0,.1-1.13,9.6,9.6,0,0,0-.2-1.15l0-.11-.13-.6v-.2a.76.76,0,0,0,0-.16h0s0,0,0-.08,0,0,.09,0l.05.07c.13.18.15.14.11.07l.58.36.38.19a.8.8,0,0,1,.2.14c.28.14.18.12.47.27a7.33,7.33,0,0,0,.86.34l-.05,0c.35.15.55.3.91.42a4,4,0,0,0,1.78.33,1.9,1.9,0,0,0,1.41-1s-.1.18-.16.17a3.51,3.51,0,0,0,.58-1.42c0-.08.07-.19.08-.23s0-.09,0-.2h0c0-.17.07-.24.06-.4a.2.2,0,0,1,0-.12s0-.17,0-.17h0a.38.38,0,0,1,0-.1c0-.06-.16-.65-.19-.71v0c0-.09,0-.12-.05-.07v-.11h0l0-.11s0,0,0,0a1.33,1.33,0,0,1-.05-.19,3.49,3.49,0,0,1,0,.56,2.36,2.36,0,0,1,0-.28,2.24,2.24,0,0,0,0-.44s-.06-.05-.06-.13,0-.08,0-.14a1.29,1.29,0,0,1,.06.21s0-.18,0-.24,0-.17-.08-.25,0-.07,0-.13,0-.09,0-.07.05.24,0,.17a.49.49,0,0,0-.06-.2s0,0,0,0-.07-.14-.06-.18,0,0,0,.06.29.45.24.34-.29-.48-.27-.42-.05,0,0,0l0,.05c0,.08,0,.12,0,.1s.26.33.2.22v0a.53.53,0,0,1-.08-.22s0,0-.07-.1v0c0-.05-.05-.13-.07-.09.12.31-.27-.15-.17.15,0-.14.06,0,.1.16a.34.34,0,0,0,0,.17c0,.08,0,.05,0,.06s0,.14,0,.13,0,.1,0,.18,0,0,0,0l.06.32s0,.14-.09.07.07.06,0-.1c0,.07,0-.14-.09-.17a.72.72,0,0,0,0,.24h0a1,1,0,0,1,0,.31s0,0,0,0v.11s0,0,0,0a.23.23,0,0,1,0,.14s.12.55.1.54,0,.09,0,.17a3.93,3.93,0,0,0-.09-.63,5.8,5.8,0,0,1,.08.91c0,.06,0,.13,0,.11s0,0-.05,0,0,0,0,0l0,.06c0,.15-.05.36,0,.52a1.13,1.13,0,0,1-.05-.2l0,0s0-.09,0-.09a.8.8,0,0,0,0,.27l0,0h0l0,0h0c-.06.05,0,.37-.1.53s0,0,0,.07-.14.27-.23.43,0,.06.06,0l-.08.12c0-.13-.19.19-.17,0a.67.67,0,0,0-.13.15s0,0,0,.1l-.19.12s0,0,0,0-.15.05-.27.1-.26.06-.27.09S478,46.65,478,46.63Z"/><path class="cls-1" d="M542.13,19.92l0,0-.36-.43c.18.37.38.78.84.89-.12.1.06.43.1.43a1.56,1.56,0,0,1,.2.16l-.13-.12.13.12a3.22,3.22,0,0,1,.53.64l.2.37.09.19a2.79,2.79,0,0,0,.18.34,1,1,0,0,0,1.08.51.9.9,0,0,0,.55-.4c.13-.19.21-.45.27-.54l.06-.12-.08.13c0-.19.07-.36.11-.52a.3.3,0,0,0-.12.08l.05-.08c0-.09.06-.25.07-.34s.06,0,.1-.08h0l.35-.62s0,0,.06,0l.08-.18s.13-.12.11,0c0-.14.16-.25.2-.39.31-.42.67-.85,1-1.26h0a1.57,1.57,0,0,1,.42-.44c.1-.14.29-.31.29-.41.17-.12.22-.19.39-.32-.08,0,.14-.14,0-.11s-.14.07-.27.09h0a6.43,6.43,0,0,0-1.44.92c-.24.27-.55.52-.78.81a6,6,0,0,0-.63,1c0,.08-.1.11-.15.16a8.25,8.25,0,0,0-.48.89h0c-.07.16-.17.27-.23.43,0,0,0,0,0,0a.39.39,0,0,0-.07.16.62.62,0,0,0,0,.17c0,.12-.09.28-.12.24l0,0a.29.29,0,0,1-.17-.24.43.43,0,0,0-.1-.28,1.15,1.15,0,0,0-.19-.14c0-.06-.06-.05-.08-.11s-.09-.26-.08-.17c-.09-.11-.15-.23-.23-.33l-.13-.14a.07.07,0,0,1,0-.1c-.1-.09,0-.07-.12-.19s-.26-.24-.28-.28l0,0c-.09-.13-.08-.25-.18-.37a8.22,8.22,0,0,0-.87-1s.07.06,0,.09c-.16-.18-.29-.37-.47-.55a.31.31,0,0,1-.05-.1c0-.06,0,0-.09-.06l0,0c-.08,0-.06-.11-.13-.15l-.06,0s-.07-.06,0-.08h0s0,0,0,0l-.4-.15h0s-.07,0-.06,0l0,0h0l0,0s0,0,0,0a.31.31,0,0,1-.1-.05A1.25,1.25,0,0,1,541,18a1.06,1.06,0,0,1-.11-.09,1,1,0,0,0-.14-.19s-.06,0-.07,0,0,0-.05-.06a.33.33,0,0,1,.1.06s-.06-.07-.08-.09a.81.81,0,0,0-.12-.08c.05,0,0,0,0-.06s0,0,0,0,.09.09,0,.09,0-.05-.08-.07,0,0,0,0-.08,0-.08-.06l0,0s.31.06.25,0-.32-.08-.29-.06,0,0,0,0h.05s0,.06,0,.06.27,0,.21,0v0s-.1,0-.1-.06a.12.12,0,0,1-.08,0h0s-.07,0-.07,0-.24.08-.12.18c0-.07.05,0,.12,0s0,.05,0,.08,0,0,.05,0,0,.05,0,.06,0,.05.07.06,0,0,0,0l.13.11s0,.08,0,.08.06,0,0-.06-.07,0-.11,0,0,.06.09.09h0s.12.06.13.1,0,0,0,0l0,0s0,0,0,0a.08.08,0,0,1,.05.05s.3.13.28.13,0,.05.06.07a2,2,0,0,0-.3-.17s.42.22.41.26.06,0,.07,0,0,0,0,.05,0,0,0,0v0c.08,0,.13.13.22.16a.42.42,0,0,1-.14,0v0s0,0-.06,0a.23.23,0,0,0,.12.09v0h0s0,0,0,0h0c0,.05.17.11.21.19s0,0,0,0l.14.2s0,0,0,0l.05.05c-.1,0,0,.13-.07.11s0,.06.07.08,0,0,.08,0l0,.1s0,0-.05,0,0,.08.08.14.11.1.14.09S542.16,19.91,542.13,19.92Z"/><path class="cls-1" d="M442,15.83l0,0-.12-.07c.46.31,1,.72,1.38,1a.87.87,0,0,0,.25.2s0-.09-.15-.2l-.07-.08a4.2,4.2,0,0,0-.6-.57l.14.12-.22-.18,0,0a3.27,3.27,0,0,0-.88-.52c-.24-.08-.19,0,.09.17A.5.5,0,0,1,442,15.83Z"/><path class="cls-1" d="M442.46,16.23c-.13-.12-.29-.22-.43-.33l0,0v0h0a3.53,3.53,0,0,1,.63.36l.08.05a.12.12,0,0,0,.08,0s0-.05-.13-.12l-.11-.09a3.32,3.32,0,0,0-1-.53s0,0,0,0,.09.08.24.16a1.44,1.44,0,0,0,.31.15l.07.05-.06,0a1.62,1.62,0,0,1,.29.15l.14.1,0-.09-.08-.05h0l-.47-.25-.22-.11c-.07,0-.07,0,0,0l.09.06,0,0a6.49,6.49,0,0,1,.61.41l.09.05Z"/><path class="cls-1" d="M441.73,15.79l-.11-.07h0l.07,0S441.73,15.8,441.73,15.79Z"/><path class="cls-1" d="M441.59,15.71h0Z"/><path class="cls-1" d="M446.46,20.62A11,11,0,0,1,447.65,19l0,0,0,0a13.31,13.31,0,0,0-1.19,1.63.1.1,0,0,0,0,0Z"/><path class="cls-1" d="M450.05,17s0,0,0,0l.05,0s0,0,0,0Z"/><path class="cls-1" d="M450.12,17.2l-.18.19,0,0s0,0,0,0c-.47.47-1,1-1.43,1.51v0a1.49,1.49,0,0,1-.15.19l-.05,0c-.21.23-.4.46-.58.7l-.11.17c-.13.21-.25.43-.38.66a0,0,0,0,1,0,0,.59.59,0,0,1,0,.12l-.06.1c.06-.11.1-.18.16-.27l0,0,.17-.28a16.92,16.92,0,0,1,1.83-2.28l0,0s0,0,0,0c-.4.46-.71.88-1.11,1.41-.24.32-.45.64-.65,1a5.05,5.05,0,0,0-.28.51,6.75,6.75,0,0,0-.47,1l-.53,1.27-.76-1.48-.4-.76-.24-.42A15.74,15.74,0,0,0,443,17.83a3.31,3.31,0,0,1-.54-.67s.11,0,.26.12l-.08-.08a.68.68,0,0,0-.12-.12,2.06,2.06,0,0,1-.26-.27l-.08-.09c-.09-.12-.28-.3-.37-.4h0l0,0a.83.83,0,0,1-.14-.14h0a.38.38,0,0,1,.19,0h0c-.05-.06-.06-.09,0-.08s0,0,0,0l.05,0h0l0-.05-.06,0-.2-.12-.13-.08c-.07-.08-.07-.08,0-.09h0l-.1-.06,0,0v0h0l.05,0h0l.08,0,.09.07h0l0,0v0l.05,0-.05,0,.17.09.1.06h0l.24.17,0,0,.06,0,.06.05h0l.06,0h0l.24.15.09.07,0,0s0,0,0,0a8.92,8.92,0,0,0-.81-.59l-.11-.07.1,0a5.35,5.35,0,0,1,1.72,1.37,4.23,4.23,0,0,1,.34.4v0l.08.1v0l-.05-.09,0-.06a10.87,10.87,0,0,0-.79-.87,6,6,0,0,0-.46-.42l-.06-.06s.06,0,.1.06a5.7,5.7,0,0,1,1.4,1.44,1.88,1.88,0,0,1,.19.26h0l0-.07.11.18v0a10.61,10.61,0,0,1,.71,1.09l0,0c.1.14.2.28.3.45l-.09-.18.23.38a5.84,5.84,0,0,1,.28.56,1.1,1.1,0,0,1,.13.37,3.61,3.61,0,0,0,.2.36c0-.14.11-.26.16-.38l0,0v0q-.09.19-.18.45s-.07-.11-.11-.16.07.19.11.21.11-.24.17-.37l0-.08.06-.09a12,12,0,0,1,1.12-1.62c.36-.45.71-.83,1.12-1.26.58-.6,1.14-1.11,1.77-1.65a.68.68,0,0,1,.19-.13s0,.06-.11.13a22.76,22.76,0,0,0-3.54,3.73c-.1.15-.21.3-.3.46h0s0,0,0,0l.35-.51a9.79,9.79,0,0,1,1.14-1.41c.3-.32.6-.59.91-.87s.75-.71,1.15-1.05c0,0,0,0,0,0l0,0-.79.76s.08-.05.09,0,0,.05-.06.1l.19-.17s.07-.06.08-.05l-.06.06-.76.7c-.29.29-.57.59-.83.89a.37.37,0,0,1,.1-.07h0l.13-.14A23.15,23.15,0,0,1,451,16.13l0,0,0,0-.83.71h0s0,0,0,0l-.05,0h0a17,17,0,0,0-1.43,1.38c.42-.44.87-.85,1.33-1.25l.15-.14a.05.05,0,0,1,0,0s0,0,0,0l0,0c.09-.08.17-.13.18-.12s-.06.08-.15.16l-.71.65-.08.07-.07.08c.37-.34.75-.66,1.13-1l.07-.05-.05.05c-.64.59-1.29,1.19-1.87,1.82-.18.22-.34.44-.51.67l.07-.08A22.1,22.1,0,0,1,450,17.25l0,0,0,0c-.33.31-.61.61-.92.92s-.47.53-.68.79c.45-.52.91-1,1.41-1.48l.07-.05v0l.19-.19,0,0S450.14,17.19,450.12,17.2Zm-6.7,0v0l0,.05,0,.08Zm-.89-.69h0l0,0Zm3.69,4.76-.21-.46.06.09ZM443,16.64a2,2,0,0,1,.16.19l.15.14a4.49,4.49,0,0,1,.37.4s0,0,0,0l0,0c-.12-.14-.24-.28-.38-.42Zm-1.18-.78h0Zm-.06,0h0Zm.22.14,0,0Zm-.07.33h0Z"/><path class="cls-1" d="M410.23,18.12l0,0-.12-.07c.46.31,1,.72,1.38,1a.87.87,0,0,0,.25.2s0-.09-.16-.2l-.06-.08a4.2,4.2,0,0,0-.6-.57l.14.12-.23-.18,0,0a3,3,0,0,0-.88-.52c-.23-.08-.18,0,.1.17Z"/><path class="cls-1" d="M410.65,18.52c-.14-.12-.29-.22-.44-.33l0,0v0h0a3.53,3.53,0,0,1,.63.36l.07.06.08,0s0,0-.12-.12l-.11-.09a3.46,3.46,0,0,0-1-.53s0,0,0,0,.08.09.24.17a1.77,1.77,0,0,0,.31.14l.07.05-.06,0a1.62,1.62,0,0,1,.29.15l.14.1,0-.09-.08-.05h0l-.47-.25-.23-.11q-.09,0,0,0l.09.06,0,0a6.49,6.49,0,0,1,.61.41s.06.05.08.05S410.68,18.55,410.65,18.52Z"/><path class="cls-1" d="M409.92,18.08,409.8,18h0l.06,0C409.89,18.08,409.92,18.09,409.92,18.08Z"/><path class="cls-1" d="M409.78,18l0,0h0Z"/><path class="cls-1" d="M414.65,22.91a11,11,0,0,1,1.19-1.63l0,0a.07.07,0,0,0,0,0,11.5,11.5,0,0,0-1.19,1.63.1.1,0,0,0,0,0Z"/><path class="cls-1" d="M418.23,19.26s0,0,0,0l0,0h0Z"/><path class="cls-1" d="M418.31,19.49l-.19.19,0,0s0,0,0,0c-.47.48-1,1-1.42,1.51a0,0,0,0,1,0,0,1.26,1.26,0,0,1-.14.19l-.06.06q-.3.33-.57.69l-.11.17c-.14.22-.26.43-.38.66l0,0s0,.06-.05.12l0,.1a2,2,0,0,1,.16-.26l0,0,.18-.28a16.18,16.18,0,0,1,1.83-2.28l0,0s0,0,0,0c-.41.46-.72.88-1.12,1.41-.24.32-.44.64-.65,1-.09.17-.19.33-.28.51a8,8,0,0,0-.46,1l-.53,1.27c-.23-.44-.49-.94-.76-1.48l-.41-.76-.23-.42a15.74,15.74,0,0,0-1.91-2.78,3,3,0,0,1-.54-.67s.11,0,.26.12l-.08-.08-.12-.11a2,2,0,0,1-.26-.28l-.08-.09c-.09-.12-.28-.3-.37-.4h0l0,0a.69.69,0,0,1-.15-.14h0a.35.35,0,0,1,.18,0h.05c-.05-.06-.07-.09,0-.08s0,0,0,0l.06,0h0l-.05-.05-.06,0-.19-.12-.13-.08c-.07-.08-.07-.08,0-.09h0l-.1-.06,0,0v0h0l.05,0h0l.08,0,.09.07h0l0,0h0l.05,0-.06,0,.18.09.1.06h0l.24.16,0,0,.06,0,.06,0h0l.06,0h0l.23.15a.39.39,0,0,1,.1.08l0,0s0,0,0,0a6.34,6.34,0,0,0-.8-.58.49.49,0,0,1-.11-.08l.1,0a5.6,5.6,0,0,1,1.72,1.37c.11.13.24.26.34.4v0l.08.11h0l0-.09-.05-.06a9.15,9.15,0,0,0-.78-.87c-.17-.15-.29-.29-.46-.42l-.06-.06a.29.29,0,0,1,.1.06A5.48,5.48,0,0,1,412.36,20a2,2,0,0,1,.2.26h0l0-.07.11.19v0a9,9,0,0,1,.7,1.09l0,0c.09.14.2.28.3.45l-.1-.18c.09.13.16.25.24.38s.2.38.28.56a1.1,1.1,0,0,1,.13.37,3.61,3.61,0,0,0,.2.36c.05-.13.1-.26.16-.38l0,0s0,0,0,0-.12.28-.18.45c0,0-.07-.11-.1-.16a1,1,0,0,0,.1.21c.05-.12.11-.24.18-.37l0-.08.05-.09a13.27,13.27,0,0,1,1.12-1.61c.37-.46.72-.84,1.13-1.27.58-.59,1.14-1.11,1.77-1.65a.68.68,0,0,1,.19-.13s0,.06-.12.13a23.13,23.13,0,0,0-3.53,3.73c-.11.15-.21.3-.31.46h0s0,0,0,.05a5.91,5.91,0,0,1,.35-.52,10.27,10.27,0,0,1,1.13-1.41c.31-.32.61-.59.92-.86s.75-.71,1.14-1.06l0,0s0,0,0,0l-.8.75c.06,0,.09,0,.1,0s0,.05-.06.1l.19-.17s.07-.06.07,0,0,0-.06.06l-.75.7c-.29.29-.57.59-.84.89l.11-.07h0l.13-.14a22.09,22.09,0,0,1,2.57-2.43l0,0,0,0-.83.71h0l0,0s0,0,0,0a18.55,18.55,0,0,0-1.42,1.38c.42-.44.87-.85,1.33-1.25l.14-.14,0,0v0l0,0c.09-.08.16-.13.18-.12a.57.57,0,0,1-.15.16l-.72.65-.07.07-.07.08c.37-.34.75-.66,1.13-1l.07,0-.05.06c-.65.58-1.29,1.18-1.87,1.81-.18.22-.35.44-.51.67l.07-.08a22.1,22.1,0,0,1,1.82-1.93l0,0s0,0,0,0c-.33.31-.61.61-.92.93s-.48.52-.69.78c.46-.52.91-1,1.42-1.48l.06-.05h0l.2-.2,0,0S418.32,19.48,418.31,19.49Zm-6.7,0h0l0,0,0,.08Zm-.89-.69h0l0,0Zm3.69,4.76c-.07-.15-.15-.31-.21-.46l.05.09Zm-3.27-4.63c.06.08.12.13.16.19l.15.14c.13.13.26.27.37.4s0,0,0,0l0,0c-.12-.14-.24-.28-.38-.42ZM410,18.15h0Zm-.07,0h0Zm.23.14,0,0Zm-.07.33.12,0-.13,0Z"/><path class="cls-1" d="M380.61,16h0s.06,0,.05,0a.78.78,0,0,1-.34-.11,1,1,0,0,1-.39-.39l-.11-.18,0-.08L379.7,15a.79.79,0,0,1,0-.35.8.8,0,0,1,.28-.39,1.68,1.68,0,0,1,.45-.19l.15-.05s-.12-.08-.54.1a1.28,1.28,0,0,0-.26.16.79.79,0,0,0-.29.48,1.18,1.18,0,0,0,0,.37,1.26,1.26,0,0,0,.17.48,1.65,1.65,0,0,1-.09-.21,1.46,1.46,0,0,0,.19.32l0-.05a1.16,1.16,0,0,0,.61.45c.23.05.12,0-.08-.11s-.27-.3-.15-.25a3.85,3.85,0,0,0,.48.16Z"/><path class="cls-1" d="M380.15,15.57a.8.8,0,0,0,.5.29h0l0,0h0c-.12.09-.56-.08-.71-.35l-.06-.08-.06-.07s0,.06,0,.19a.76.76,0,0,0,.11.14.82.82,0,0,0,.59.31s0-.05-.1-.11l-.16-.13-.07-.08s0,0,0-.06l.14-.13c.14-.19.11-.08,0,0-.23.09.21.23.26.3s-.12.1-.14.11l-.09,0h.08a.63.63,0,0,1-.38-.13l-.15-.15a.69.69,0,0,0,0,.13l.09.07v0a.7.7,0,0,0,.54.14s0-.06-.08-.12,0-.08.06,0l.07,0h0c.18.12-.31.07-.46-.14l-.09-.09S380.13,15.53,380.15,15.57Z"/><path class="cls-1" d="M380.68,15.69a.64.64,0,0,1-.16-.11l0,0,.12.07C380.68,15.66,380.69,15.68,380.68,15.69Z"/><path class="cls-1" d="M380.49,15.55l-.05,0,0,0h0Z"/><path class="cls-1" d="M383.63,16l.09-.11.18-.19a3.45,3.45,0,0,1,.79-.64l0,0h0a3.59,3.59,0,0,0-.8.65l-.18.19-.08.1v0S383.63,16,383.63,16Z"/><path class="cls-1" d="M387.61,15.76s0,0,0,0a.43.43,0,0,1,0,.05s0,0,0,0S387.61,15.78,387.61,15.76Z"/><path class="cls-1" d="M387.22,15.79a.87.87,0,0,0-.15-.13l0,0h0a1.51,1.51,0,0,0-1.46-.08l0,0a.39.39,0,0,1-.15.09l-.05,0a2.31,2.31,0,0,0-.56.4.91.91,0,0,1-.1.13,5.63,5.63,0,0,0-.5.83h0a.7.7,0,0,1-.08.2l-.08.14.23-.38,0-.05a3.3,3.3,0,0,1,.26-.39l.15-.21.1-.12L385,16a1.75,1.75,0,0,1,.41-.33,1.59,1.59,0,0,1,1-.24h0s0,0,0,0a1.61,1.61,0,0,0-1.1.44,2.76,2.76,0,0,0-.29.3l-.13.17a3.58,3.58,0,0,0-.24.34,16.3,16.3,0,0,0-1,1.92c-.26.51-.53,1.07-.87,1.78-.16-.73-.35-1.61-.52-2.42a10,10,0,0,0-.4-1.47,2.88,2.88,0,0,0-.21-.45l-.15-.22a1.27,1.27,0,0,0-.68-.49h-.08l-.1-.33,0,0c-.12-.17-.13-.11-.08-.11s-.11-.07,0,.06l-.07-.06h0c.07,0-.14,0,.38,0,0,0,0,0,0,0a.2.2,0,0,1,0,.11v.07a.19.19,0,0,0,.08.24l0,0h0a.12.12,0,0,0,.08,0l0,0a.41.41,0,0,1-.15.14l-.05,0c.05,0,.05,0,0,.08s0,0,0,0h0c.07,0,.06,0,.05-.09a.28.28,0,0,0-.09-.08c-.16,0-.19,0-.19,0v0s-.08,0,0-.07l.11-.13,0,0-.05,0h0s0,0,0,0,0,0,0,0l0,0c.1,0-.19.2-.15.21l0,0,.18.09,0,0h0l0,0-.05,0c.1.08.07.06.08.09s-.05,0-.05,0h0a.56.56,0,0,1-.28-.06l0,0-.08,0-.06-.05,0,0h0l-.06,0h0a1.13,1.13,0,0,1-.19-.23l0-.1v0s0,0,0,0a.91.91,0,0,0,.29.43c.15.14.43.2.46.16s0,0,0,0,0,0,0,.06-.32,0-.52-.13a1.15,1.15,0,0,1-.38-.52.7.7,0,0,1,.23-.92,1.48,1.48,0,0,1,.89-.19,2.12,2.12,0,0,1,.69.15l0,0,.16.07h0l-.1-.06-.09,0a2.59,2.59,0,0,0-.81-.13,1.62,1.62,0,0,0-.48.07.88.88,0,0,0-.58.52,1.44,1.44,0,0,0,.13.8c0,.06.06.11,0,.1a.28.28,0,0,1-.09-.11,2.67,2.67,0,0,1-.12-.24,1.13,1.13,0,0,1-.08-.43.78.78,0,0,1,.43-.62,1.37,1.37,0,0,1,.55-.18,2.12,2.12,0,0,1,1.31.26,1.68,1.68,0,0,1,.34.21h0l-.06-.06a1.45,1.45,0,0,1,.18.16v0a2.63,2.63,0,0,1,.83,1l0,0,.16.22v-.05s0,0,0,.07a1.07,1.07,0,0,1,0,.41l.05.23.21-.44s0,0,0,0a.08.08,0,0,1,0,0l-.24.55v0l.22-.38,0-.06a.09.09,0,0,1,0-.06,2.37,2.37,0,0,1,.26-.34,3.84,3.84,0,0,1,.72-.65,2.81,2.81,0,0,1,1.92-.46,2.16,2.16,0,0,1,1.32.65,1.05,1.05,0,0,1,.24.42.68.68,0,0,1-.43.7,1.16,1.16,0,0,1-.54.1,1,1,0,0,1-.52-.21.91.91,0,0,1-.29-.41c-.05-.13-.05-.22,0-.23s.05,0,.09.16a.82.82,0,0,0,.25.38.85.85,0,0,0,.43.22,1,1,0,0,0,.52-.06.59.59,0,0,0,.4-.65.82.82,0,0,0-.24-.39,2.08,2.08,0,0,0-1.35-.62A3,3,0,0,0,384,15.83c-.11.13-.13.14-.19.22h0s0,0,0,0l.23-.27a2.72,2.72,0,0,1,1.52-1A2.25,2.25,0,0,1,387,15a1.84,1.84,0,0,1,.69.45.52.52,0,0,1-.5.91l-.14,0h.07a.7.7,0,0,0,.62-.16.38.38,0,0,0,.09-.45.73.73,0,0,0-.19-.26,1.81,1.81,0,0,0-.21-.18c0,.05,0,.08,0,.09l-.12,0a1.29,1.29,0,0,1,.17.16s0,.07,0,.07,0,0-.07,0a1.68,1.68,0,0,0-.87-.47,2.42,2.42,0,0,0-1.23.13h.13l.18-.05a1.92,1.92,0,0,1,1.66.28,1,1,0,0,1,.28.3.29.29,0,0,1-.16.46.48.48,0,0,1-.37,0,.43.43,0,0,1-.19-.19,1,1,0,0,1-.12-.36,0,0,0,0,1,0,0,0,0,0,0,1,0,0,.94.94,0,0,0,.17.43.4.4,0,0,0,.35.15.38.38,0,0,0,.32-.19h0l0-.07s0,0,0,0a.61.61,0,0,0-.24-.42,1.53,1.53,0,0,0-.38-.27,2,2,0,0,0-1-.17,1.58,1.58,0,0,1,1.48.7.2.2,0,0,1,0,.2s0,0,0,0,0,0,0,0a.43.43,0,0,0,0,0c0,.12-.16.16-.17.14s.08-.08.08-.17-.29-.42-.52-.55l-.08,0-.1,0a1.38,1.38,0,0,1,.51.36c.15.13.21.34,0,.37,0,0-.05,0-.05,0h0c.29-.07-.15-.44-.42-.57a1.69,1.69,0,0,0-1.07-.1,1.93,1.93,0,0,0-.6.33l.08,0a1.62,1.62,0,0,1,2,.11,0,0,0,0,1,0,0l0,0a1.29,1.29,0,0,0-.91-.37,1.74,1.74,0,0,0-.8.17,1.54,1.54,0,0,1,1.5.09l0,0h0l.16.13s0,0,0,0Zm-6.48-1.41h.05l.11,0Zm-.46.86h0v0Zm3.13,1.39-.05.1-.05-.33,0,.08,0,.22ZM379.9,15a.62.62,0,0,1,0-.19.59.59,0,0,1,.13-.19.62.62,0,0,1,.31-.2,1.72,1.72,0,0,1,.7-.05h.13a1.92,1.92,0,0,0-.72,0,.79.79,0,0,0-.45.22.5.5,0,0,0-.12.24A1.08,1.08,0,0,0,379.9,15Zm.88.69h0v0Zm0-.07,0,0Zm0,.1h0Zm.16-.36-.13.05.13,0Z"/><ellipse class="cls-2" cx="279.12" cy="27.65" rx="18.66" ry="18.55" transform="translate(-1.1 15.45) rotate(-3.16)"/><path class="cls-3" d="M279.07,25.25c-.06-1.68-.11-3.29-.17-4.9a1.25,1.25,0,0,1,.4-.89,7.66,7.66,0,0,1,3.15-2c1.34-.49,2.73-.82,4.06-1.34l.73-.31a.44.44,0,0,1,.61.22c.54.92,1.11,1.83,1.66,2.75.27.45.18.71-.25,1a9.54,9.54,0,0,1-3.89,1.52,10.44,10.44,0,0,0-6,3.58A4.57,4.57,0,0,1,279.07,25.25Z"/><path class="cls-3" d="M278.79,25.3a13.47,13.47,0,0,0-2.21-1.87,10.85,10.85,0,0,0-4.86-1.78,8.39,8.39,0,0,1-3.26-.95c-.72-.41-.79-.64-.41-1.39s.94-1.79,1.39-2.69c.09-.18.18-.26.38-.21,1.88.52,3.78.94,5.65,1.51a7.57,7.57,0,0,1,2.72,1.56,1.15,1.15,0,0,1,.43.83C278.67,21.94,278.73,23.57,278.79,25.3Z"/><path class="cls-4" d="M277.8,27.75a1.68,1.68,0,0,1-.68-.26l-7.83-4.07-4.23-2.2c-.23-.12-.28-.2-.14-.46.68-1.24,1.32-2.5,2-3.72.31-.53.83-.58,1.3-.77.14-.06.14.09.08.21-.21.45-.4.9-.61,1.35l-1,2.1c-.18.39-.13.53.26.69a69.37,69.37,0,0,0,6.63,2.58,10,10,0,0,1,3.56,2.05c.42.35.82.73,1.22,1.1s.47.54,0,1C278.14,27.66,278,27.74,277.8,27.75Z"/><path class="cls-4" d="M280.25,27.67a1.58,1.58,0,0,1-1-.77.56.56,0,0,1,.2-.49,13,13,0,0,1,5.4-3.87,56.87,56.87,0,0,0,5.74-2.74c.3-.14.34-.35.15-.71-.54-1-1.09-1.95-1.63-2.94-.09-.17-.32-.38-.2-.54s.36.06.55.09a1.45,1.45,0,0,1,1,.72c.77,1.14,1.48,2.33,2.21,3.49.15.24,0,.28-.13.36l-3.76,2.3-7.88,4.79A1.69,1.69,0,0,1,280.25,27.67Z"/><path class="cls-4" d="M287.36,29.94c-.65-.29-1.26-.58-1.88-.85a2,2,0,0,0-1.36-.17.7.7,0,0,0-.43,1.12,2.77,2.77,0,0,0,.88.92c1.78,1.13,3.55,2.28,5.22,3.59.31.25.62.51.91.79a1,1,0,0,1,.19,1.13c-.12.21-.23.3-.5.16-1.91-1-3.83-2-5.75-3l-4.85-2.52c-.14-.08-.37-.08-.37-.29s.21-.2.34-.28L283.87,28a.66.66,0,0,1,.56-.1,4.79,4.79,0,0,1,2.6,1.4A1.48,1.48,0,0,1,287.36,29.94Z"/><path class="cls-4" d="M270.93,30.49a2.13,2.13,0,0,1,.7-1.13,6,6,0,0,1,2.23-1.16.47.47,0,0,1,.4.11l4.44,2.36c.09,0,.23,0,.22.19s-.12.17-.21.23l-5.35,3.24c-1.63,1-3.25,2-4.89,3-.13.08-.25.31-.46.13a.75.75,0,0,1-.3-.68A1.26,1.26,0,0,1,268,36a31.12,31.12,0,0,1,3.43-3c.75-.59,1.52-1.16,2.29-1.72a2.72,2.72,0,0,0,.79-.9.73.73,0,0,0-.53-1.2,1.75,1.75,0,0,0-1.08.2C272.28,29.76,271.64,30.11,270.93,30.49Z"/><path class="cls-5" d="M290.58,15a2.26,2.26,0,0,1,1.65,1c.84,1.37,1.76,2.68,2.64,4,.27.4.27.41-.16.66l-15,9c-.09.05-.18.21-.3.1a.44.44,0,0,1-.08-.39,1,1,0,0,1,.57-.71L284.4,26l9.27-5.59c.49-.29.48-.29.17-.75Z"/><path class="cls-5" d="M266.58,15.85l-1.66,2.77c-.45.76-.9,1.52-1.37,2.27-.15.23-.11.31.12.42l14.53,7.45c.35.18.65.37.65.84,0,.29-.08.32-.31.2l-4.35-2.24-11.4-5.84c-.3-.15-.34-.26-.16-.56.81-1.38,1.62-2.76,2.37-4.17A2.1,2.1,0,0,1,266.58,15.85Z"/><path class="cls-4" d="M274,30.1l-1.61,1c-.32.21-.66.39-1,.62s-.43.2-.58-.11a2.11,2.11,0,0,0-.18-.24l1.27-.74L273,30A.78.78,0,0,1,274,30.1Z"/><path class="cls-4" d="M287.66,30.81c-.34.6-.34.6-.9.3l-2.5-1.35a.73.73,0,0,1,.91-.19Z"/><path class="cls-6" d="M278.77,19l0,0-.08-.08a8.14,8.14,0,0,0-3-1.7,3,3,0,0,1,6-.22A7.88,7.88,0,0,0,278.77,19Z"/><path class="cls-7" d="M275.2,17h0l-3.63-.63a.19.19,0,0,1-.15-.22.18.18,0,0,1,.21-.15l3.63.63a.19.19,0,0,1,.15.22A.18.18,0,0,1,275.2,17Z"/><path class="cls-8" d="M275.71,15.71a.19.19,0,0,1-.1,0l-3.14-2a.18.18,0,0,1,.18-.32l3.15,2a.2.2,0,0,1,.06.26A.19.19,0,0,1,275.71,15.71Z"/><path class="cls-9" d="M276.65,14.7a.15.15,0,0,1-.15-.07l-2.21-3.07a.19.19,0,0,1,0-.26.17.17,0,0,1,.25,0l2.21,3.07a.19.19,0,0,1,0,.26A.19.19,0,0,1,276.65,14.7Z"/><path class="cls-10" d="M277.88,14.14a.19.19,0,0,1-.18-.14l-.94-3.7a.19.19,0,0,1,.13-.23.18.18,0,0,1,.22.13l.94,3.7a.2.2,0,0,1-.13.23Z"/><path class="cls-11" d="M279.22,14.09h0a.19.19,0,0,1-.16-.21l.46-3.79a.18.18,0,1,1,.35,0l-.45,3.8A.18.18,0,0,1,279.22,14.09Z"/><path class="cls-12" d="M280.49,14.57l-.09,0a.19.19,0,0,1-.07-.26L282.12,11a.17.17,0,0,1,.24-.07.19.19,0,0,1,.07.26l-1.79,3.33A.18.18,0,0,1,280.49,14.57Z"/><path class="cls-13" d="M281.5,15.5a.16.16,0,0,1-.15-.07.19.19,0,0,1,0-.26l2.86-2.4a.18.18,0,0,1,.25,0,.19.19,0,0,1,0,.26l-2.86,2.4A.14.14,0,0,1,281.5,15.5Z"/><path class="cls-14" d="M282.09,16.76a.19.19,0,0,1-.18-.13.2.2,0,0,1,.12-.24l3.52-1.11a.19.19,0,0,1,.23.13.19.19,0,0,1-.12.23l-3.52,1.11Z"/><path class="cls-15" d="M304.22,16A27.74,27.74,0,0,0,289,1.83a27.78,27.78,0,0,0-21.52.72,27.74,27.74,0,0,0-14.2,15.2,27.66,27.66,0,0,0,15.92,35.72,27.64,27.64,0,0,0,37.53-26.75A27.38,27.38,0,0,0,304.22,16ZM279.8,47.64A20,20,0,1,1,299.11,27,20,20,0,0,1,279.8,47.64Z"/><path class="cls-16" d="M256.6,38.43a.33.33,0,0,0,.18-.23.5.5,0,0,0,0-.32.41.41,0,0,0-.22-.21.32.32,0,0,0-.27,0,.28.28,0,0,0-.12.1.35.35,0,0,0-.06.14.41.41,0,0,0,0,.16.43.43,0,0,0,.05.16.41.41,0,0,0,.22.21A.36.36,0,0,0,256.6,38.43Z"/><path class="cls-16" d="M264.7,44.4v-.16a.14.14,0,0,1,0-.06l.06-.11-.09-.34c-.07.09-.12.17-.16.23a1.4,1.4,0,0,1-.12.18l-.08.13-.06.11a.63.63,0,0,0,0-.31.75.75,0,0,0-.22-.27l0,0,0,0-.07-.07-.12-.11h0L262,41.75l-.31-.43.19-.24a3.43,3.43,0,0,0,.07-.56,2.63,2.63,0,0,0,0-.56,2.14,2.14,0,0,0-.11-.56,3,3,0,0,0-.24-.55,1.49,1.49,0,0,0-.3-.33,1.62,1.62,0,0,0-.41-.27,1.53,1.53,0,0,0-.45-.13.64.64,0,0,0-.4.08.25.25,0,0,0-.13.17,1.42,1.42,0,0,0,0,.22L259.5,38l-1.25-2.61-.17.62.88,1.83-.08,0a6.38,6.38,0,0,0-.79-.77,9.42,9.42,0,0,0-.92-.66l-.32.71a2.05,2.05,0,0,1,.17.73,1.59,1.59,0,0,1-.09.55.94.94,0,0,1-.1.23,1.28,1.28,0,0,1-.11.2l-.12.19-.1.16a1.3,1.3,0,0,0-.05.14s0,0,0,.07v.16l2.73-1.31.29.63-2.17,1.29s0,0-.05,0a.08.08,0,0,1,0,0v.05a.25.25,0,0,1,0,.08.19.19,0,0,0,0,.08.87.87,0,0,0,0,.1.5.5,0,0,1,0,.12.77.77,0,0,1,0,.15l2.63-1.57.15.25v.08l.28.37.07.12h0l.2.26a.09.09,0,0,0,0,.06l0,.09a.24.24,0,0,1,0,.08l0,0-.2-.14-.12-.07a.31.31,0,0,0-.13-.06.7.7,0,0,0-.27-.08.38.38,0,0,0-.26.09.33.33,0,0,0-.15.28.52.52,0,0,0,.12.33.59.59,0,0,0,.18.17.85.85,0,0,0,.24.09,1,1,0,0,0,.24,0,.54.54,0,0,0,.22,0l0,.06a.64.64,0,0,1,.15.36.3.3,0,0,1-.13.29.29.29,0,0,1-.23,0,1,1,0,0,1-.28-.14,1.86,1.86,0,0,1-.26-.23,1.45,1.45,0,0,1-.18-.21,1.84,1.84,0,0,1-.26-.48,2.83,2.83,0,0,1-.13-.69l-.54,1a7.37,7.37,0,0,1,.3.7,5,5,0,0,1,.23.78,5.41,5.41,0,0,1,.09.82,4.2,4.2,0,0,1-.06.86l.43-.59c0-.11,0-.22,0-.3a2.09,2.09,0,0,0,0-.24,1.2,1.2,0,0,0,0-.19c0-.06,0-.12,0-.18l-.06-.31c0-.1-.05-.25-.09-.42l.1.06.1.06a.8.8,0,0,0,.16.08l.16.08a.78.78,0,0,0,.33.07.65.65,0,0,0,.34-.13.67.67,0,0,0,.23-.27.88.88,0,0,0,.1-.35,1,1,0,0,0,0-.38,1.49,1.49,0,0,0-.14-.37v-.09l.77,1.06a.19.19,0,0,1,0,.08.64.64,0,0,0,0,.09s0,.06,0,.1a.57.57,0,0,0,0,.12.65.65,0,0,0,.11.27s.06.1.09.16a1,1,0,0,1,.1.17,1.3,1.3,0,0,1,.08.34.53.53,0,0,1-.13.36h0s0,0-.06-.06l0,0a.91.91,0,0,0-.26-.2.69.69,0,0,0-.25-.09.58.58,0,0,0-.23,0,.44.44,0,0,0-.19.1.45.45,0,0,0-.13.17.46.46,0,0,0-.05.21,1.06,1.06,0,0,0,.05.23.71.71,0,0,0,.17.24.68.68,0,0,0,.26.18.73.73,0,0,0,.33,0,1.31,1.31,0,0,1,.07.27c0,.12,0,.22,0,.3a.6.6,0,0,1,0,.19l-.06.19-.09.2c0,.06-.07.12-.11.17l0,.14a.43.43,0,0,0,0,.11.2.2,0,0,0,0,.08L263.55,44l.4.42v.07a.74.74,0,0,1-.18.37l-1.46,1.68c0,.1,0,.19,0,.27s0,.13,0,.19a.35.35,0,0,0,.05.12l2-2.34.71.61-.09-.63Zm-7.51-5.72a2.06,2.06,0,0,0,.22-.63,2.72,2.72,0,0,0,0-.7,3.72,3.72,0,0,1,.48.35q.22.19.45.42Zm3.17.83v0l-.31-.52a.13.13,0,0,1,0,0l0,0,0-.06,0,0h.09a.65.65,0,0,1,.19,0,.92.92,0,0,1,.26.07A1,1,0,0,1,261,39a1.4,1.4,0,0,1,.27.31,1.78,1.78,0,0,1,.22.48,3.94,3.94,0,0,1,.13.71,6.58,6.58,0,0,1,0,.76Zm1.54,5.36c0-.1,0-.2,0-.3v-.31a1.29,1.29,0,0,0,.19-.21l.14-.24a.89.89,0,0,0,.11-.31c0-.11,0-.22,0-.33s0-.17,0-.25l0-.24.89.94Z"/><path class="cls-16" d="M278.83,49.76l-3.71-.37-.05-.06-.49-.11-.06-.07,0-.07s0,0,0-.06a.68.68,0,0,1,0-.12l-.25-.26c0,.11,0,.2,0,.29s0,.15,0,.21,0,.11,0,.15v.12a.94.94,0,0,0-.18-.25.84.84,0,0,0-.33-.14h-.11l-.1,0-.16,0h0L271,48.21l0,0-.47-.2,0-.08s0,0,0-.07v-.06a.41.41,0,0,1,0-.12l-.2-.3c0,.1-.05.19-.07.27s0,.15-.06.21a1.13,1.13,0,0,0,0,.15l0,.12a.52.52,0,0,0-.13-.28.65.65,0,0,0-.29-.2l-.05,0-.06,0-.09,0-.15-.07,0,0-3.42-2,.22.6,1,.6-.32.1-.2.11a.77.77,0,0,0-.16.19.66.66,0,0,0-.09.28.7.7,0,0,0,0,.32.81.81,0,0,0,.14.3.83.83,0,0,0,.26.23l.19.08.18,0h.08l.07,0,.09,0s0,0,0,.09a.27.27,0,0,1,0,.12.23.23,0,0,1-.2.11.85.85,0,0,1-.31,0,1.27,1.27,0,0,1-.32-.13.71.71,0,0,1-.24-.21,1.72,1.72,0,0,1-.18-.42,1.58,1.58,0,0,1,0-.43,1.54,1.54,0,0,1,.07-.42,1.73,1.73,0,0,1,.18-.39l.08-.13-.08-.13-.13-.18-.16.29c-.05.1-.11.2-.15.3s-.09.2-.13.29,0,.19-.07.28a2.3,2.3,0,0,0,0,.46,1.53,1.53,0,0,0,.07.47,1.65,1.65,0,0,0,.22.44,1.29,1.29,0,0,0,.41.35,1,1,0,0,0,.37.13,1.15,1.15,0,0,0,.37,0,.92.92,0,0,0,.32-.14.61.61,0,0,0,.23-.25.53.53,0,0,0,.06-.22,1.51,1.51,0,0,0,0-.3,1.36,1.36,0,0,0,0-.3.43.43,0,0,0-.08-.19l-.05-.06-.19,0-.23,0-.21,0a.44.44,0,0,1-.13-.05c-.11,0-.13-.12-.09-.2a.37.37,0,0,1,.11-.1l.17-.08.18-.05a.39.39,0,0,1,.16,0,1.47,1.47,0,0,0,.31.55,3.05,3.05,0,0,0,.72.56,2.61,2.61,0,0,0-.31.27,1.91,1.91,0,0,0-.24.34,5.51,5.51,0,0,0-.49,1.13.7.7,0,0,0,.13.16l.15.12.12,0a1.42,1.42,0,0,1,.13-.55,2,2,0,0,1,.79-.94,1.21,1.21,0,0,1,.55-.19c0-.15-.09-.28-.13-.39s-.08-.24-.13-.37l-.18,0-.18,0-.17,0-.13-.06-.17-.12-.24-.17a1.17,1.17,0,0,1-.19-.2c-.05-.06-.07-.11,0-.15h.23l1.89,1.08h0a.69.69,0,0,1-.07.4l-.88,2.05L269,51a1,1,0,0,0,.1.17.22.22,0,0,0,.08.1l1.22-2.84.28.12,0,.07.44.13.1,0v0l1.62.52-.37,1.19a1.75,1.75,0,0,0-.12-.32,1.17,1.17,0,0,0-.17-.31,1.2,1.2,0,0,0-.24-.26,1,1,0,0,0-.35-.18,1.26,1.26,0,0,0-.33,0,1.07,1.07,0,0,0-.32,0,.72.72,0,0,0-.25.16.54.54,0,0,0-.16.26.61.61,0,0,0,0,.5.8.8,0,0,0,.46.31.66.66,0,0,0,.39,0,.36.36,0,0,0,.25-.26.5.5,0,0,0,0-.27.25.25,0,0,0,0-.07.14.14,0,0,0,0-.06h0v0a.69.69,0,0,1,.28.2,1,1,0,0,1,.2.32,1.27,1.27,0,0,1,.12.39,3,3,0,0,1,.06.42,1.27,1.27,0,0,1,0,.2l-.05.23a1.91,1.91,0,0,0-.15-.28,1.64,1.64,0,0,0-.21-.25,1.79,1.79,0,0,0-.26-.2.81.81,0,0,0-.29-.12,1.08,1.08,0,0,0-.67,0,.65.65,0,0,0-.37.47.45.45,0,0,0,.09.42.78.78,0,0,0,.41.25.5.5,0,0,0,.37,0,.43.43,0,0,0,.2-.27.55.55,0,0,0,0-.22,1,1,0,0,0-.08-.2,1,1,0,0,1,.34.16,1.52,1.52,0,0,1,.25.26,1.29,1.29,0,0,1,.17.33,1.32,1.32,0,0,1,.08.33s0,.07,0,.09a.17.17,0,0,1,0,.07.08.08,0,0,1,0,.07.58.58,0,0,1,0,.1l.11.11a.39.39,0,0,0,.1.08l.09.05.38-1.55-.08-.09.59-1.88.56.17,0,.06a.7.7,0,0,1,0,.41l-.47,2.18a1.93,1.93,0,0,0,.17.21.64.64,0,0,0,.13.15.28.28,0,0,0,.1.08l.65-3,.25,0,.09.1h.1c0,.17.08.35.14.54a5.3,5.3,0,0,0,.19.61,4.53,4.53,0,0,0,.28.59,2.47,2.47,0,0,0,.36.53,2.22,2.22,0,0,0,.47.39,1.42,1.42,0,0,0,.58.19,2.12,2.12,0,0,0,.51,0,1.28,1.28,0,0,0,.43-.19,1.08,1.08,0,0,0,.33-.31,1.15,1.15,0,0,0,.17-.41,1.17,1.17,0,0,0-.3-1.07,1.54,1.54,0,0,0-.45-.33,1.62,1.62,0,0,0-.57-.16.87.87,0,0,0-.32,0,1,1,0,0,0-.29.1.85.85,0,0,0-.22.2.54.54,0,0,0-.11.27.93.93,0,0,0,0,.24.51.51,0,0,0,.1.21.74.74,0,0,0,.19.16.77.77,0,0,0,.28.07.7.7,0,0,0,.44-.07.41.41,0,0,0,.2-.35.75.75,0,0,0,0-.15.44.44,0,0,0-.05-.15h.1a.4.4,0,0,1,.23.08.82.82,0,0,1,.2.17.7.7,0,0,1,.13.24.53.53,0,0,1,0,.25.67.67,0,0,1-.13.25.87.87,0,0,1-.23.19,1.48,1.48,0,0,1-.29.12.81.81,0,0,1-.3,0,1.42,1.42,0,0,1-.47-.13,1.49,1.49,0,0,1-.38-.28,2.11,2.11,0,0,1-.31-.36,3.7,3.7,0,0,1-.25-.43,4.32,4.32,0,0,1-.19-.45c-.06-.15-.12-.29-.16-.42L275,49.8l4.32.43Z"/><path class="cls-16" d="M292.07,46.07l-.63-.1-.43.27-.09,0-.07,0-.05,0-.09-.09-.35,0,.18.22.13.17.1.12.09.09a.59.59,0,0,0-.31-.06.73.73,0,0,0-.33.13l0,0-.06,0-.09.05-.14.08h0l-2.44,1.19h0l-.56.18-.18-.26-.5-.23a2.81,2.81,0,0,0-.54-.17,3.7,3.7,0,0,0-.57-.07,3,3,0,0,0-.59.06,1.32,1.32,0,0,0-.41.18,2,2,0,0,0-.39.31,1.4,1.4,0,0,0-.26.39.66.66,0,0,0-.05.41.3.3,0,0,0,.12.17l.19.11-.72.17-3.06.39.21.14.12.08.09.05.08.07a.17.17,0,0,1,.06.06l.06.07.08.07.1.06a.67.67,0,0,0,.28.08h.18l.2,0a1.27,1.27,0,0,1,.32.13.63.63,0,0,1,.22.32h-.18a.94.94,0,0,0-.31.08,1,1,0,0,0-.22.16.44.44,0,0,0-.12.19.39.39,0,0,0,0,.21.46.46,0,0,0,.05.2.61.61,0,0,0,.15.17.64.64,0,0,0,.22.1.69.69,0,0,0,.29,0,.64.64,0,0,0,.3-.11.64.64,0,0,0,.22-.24,1.15,1.15,0,0,1,.27.1l.26.15.15.12.12.16a1.62,1.62,0,0,1,.1.18c0,.07.06.13.08.19l.13.07.1,0a.12.12,0,0,0,.08,0l-.38-3,.68-.08.55,2.45a.14.14,0,0,0,0,.06l0,0v0h0l.06,0,.08,0,.09.05.11,0,.14.07-.68-3,.29-.06.07,0,.44-.15.13,0h0l.31-.1h.3a.94.94,0,0,1-.19.14.94.94,0,0,0-.1.1.47.47,0,0,0-.1.1.65.65,0,0,0-.15.23.39.39,0,0,0,0,.28.33.33,0,0,0,.23.23.57.57,0,0,0,.34,0,.53.53,0,0,0,.22-.12,1.54,1.54,0,0,0,.17-.19,2.29,2.29,0,0,0,.1-.23.57.57,0,0,0,0-.22l.07,0a.71.71,0,0,1,.38,0,.32.32,0,0,1,.24.21.26.26,0,0,1-.05.23.92.92,0,0,1-.22.22,1.75,1.75,0,0,1-.29.18l-.26.11a2.35,2.35,0,0,1-.53.09,2.79,2.79,0,0,1-.7-.09l.77.83a6.07,6.07,0,0,1,.77-.08,5.4,5.4,0,0,1,.8,0,5.8,5.8,0,0,1,.81.16,4.22,4.22,0,0,1,.8.33l-.42-.59-.29-.12-.22-.08-.19-.06-.17,0-.31,0-.43,0,.09-.08.08-.07.14-.12.12-.13a.8.8,0,0,0,.16-.3.56.56,0,0,0,0-.36.77.77,0,0,0-.19-.31.93.93,0,0,0-.3-.2,1.36,1.36,0,0,0-.36-.1,1.76,1.76,0,0,0-.4,0s0,0,0,0h0l0,0,1.24-.4h0l.13-.06.42-.14-.08,0,1.85-.9.21.43a1.4,1.4,0,0,0-.29-.09.52.52,0,0,0-.51.24.73.73,0,0,0-.09.26,1,1,0,0,0-.36-.06.87.87,0,0,0-.39.1,1.41,1.41,0,0,0-.31.21,1.48,1.48,0,0,0-.19.27.84.84,0,0,0-.08.31.63.63,0,0,0,.05.3.88.88,0,0,0,.2.33.87.87,0,0,0,.26.18.73.73,0,0,0,.29,0,.93.93,0,0,0,.29-.05l.26-.13a1.8,1.8,0,0,0,.2-.18.57.57,0,0,0,.12-.21.27.27,0,0,0,0-.2.53.53,0,0,0-.27-.27.6.6,0,0,0-.19-.06.44.44,0,0,0-.22,0,.47.47,0,0,0-.25.23.34.34,0,0,0,0,.31l.06.09c-.09,0-.16-.09-.2-.22a.39.39,0,0,1,.06-.33.59.59,0,0,1,.34-.24.9.9,0,0,1,.22-.06,1,1,0,0,1,.24,0,.54.54,0,0,1,.21.08.9.9,0,0,1,.19.15l.2-.2-.05-.07,0,0a.05.05,0,0,1,0,0l0,0a.2.2,0,0,1,0-.17.15.15,0,0,1,.11-.11.28.28,0,0,1,.13,0h.14a.34.34,0,0,1,.12.06.3.3,0,0,1,.08.08l.72,1.49.14,0,.2.05.26.06-1.35-2.78.54-.27h0a.74.74,0,0,1,.3.29l1.17,1.9.27,0,.2,0,.12,0-1.63-2.62Zm-9.32,5.35-.25-.18a.75.75,0,0,0-.06-.29c0-.09-.07-.18-.11-.25a.8.8,0,0,0-.18-.27l-.26-.21-.21-.12-.21-.12,1.28-.17.23,1.8A2.11,2.11,0,0,0,282.75,51.42Zm2-2.43,0,0-.6.14,0,0,0,0L284,49l0,0s0,0,0-.09a.6.6,0,0,1,.07-.18,1.18,1.18,0,0,1,.14-.23,1.36,1.36,0,0,1,.25-.22,1.21,1.21,0,0,1,.38-.16,2,2,0,0,1,.53-.06,3.35,3.35,0,0,1,.7.1,4.42,4.42,0,0,1,.73.24Z"/><path class="cls-16" d="M300.52,34.87l.31-.88-.56.31-.17.48-.08,0a.09.09,0,0,1-.06,0h-.07l-.12,0-.28.21.27.06.21,0,.15,0,.12,0a.59.59,0,0,0-.27.15.85.85,0,0,0-.18.3l0,.05,0,.06,0,.1-.07.15h0l-1.12,2.36-.06,0-.26.43-.09,0H298a.24.24,0,0,1-.11,0l-.33.15.26.11.2.09.14.06.11,0a.66.66,0,0,0-.29.09.76.76,0,0,0-.24.26l0,0,0,.05a.41.41,0,0,1-.05.09l-.1.13h0L296,42H296l-.34.38h-.17l-.06,0s-.05,0-.1-.06l-.35.08.23.17.18.12.13.09.1.06a.54.54,0,0,0-.31,0A.71.71,0,0,0,295,43l0,0,0,.05a.45.45,0,0,0-.07.07l-.12.11h0l-2.29,2h.7l.08,0h.1a.25.25,0,0,0,.12,0,.68.68,0,0,0,.28-.09l.16-.09a.76.76,0,0,1,.18-.09.94.94,0,0,1,.34-.08.52.52,0,0,1,.35.15h0l-.06,0-.05,0a1.2,1.2,0,0,0-.21.26.63.63,0,0,0-.09.25.6.6,0,0,0,0,.23.66.66,0,0,0,.09.19.51.51,0,0,0,.16.13.54.54,0,0,0,.21,0,.67.67,0,0,0,.24,0,1,1,0,0,0,.25-.15.88.88,0,0,0,.19-.27.69.69,0,0,0,0-.32,1.26,1.26,0,0,1,.28-.07l.29,0a.58.58,0,0,1,.19,0,1.52,1.52,0,0,1,.2.06l.18.1.18.11.14,0,.11,0,.08,0-2-2.24.43-.39h.07a.66.66,0,0,1,.36.2l1.64,1.51.27,0,.19,0a.19.19,0,0,0,.12-.05L296,42.6l.2-.22.09,0,.25-.33,1.32,1,.72-.15a2,2,0,0,1-.26-.84,2.15,2.15,0,0,1,.08-.84,3.07,3.07,0,0,0,.49.46,2.48,2.48,0,0,0,.54.32l.37.17a2.39,2.39,0,0,0-.23.22,2.34,2.34,0,0,0-.24.31l-.24.34c-.07.11-.15.21-.22.3a1.42,1.42,0,0,1-.22.21.37.37,0,0,1-.21.08.35.35,0,0,1-.23-.07l-.05,0-.05,0-.05,0a.45.45,0,0,1,0-.08l-.34.1.23.29a1.07,1.07,0,0,0,.23.2.94.94,0,0,0,.32.13.83.83,0,0,0,.31,0,1.05,1.05,0,0,0,.28-.17,1.48,1.48,0,0,0,.25-.25,2.37,2.37,0,0,0,.23-.3l.21-.31.19-.3a2,2,0,0,1,.18-.26.75.75,0,0,1,.18-.18.45.45,0,0,1,.18-.07h.1l.1,0,.14,0L301,42l-1.82-1.18s-.05,0-.07,0l0,0h0V41a.2.2,0,0,0,0,.07.22.22,0,0,0,0,.08v.09h0A1,1,0,0,1,299,41a4.94,4.94,0,0,1-.36-.69l-.75.27a4.26,4.26,0,0,0-.14.53c0,.14,0,.28-.05.41s0,.23,0,.35,0,.25,0,.4l-.85-.64,1.57-2.08.05,0a.68.68,0,0,1,.4.12l1.91,1.16.25-.09.18-.08a.26.26,0,0,0,.11-.07L298.62,39l.12-.2h0l.1-.07a.67.67,0,0,0,.21-.09,1.17,1.17,0,0,0,.16-.15l.07-.09,0-.09a.35.35,0,0,1,.05-.08.26.26,0,0,1,.05-.09.47.47,0,0,1,.09-.12.27.27,0,0,1,.12-.09.43.43,0,0,1,.2,0,.88.88,0,0,1,.28.06l.07.14.09.21a1.8,1.8,0,0,1,.08.21c0,.08,0,.13,0,.16a.1.1,0,0,1-.06,0,.28.28,0,0,1-.13,0H300a.52.52,0,0,1-.18,0l.12.46.18,0h.14l.13,0,.13,0a.85.85,0,0,0,.25-.13.76.76,0,0,0,.19-.26.45.45,0,0,0,.05-.19.76.76,0,0,0,0-.21,1.8,1.8,0,0,0-.08-.21l-.11-.21a.41.41,0,0,1-.05-.09l0-.09a.36.36,0,0,1,0-.09l0-.09a.36.36,0,0,1,0-.29.22.22,0,0,1,.08-.09.47.47,0,0,1,.12-.09L301,37a.12.12,0,0,1,.1,0l1.24.6.26-.12.18-.09a.37.37,0,0,0,.1-.07L300.13,36l.25-.53.05,0a.68.68,0,0,1,.41,0l2.1.75.23-.14.16-.11a.24.24,0,0,0,.09-.09ZM296,45.17l-.31,0h-.3a1,1,0,0,0-.21-.2l-.23-.15a.72.72,0,0,0-.31-.11,1.84,1.84,0,0,0-.33,0l-.25,0-.24,0,1-.87Zm4.64-8.38-.22.07a1.51,1.51,0,0,0-.22.11.48.48,0,0,0-.17.18.75.75,0,0,0,0,.16,1.09,1.09,0,0,0,0,.18.63.63,0,0,0-.3,0,1.28,1.28,0,0,0-.31.11l.53-1.11Z"/><path class="cls-16" d="M259.71,14.39l-.39-.55a3,3,0,0,0-.2.41,4.31,4.31,0,0,0-.13.54,2.7,2.7,0,0,1-.41.16.27.27,0,0,1-.22,0,.17.17,0,0,1-.05-.12.25.25,0,0,1,.05-.15.35.35,0,0,1,.18-.13.84.84,0,0,1,.31-.07l-.28-.65a1.13,1.13,0,0,0-.43.08.69.69,0,0,0-.27.22.53.53,0,0,0-.09.37,2.39,2.39,0,0,0,.22.6,1.38,1.38,0,0,0,.31.48.43.43,0,0,0,.24.08l.5-.05a2.5,2.5,0,0,0,.16.42.87.87,0,0,0,.24.29l.15-.09c-.06-.26-.1-.46-.12-.58a2,2,0,0,1,0-.55A3.13,3.13,0,0,1,259.71,14.39Z"/><polygon class="cls-16" points="263.13 8.39 263.01 7.7 262.3 7.81 262.42 8.51 263.13 8.39"/><path class="cls-16" d="M265.47,8.76l-1.2-1.25.1,0a1.29,1.29,0,0,0-.08-.31,2.26,2.26,0,0,0-.13-.33,2,2,0,0,1-.36,0,.23.23,0,0,1-.19-.09l0-.07h-.14a2.79,2.79,0,0,0,.1.53,1.05,1.05,0,0,0,.15.3h.2L265.21,9l-.84.56a3.44,3.44,0,0,0-.51-.54,1.3,1.3,0,0,0-.52-.22l.23.65a1.62,1.62,0,0,1,.3.09.79.79,0,0,1,.28.18l-1,.79-.23-.25a1.66,1.66,0,0,0-.27-.23,1.3,1.3,0,0,0-.29-.16l.05.39c0,.06,0,.09,0,.1a.24.24,0,0,0,.06.09.51.51,0,0,0,.19.1.63.63,0,0,1,.21.14,1,1,0,0,1-.23.13l-.22.1a2.19,2.19,0,0,0-.24-.33l-.09-.08-.1-.1,0,.13a.88.88,0,0,0,0,.14.17.17,0,0,0,.06.11.47.47,0,0,1,.16.43.84.84,0,0,1-.28.39l-.24.22a.25.25,0,0,1-.22.08.3.3,0,0,1-.23-.1l-.17-.19-.13-.15-.15.1a.81.81,0,0,1,.27.64.76.76,0,0,1-.23.44l-.29.27.05,0-.16.19a.2.2,0,0,1-.26,0,2.86,2.86,0,0,1-.66-.47l-.41-.36a2.26,2.26,0,0,0-.53-.36,1.41,1.41,0,0,0-.48-.12l.34.67h.26a.9.9,0,0,1,.36.22l.6.52a2.28,2.28,0,0,0,.85.53.49.49,0,0,0,.5-.17l.24-.29,0,0,.14-.13a.8.8,0,0,0,.22-.32,1,1,0,0,0,0-.47.82.82,0,0,0,.36.1.41.41,0,0,0,.27-.12l.32-.31a1.82,1.82,0,0,0,.25-.27,1.5,1.5,0,0,0,.1-.3,2.19,2.19,0,0,0,.38-.17l.25-.18,0,0,1.3-1,1.11-.75Z"/><path class="cls-16" d="M266.32,8.19c-.09-.16-.21-.33-.33-.5s-.36-.48-.61-.77l-.64-.75a3.69,3.69,0,0,0,.06.55.92.92,0,0,0,.07.29l.14.16c.21.23.38.42.51.59l.39.52a4.39,4.39,0,0,1,.28.41,4.53,4.53,0,0,1,.24.52l.17,0a3,3,0,0,0-.09-.58A1.56,1.56,0,0,0,266.32,8.19Z"/><polygon class="cls-16" points="268.08 3.9 267.54 3.85 267.49 4.34 267.04 4.31 266.98 4.87 267.56 4.92 267.58 4.44 268.02 4.49 268.08 3.9"/><path class="cls-16" d="M273,4.85a2.78,2.78,0,0,0-.19-.27l-.13.37,0,.1a.23.23,0,0,0,0,.11.54.54,0,0,0,.12.18.69.69,0,0,1,.14.21,1.23,1.23,0,0,1-.27,0,.92.92,0,0,1-.24,0,2.33,2.33,0,0,0-.08-.4.36.36,0,0,0,0-.11c0-.06,0-.1,0-.14l-.08.11-.07.12a.28.28,0,0,0,0,.13.46.46,0,0,1,0,.45.89.89,0,0,1-.42.23l-.32.1a.32.32,0,0,1-.23,0,.32.32,0,0,1-.16-.2c0-.09,0-.17-.07-.24s0-.14-.05-.2l-.18,0a.81.81,0,0,1,0,.69.73.73,0,0,1-.4.3l-.37.11v0l-.22.09a.21.21,0,0,1-.2,0A1.65,1.65,0,0,1,269,6.2l-.93-1.48a1.93,1.93,0,0,0,0,.43.83.83,0,0,0,.06.26l0,.07.05.06-.1.14-.19.29a1.16,1.16,0,0,0-.14.27,2.32,2.32,0,0,0-.06.56,2.6,2.6,0,0,0,0,.51.08.08,0,0,0,.07,0l.27,0,.33-.08.12,0a.44.44,0,0,0,.17-.23,3.13,3.13,0,0,0,.13-.42,2.18,2.18,0,0,0,.5.66.58.58,0,0,0,.36.16.38.38,0,0,0,.18,0l.32-.14v0l.18,0a.77.77,0,0,0,.33-.2.89.89,0,0,0,.22-.41,1,1,0,0,0,.27.25.46.46,0,0,0,.31,0l.42-.13a2.08,2.08,0,0,0,.34-.14,1.23,1.23,0,0,0,.22-.23,2,2,0,0,0,.42,0,2.21,2.21,0,0,0,.49-.11l-.3-1A2.73,2.73,0,0,0,273,4.85ZM268.5,6.38a.39.39,0,0,1-.1.08l-.18,0c-.06,0-.1,0-.11,0s0,0,0-.1a1.21,1.21,0,0,1,.05-.14c0-.06.09-.14.16-.23l.1-.12.18.29Z"/><path class="cls-16" d="M275.61,5a1.39,1.39,0,0,0-.2-.55,1.19,1.19,0,0,0-.36-.38v.76a1,1,0,0,1,.29.29.69.69,0,0,1,.14.27c0,.15-.08.38-.32.7a3.47,3.47,0,0,1-.43.49.76.76,0,0,1-.35.17.86.86,0,0,1-.32,0,2.59,2.59,0,0,1-.43-.14l-.08.18a5.81,5.81,0,0,0,.82.34,1.06,1.06,0,0,0,.52,0,.8.8,0,0,0,.43-.31,2,2,0,0,0,.35-.55.94.94,0,0,0,.11-.48Z"/><path class="cls-16" d="M279.68,4.13c-.14-.28-.25-.42-.35-.42a.56.56,0,0,0-.35.21,1.64,1.64,0,0,0-.39.58.42.42,0,0,1-.25.27.81.81,0,0,1-.38.07h-.4l0-.13a3.28,3.28,0,0,0-.23-1,1.4,1.4,0,0,0-.56-.64l-.11.87a1.1,1.1,0,0,1,.38.32,1.55,1.55,0,0,1,.28.62l-.92.09a.35.35,0,0,1-.18,0,.2.2,0,0,1-.11-.13H276a2.81,2.81,0,0,0,0,.29,2.17,2.17,0,0,0,0,.26.37.37,0,0,0,.15.3.44.44,0,0,0,.27.05l1.22-.12H278a.8.8,0,0,0,.3,0,.73.73,0,0,0,.38-.32,3.42,3.42,0,0,0,.6.23,2.59,2.59,0,0,0,.67.1V5A2,2,0,0,0,279.68,4.13Zm-.34.64-.25-.08-.21-.08c0-.16.1-.25.17-.25s.14,0,.23.16a.46.46,0,0,1,.12.21S279.38,4.77,279.34,4.77Z"/><polygon class="cls-16" points="283.57 3.65 283.92 3.92 284.3 3.41 283.86 3.06 283.56 3.46 283.2 3.2 282.84 3.69 283.29 4.04 283.57 3.65"/><path class="cls-16" d="M284.82,4.17l-.34.59a1.27,1.27,0,0,1,.14.3,1.46,1.46,0,0,1,.08.31l-1.93-.3L282.46,5a1.67,1.67,0,0,1-.24-.08.45.45,0,0,1-.28-.5.75.75,0,0,1,.08-.24,2.11,2.11,0,0,1,.21-.32l-.14-.13a3.22,3.22,0,0,0-.24.29,1.92,1.92,0,0,0-.15.29,1,1,0,0,0-.08.2c0,.06,0,.12,0,.2a1,1,0,0,0,.06.54.65.65,0,0,0,.31.37.84.84,0,0,0,.22.1l.43.07,2.24.35.12-.77a3.21,3.21,0,0,0,0-.64A1.43,1.43,0,0,0,284.82,4.17Z"/><polygon class="cls-16" points="288.42 4.12 287.93 3.6 287.43 4.1 287.92 4.61 288.42 4.12"/><rect class="cls-16" x="288.15" y="7.83" width="0.71" height="0.71" transform="translate(56.56 179.96) rotate(-38.15)"/><path class="cls-16" d="M290.2,7.16a2.12,2.12,0,0,1-.17-.4c-.09-.28-.17-.49-.23-.63a1.46,1.46,0,0,0-.23-.4.74.74,0,0,0-.28-.22.63.63,0,0,0-.45,0,1.53,1.53,0,0,0-.5.35l.17,0,.12,0a1,1,0,0,1,.39.31,2.58,2.58,0,0,1,.36.69l-1.65-.7a3.71,3.71,0,0,0,.14-.68,1.43,1.43,0,0,0-.11-.56l-.41.56a1.66,1.66,0,0,1,.1.3.73.73,0,0,1,0,.33l-1.35-.43h0l-.21,0c-.09,0-.13-.1-.14-.22a2.81,2.81,0,0,1,.13-.8l.14-.53a2.79,2.79,0,0,0,.09-.64,1.39,1.39,0,0,0-.11-.47l-.45.59a.94.94,0,0,1,.1.24,1.12,1.12,0,0,1,0,.43l-.2.76a2.22,2.22,0,0,0-.1,1,.51.51,0,0,0,.38.38l.37.09h0l1.42.45V7l2.66,1.13.29-.69A1.16,1.16,0,0,1,290.2,7.16Z"/><polygon class="cls-16" points="294.11 6.24 294.32 6.63 294.84 6.36 294.57 5.88 294.15 6.11 293.92 5.72 293.42 5.98 293.69 6.49 294.11 6.24"/><polygon class="cls-16" points="295.18 12.36 295.03 11.94 294.46 12.14 294.64 12.69 295.09 12.52 295.22 12.94 295.82 12.72 295.65 12.18 295.18 12.36"/><path class="cls-16" d="M298.13,14.52l.56-.51a.88.88,0,0,1-.12-.31,1.59,1.59,0,0,1,0-.43c0-.3.05-.52.06-.67a2,2,0,0,0,0-.46.74.74,0,0,0-.16-.32.64.64,0,0,0-.4-.2,1.59,1.59,0,0,0-.6.1l.13.11a.38.38,0,0,1,.09.09.87.87,0,0,1,.22.45,2.65,2.65,0,0,1,0,.78l-1.2-1.34a3,3,0,0,0,.42-.56,1.35,1.35,0,0,0,.13-.55l-.61.34c0,.15,0,.26,0,.31a.9.9,0,0,1-.13.31l-1-.88a2,2,0,0,0,.27-.67c.07-.31.07-.49,0-.55a.59.59,0,0,0-.41-.06,1.69,1.69,0,0,0-.66.21.49.49,0,0,1-.37.06,1.08,1.08,0,0,1-.34-.19l-.42-.33h0l-.19-.12a.19.19,0,0,1-.1-.18,1.32,1.32,0,0,1,.15-.55l.71-1.59a1.9,1.9,0,0,0-.35.24.63.63,0,0,0-.18.2l0,.06,0,.08H293a1.44,1.44,0,0,0-.3,0,2.34,2.34,0,0,0-.5.27,2.35,2.35,0,0,0-.41.29.1.1,0,0,0,0,.09l.18.19.25.23a.41.41,0,0,0,.1.09.41.41,0,0,0,.28,0l.42-.12a2.16,2.16,0,0,0-.27.77.6.6,0,0,0,.07.39.3.3,0,0,0,.12.13l.3.19.27.21a1,1,0,0,0,.26.16.78.78,0,0,0,.5,0,3.23,3.23,0,0,0,.32.55,4.3,4.3,0,0,0,.31.37h0l1.24,1.14,0,0ZM293,8.09a.21.21,0,0,1-.12,0,.57.57,0,0,1-.15-.12s-.06-.08-.05-.1.05,0,.1,0l.14,0h.43l-.13.31Zm2.16,1.8a.4.4,0,0,1,.07.27c0,.13,0,.21,0,.24s0,0-.07,0a2.12,2.12,0,0,1-.14-.21l-.12-.2Q295.09,9.83,295.18,9.89Z"/><path class="cls-16" d="M300.05,15.43a1,1,0,0,1-.15.39.62.62,0,0,1-.18.24,1.21,1.21,0,0,1-.78,0,4,4,0,0,1-.62-.19.73.73,0,0,1-.3-.24.91.91,0,0,1-.14-.3,2.31,2.31,0,0,1,0-.45h-.21a8.19,8.19,0,0,0,0,.88,1.18,1.18,0,0,0,.18.5.86.86,0,0,0,.46.26,2,2,0,0,0,.65.08.82.82,0,0,0,.48-.1l.69-.48a1.48,1.48,0,0,0,.41-.42,1.26,1.26,0,0,0,.2-.48Z"/><polygon class="cls-16" points="304.51 29.84 303.03 30.15 301.94 29.1 301.77 30.6 300.43 31.32 301.81 31.95 302.08 33.44 303.1 32.32 304.61 32.52 303.86 31.2 304.51 29.84"/><polygon class="cls-16" points="257.9 22.31 255.69 23.14 253.76 21.8 253.87 24.15 251.99 25.57 254.26 26.2 255.04 28.42 256.33 26.45 258.69 26.4 257.21 24.57 257.9 22.31"/><polygon class="cls-16" points="258.47 17.37 257.05 17.9 255.8 17.04 255.87 18.55 254.67 19.47 256.13 19.87 256.63 21.3 257.46 20.03 258.98 20 258.03 18.82 258.47 17.37"/><polygon class="cls-16" points="256.25 29.12 255.22 30.24 253.72 30.04 254.47 31.36 253.81 32.72 255.3 32.41 256.39 33.46 256.56 31.96 257.9 31.24 256.51 30.61 256.25 29.12"/><polygon class="cls-16" points="301.67 26.44 303.1 28.32 303.72 26.04 305.94 25.27 303.98 23.97 303.93 21.62 302.09 23.09 299.83 22.41 300.66 24.61 299.32 26.55 301.67 26.44"/><polygon class="cls-16" points="300.11 20.11 301.03 21.32 301.43 19.86 302.86 19.36 301.6 18.52 301.56 17.01 300.38 17.95 298.93 17.52 299.46 18.93 298.6 20.18 300.11 20.11"/><path class="cls-4" d="M289.45,62.14l-.28-.15.15-.08Z"/><path class="cls-17" d="M269,39.38v1.14h-.38v-.43a.16.16,0,0,0,0-.09.41.41,0,0,0-.05-.09l-.07-.06-.06,0a.46.46,0,0,0-.16,0l-.08.07,0,.07,0,.07,0,0-.05.07a.47.47,0,0,1-.1.1.42.42,0,0,1-.14.09.26.26,0,0,1-.15,0,.28.28,0,0,1-.19-.07.79.79,0,0,1-.14-.17,1,1,0,0,1-.09-.21.73.73,0,0,1,0-.16l.26-.26h0a.41.41,0,0,0,0,.16s0,.09.05.13l.07.09.06,0a.12.12,0,0,0,.11-.05s0,0,0-.08a.46.46,0,0,0,0-.14.15.15,0,0,0-.06-.09.24.24,0,0,0-.1,0h-.38l-.08,0a.44.44,0,0,1-.16-.06.3.3,0,0,1-.12-.13l-.18-.11-.41-.26h3l.39.38Zm-1.07,0a.54.54,0,0,1,.18.19.36.36,0,0,1,.14-.11.34.34,0,0,1,.14,0l.12,0a.52.52,0,0,1,.11.1v-.2Z"/><path class="cls-17" d="M268.48,40.64a.46.46,0,0,1-.05.2.62.62,0,0,1-.14.18.76.76,0,0,1-.19.12.51.51,0,0,1-.2,0h-.13l-.13-.06a.35.35,0,0,1-.1-.11.23.23,0,0,1,0-.14.44.44,0,0,1,.1-.3.68.68,0,0,1,.24-.2,1.45,1.45,0,0,1,.57-.15,1.08,1.08,0,0,1,.32,0,.64.64,0,0,1,.25.11.68.68,0,0,1,.17.21.75.75,0,0,1,.06.31.57.57,0,0,1-.07.29.91.91,0,0,1-.17.23,2.13,2.13,0,0,1-.22.18l-.24.13h0L269,42a2,2,0,0,1,.26.22l.19.19.24.25.07.43a3.73,3.73,0,0,0-.31-.28,2.47,2.47,0,0,0-.27-.21l-.26-.15-.25-.12a4.43,4.43,0,0,0-.55-.18l-.61-.18-.37-.8a1.52,1.52,0,0,0,.32.19l.2.06H268a.62.62,0,0,0,.26-.06.61.61,0,0,0,.24-.15.79.79,0,0,0,.19-.22.5.5,0,0,0,.07-.27.11.11,0,0,0,0-.09.21.21,0,0,0-.11,0h-.13Z"/><path class="cls-17" d="M270,39.38v2.81a.2.2,0,0,1-.09,0l-.13-.11-.16-.16v-2a.75.75,0,0,0-.08-.37.29.29,0,0,0-.29-.1l-.33-.39h.31a.54.54,0,0,1,.27.06.47.47,0,0,1,.18.19s0-.07,0-.11a.59.59,0,0,1,0-.14,1.11,1.11,0,0,1,0-.19c0-.08,0-.16,0-.26l.23.18a.75.75,0,0,0,0,.11.08.08,0,0,0,0,0,.1.1,0,0,0,0,0L270,39h.4l.39.38Z"/><path class="cls-17" d="M270.86,38.81a0,0,0,0,0,0,0l0,.07s0,0,0,0,0,0,0,0h.49l.38.38h-.76v2.79l-.09-.08a.6.6,0,0,0-.08-.08s-.05,0-.06-.06l-.05,0,0,0h0s0,0,0,0,0,0,0,0,0,0,0,0V39.38h-.36l-.38-.38h.68l-.13-.14a.3.3,0,0,1-.06-.18.66.66,0,0,1,.11-.35,1.93,1.93,0,0,1,.27-.3,1.75,1.75,0,0,1,.35-.2,1,1,0,0,1,.35-.07,1.84,1.84,0,0,1,.47.06,1.78,1.78,0,0,1,.43.18,2,2,0,0,1,.39.25l.35.31.13.38a4.71,4.71,0,0,0-.65-.46,3.15,3.15,0,0,0-.53-.23,1.33,1.33,0,0,0-.42,0,1,1,0,0,0-.32.07.93.93,0,0,0-.38.32l-.09.15A.14.14,0,0,0,270.86,38.81Z"/><path class="cls-17" d="M273.86,39.38v2.76L273.7,42l-.09-.08-.07-.07-.09-.1c0-.25,0-.48,0-.68s0-.17,0-.26V40.4a.52.52,0,0,0,0-.11l-.06-.13a.83.83,0,0,0-.08-.12.43.43,0,0,0-.07-.1l-.9.91-.51-.19.1-.09.05-.06.05,0,0,0,.06-.09a.16.16,0,0,0,0-.09.2.2,0,0,0,0-.07s0,0,0-.07l0-.06L272,40H272l-.08,0h-.05l0,0a.19.19,0,0,1-.1,0,.16.16,0,0,1-.09,0,.31.31,0,0,1-.09-.07l-.06-.09a.29.29,0,0,1,0-.09.52.52,0,0,1,.12-.33,1.28,1.28,0,0,1,.3-.26,2.48,2.48,0,0,1,.37-.17,1.1,1.1,0,0,1,.32-.06.93.93,0,0,1,.29.05,1.05,1.05,0,0,1,.26.13l.23.2a1.88,1.88,0,0,1,.18.24c0-.08,0-.16,0-.25v-.26c0-.09,0-.18,0-.28v-.33l.25.18,0,.05a.22.22,0,0,0,0,.14.22.22,0,0,0,.1.09h.28l.37.38Zm-1.76.3a.37.37,0,0,1,.23.14.5.5,0,0,1,.12.24l.49-.48a.45.45,0,0,0-.33-.14A.6.6,0,0,0,272.1,39.68Z"/><path class="cls-17" d="M274.09,39.38l-.38-.38h3.5l.4.38Zm1.9,2.4a1,1,0,0,1-.48-.12,1.61,1.61,0,0,1-.39-.31,3,3,0,0,1-.33-.44,5.12,5.12,0,0,1-.27-.52c-.07-.18-.14-.35-.2-.53s-.11-.33-.15-.48l.29.12.16.37c.06.13.12.26.19.39a3.13,3.13,0,0,0,.22.36,2.12,2.12,0,0,0,.28.31,1.11,1.11,0,0,0,.32.21,1,1,0,0,0,.38.08.69.69,0,0,0,.24,0,1,1,0,0,0,.22-.14.78.78,0,0,0,.16-.2.49.49,0,0,0,.08-.23.46.46,0,0,0,0-.23.82.82,0,0,0-.12-.2.75.75,0,0,0-.17-.14.34.34,0,0,0-.19-.05h-.08a.29.29,0,0,1,.05.13.53.53,0,0,1,0,.13.41.41,0,0,1-.13.34.63.63,0,0,1-.56.06.42.42,0,0,1-.16-.13.4.4,0,0,1-.1-.18.78.78,0,0,1,0-.22.51.51,0,0,1,.06-.25.62.62,0,0,1,.16-.2.78.78,0,0,1,.22-.12.7.7,0,0,1,.25,0,1.06,1.06,0,0,1,.46.1,1,1,0,0,1,.38.26,1.15,1.15,0,0,1,.26.41,1.29,1.29,0,0,1,.07.53,1.25,1.25,0,0,1-.11.39,1.19,1.19,0,0,1-.23.31,1.15,1.15,0,0,1-.33.21A1.09,1.09,0,0,1,276,41.78Z"/><path class="cls-17" d="M279.37,40.47a.81.81,0,0,1-.33-.06.46.46,0,0,1-.21-.14.55.55,0,0,1-.12-.21,1,1,0,0,1,0-.25.58.58,0,0,1,.06-.26,1.18,1.18,0,0,1,.17-.22.91.91,0,0,1,.23-.15.65.65,0,0,1,.5,0,.62.62,0,0,1,.21.15.74.74,0,0,1,.13.21.7.7,0,0,1,0,.25.8.8,0,0,1,0,.26.83.83,0,0,1-.14.22.65.65,0,0,1-.21.16A.57.57,0,0,1,279.37,40.47Zm0,1.57a.89.89,0,0,1-.32-.07.46.46,0,0,1-.21-.14.57.57,0,0,1-.11-.22,1,1,0,0,1,0-.25.62.62,0,0,1,.06-.26,1.07,1.07,0,0,1,.15-.22.73.73,0,0,1,.23-.16.57.57,0,0,1,.25-.06.51.51,0,0,1,.25.06.62.62,0,0,1,.2.15.71.71,0,0,1,.13.22.67.67,0,0,1,0,.24.73.73,0,0,1-.38.65A.58.58,0,0,1,279.37,42Zm.13-2.51a.4.4,0,0,0-.15,0,.58.58,0,0,0-.12.1.29.29,0,0,0-.08.13.28.28,0,0,0,0,.15c0,.11,0,.16.12.16l.14,0a.32.32,0,0,0,.14-.08.38.38,0,0,0,.09-.13.29.29,0,0,0,0-.16C279.64,39.59,279.59,39.53,279.5,39.53Zm-.07,1.53a.27.27,0,0,0-.23.11.54.54,0,0,0-.08.28.22.22,0,0,0,0,.08.19.19,0,0,0,0,.08.07.07,0,0,0,0,.06s0,0,.07,0a.35.35,0,0,0,.14,0l.11-.08a.57.57,0,0,0,.08-.13.39.39,0,0,0,0-.14.49.49,0,0,0,0-.19A.18.18,0,0,0,279.43,41.06Z"/><path class="cls-17" d="M281.65,40.35l.11,0a.36.36,0,0,0,.16.17,1.28,1.28,0,0,0,.31.15,1.42,1.42,0,0,0,.33.11,1.31,1.31,0,0,0,.27,0l.16,0,.16-.06a.4.4,0,0,0,.12-.1.21.21,0,0,0,.05-.12.45.45,0,0,0,0-.08.92.92,0,0,0-.3-.35,3.23,3.23,0,0,0-.41-.22l-.1,0-.09,0-.09-.05-.08-.06a.37.37,0,0,1-.13-.12.28.28,0,0,1-.05-.16.41.41,0,0,1,.09-.26.32.32,0,0,1,.26-.11.3.3,0,0,1,.24.09.35.35,0,0,1,.1.21l.32.18a2.37,2.37,0,0,1,.3.23,1.05,1.05,0,0,1,.22.3.93.93,0,0,1,0,.7.7.7,0,0,1-.13.24.91.91,0,0,1-.21.18,2.1,2.1,0,0,1-.26.13,4.13,4.13,0,0,1,.55.41c.18.15.36.3.52.46l.1.54a5.91,5.91,0,0,0-.52-.48,5.23,5.23,0,0,0-.56-.4,6.54,6.54,0,0,0-.59-.3,3.59,3.59,0,0,0-.59-.18Z"/><path class="cls-17" d="M285.33,41.81a1.1,1.1,0,0,1-.45-.09.9.9,0,0,1-.35-.25,1,1,0,0,1-.23-.36,1.12,1.12,0,0,1-.08-.45,1,1,0,0,1,.09-.43,1.14,1.14,0,0,1,.26-.32,1.07,1.07,0,0,1,.36-.21,1.14,1.14,0,0,1,.41-.07,1.23,1.23,0,0,1,.44.08,1.31,1.31,0,0,1,.36.23,1.18,1.18,0,0,1,.23.35,1.08,1.08,0,0,1,.08.44,1,1,0,0,1-.09.42,1.24,1.24,0,0,1-.25.35,1.31,1.31,0,0,1-.36.23A1.2,1.2,0,0,1,285.33,41.81Zm.2-1.79a.8.8,0,0,0-.33.08,1.05,1.05,0,0,0-.48.51.84.84,0,0,0-.08.34.42.42,0,0,0,.13.32.46.46,0,0,0,.32.13.73.73,0,0,0,.33-.08,1.21,1.21,0,0,0,.3-.2,1,1,0,0,0,.21-.29.62.62,0,0,0,.08-.33.48.48,0,0,0-.13-.35A.48.48,0,0,0,285.53,40Z"/><path class="cls-17" d="M286.82,40.35l.11,0c0,.06.07.11.15.17a2.55,2.55,0,0,0,.65.26,1.14,1.14,0,0,0,.26,0l.16,0a.76.76,0,0,0,.16-.06l.13-.1a.21.21,0,0,0,.05-.12.2.2,0,0,0,0-.08.92.92,0,0,0-.3-.35,3.11,3.11,0,0,0-.4-.22l-.1,0-.1,0-.09-.05-.08-.06a.34.34,0,0,1-.12-.12.23.23,0,0,1-.06-.16.48.48,0,0,1,.09-.26.33.33,0,0,1,.26-.11.3.3,0,0,1,.24.09.3.3,0,0,1,.1.21l.33.18a2.37,2.37,0,0,1,.3.23,1.29,1.29,0,0,1,.22.3.79.79,0,0,1,.09.38,1,1,0,0,1,0,.32.72.72,0,0,1-.14.24.7.7,0,0,1-.2.18,1.69,1.69,0,0,1-.27.13,4.21,4.21,0,0,1,.56.41l.52.46.1.54a6,6,0,0,0-.53-.48,5.23,5.23,0,0,0-.56-.4,6.36,6.36,0,0,0-.58-.3,3.42,3.42,0,0,0-.6-.18Z"/><path class="cls-17" d="M290,42.12l-.19,0-.18-.09a.38.38,0,0,1-.14-.14.28.28,0,0,1-.06-.18.44.44,0,0,1,.06-.23.65.65,0,0,1,.15-.18.72.72,0,0,1,.21-.12.93.93,0,0,1,.22,0l.28,0a.73.73,0,0,1,.26.14,1,1,0,0,0,.08-.14.36.36,0,0,0,0-.33,1,1,0,0,0-.14-.19,1.8,1.8,0,0,0-.19-.21l-.24-.23-.12-.11-.11-.11a2.13,2.13,0,0,1-.21-.22,1.37,1.37,0,0,1-.15-.21.39.39,0,0,1-.06-.2.4.4,0,0,1,0-.15l.08-.13.13-.09a.33.33,0,0,1,.15,0,.33.33,0,0,1,.25.11.43.43,0,0,1,.09.26s0,.06,0,.08,0,.06,0,.09l.33.32a3.93,3.93,0,0,1,.31.38,1.76,1.76,0,0,1,.24.42,1.2,1.2,0,0,1,.09.45.82.82,0,0,1-.1.4,1.28,1.28,0,0,1-.26.35,1.31,1.31,0,0,1-.37.24A.92.92,0,0,1,290,42.12Z"/><path class="cls-1" d="M6.87,36.64a1.46,1.46,0,0,0-1.2.68A2.62,2.62,0,0,0,5.16,39a3,3,0,0,0,.58,1.77,2.07,2.07,0,0,0,.61.54,1.35,1.35,0,0,0,.72.2,1.41,1.41,0,0,0,1.19-.74,2.9,2.9,0,0,0,.49-1.64,2.67,2.67,0,0,0-.57-1.71A1.64,1.64,0,0,0,6.87,36.64Z"/><path class="cls-1" d="M49.56,20.55l-.3-.39a1.43,1.43,0,0,1-.19-.37,2.39,2.39,0,0,1-.13-.38c0-.14-.06-.4-.1-.77l-1.26-1.32c.05.7.1,1.32.15,1.85s.09,1,.13,1.38.06.74.09,1,.07.55.1.79a3.57,3.57,0,0,0-1-1.37A2.13,2.13,0,0,0,46,20.61l0-.06h-1.3l-.7-.05,0,.06H17.44c0-.08-.06-.19-.1-.31a2.06,2.06,0,0,0-.12-.35,4.44,4.44,0,0,0-.15-.44A.79.79,0,0,1,17,19.2a3.65,3.65,0,0,1,.13-.53,6,6,0,0,1,.46-1.07,7.78,7.78,0,0,1,.83-1.26,4.18,4.18,0,0,1,1.25-1.07,4,4,0,0,1,1.74-.51,5.17,5.17,0,0,1,2.27.39,12.37,12.37,0,0,1,2.87,1.67,26.14,26.14,0,0,1,3.52,3.3l-.69-2.7c-.6-.8-1.23-1.55-1.89-2.27a14.06,14.06,0,0,0-2.12-1.86A10.35,10.35,0,0,0,23,12a7.08,7.08,0,0,0-2.53-.46,4.08,4.08,0,0,0-1.89.54,7.71,7.71,0,0,0-1.91,1.46,8.22,8.22,0,0,0-1.47,2.13,5.8,5.8,0,0,0-.59,2.54A2.48,2.48,0,0,0,15,19.53a9.13,9.13,0,0,0,.71,1H0l2.12,2.78h8.7v.56A21.5,21.5,0,0,0,6.36,26.4,43.27,43.27,0,0,0,2.08,30l2.15,4A6,6,0,0,1,7.38,35a8.74,8.74,0,0,1,2,2.1,10.17,10.17,0,0,1,.71,1.24c.2.43.4.85.58,1.27s.34.82.49,1.21.3.74.45,1.07a4,4,0,0,0,.44.69,1.48,1.48,0,0,0,.25.25l.62.48v-20H16V40.5a.71.71,0,0,0,0,.4l.12.2.06.11.09.12a2.81,2.81,0,0,1,.25.31,3,3,0,0,0,.27.35c.08.11.2.25.35.43l.42.53c.16.2.33.4.49.62V23.33h5.61l.29.06.4.1.35.2c.1.07.17.09.22.07a9.75,9.75,0,0,1-1,.49c-.18.11-.36.23-.55.37a3.9,3.9,0,0,0-.56.46,4.06,4.06,0,0,0-.92,1.15A3.5,3.5,0,0,0,21.54,28a2.72,2.72,0,0,0,.62,1.92,1.85,1.85,0,0,0,2.47.33,3.54,3.54,0,0,0,.94-.88,6,6,0,0,0,.72-1.2,4.66,4.66,0,0,0,.37-1.36,1.17,1.17,0,0,1,.32,0,2.26,2.26,0,0,1,1.6.64,2.31,2.31,0,0,1,.7,1.8,2,2,0,0,1-.5,1.37,3.69,3.69,0,0,1-1.18.93,6.17,6.17,0,0,1-1.44.51,5.78,5.78,0,0,1-1.21.17,5.69,5.69,0,0,1-2.31-.53,11,11,0,0,1-2.73-1.95L22,36.41a21,21,0,0,1,3.24,1.1,18.3,18.3,0,0,1,3.25,1.84A21.68,21.68,0,0,1,31.55,42a23,23,0,0,1,2.84,3.68l-1-4.56-1-1.35c-.29-.37-.55-.7-.79-1a9.69,9.69,0,0,0-.7-.72c-.22-.21-.44-.4-.65-.58-.38-.29-.79-.58-1.22-.87s-1-.7-1.7-1.21a4.53,4.53,0,0,1,.46-.3,3.29,3.29,0,0,0,.46-.3l.69-.47a7.08,7.08,0,0,0,.69-.58,5.08,5.08,0,0,0,1.06-1.54A5.45,5.45,0,0,0,31.15,30a7.48,7.48,0,0,0-.35-2.3,7.35,7.35,0,0,0-.95-1.9,5.39,5.39,0,0,0-1.39-1.35,4.57,4.57,0,0,0-1.65-.7.36.36,0,0,1-.07-.09s0-.06-.06-.1a1.51,1.51,0,0,0-.12-.2h5.87a2.59,2.59,0,0,1,.17.33c.06.15.13.32.21.49a5.36,5.36,0,0,0,.28.53,2.72,2.72,0,0,0,.41.5,2.44,2.44,0,0,0,1.16.72l.77.27a5.06,5.06,0,0,1,.84.36,4,4,0,0,1,1.28,1.12,4.29,4.29,0,0,1,.74,2.28h-.06l0,0-.36,0h-.29a3,3,0,0,0-1.39.31,3.19,3.19,0,0,0-1,.83,3.87,3.87,0,0,0-.63,1.17,4.79,4.79,0,0,0-.24,1.35,5.22,5.22,0,0,0,.13,1.37,3.39,3.39,0,0,0,.52,1.19,3,3,0,0,0,.88.85,2.26,2.26,0,0,0,1.23.33,2.29,2.29,0,0,0,1.36-.47,3.29,3.29,0,0,0,1.07-1.42,5.08,5.08,0,0,1,1.08.93c.41.44.76.82,1,1.15a4.17,4.17,0,0,1,.57.91,9.62,9.62,0,0,1,.43,1.18c.12.41.23.85.32,1.3s.18.89.26,1.3a5.16,5.16,0,0,0,.5.53,3.44,3.44,0,0,0,.4.37.62.62,0,0,0,.36.16V23.33h1.24l0,0a1.31,1.31,0,0,1,1.59.73,6.33,6.33,0,0,1,.44,2.64V41.49c.31.42.61.8.89,1.13s.46.54.69.77.39.35.49.35V23.33h4l-2.08-2.78ZM10.82,36.28a13.14,13.14,0,0,0-2.06-3.11A12.08,12.08,0,0,0,6.1,31a20.3,20.3,0,0,1,4.72-3.31Zm31.53-1c-.3-.51-.6-1-.91-1.47s-.62-.94-.95-1.41a8.21,8.21,0,0,0-.11-1.9c-.11-.64-.21-1.23-.31-1.76a6.44,6.44,0,0,0-.64-1.9,12,12,0,0,0-1-1.6c-.27-.36-.54-.69-.82-1l-.84-.94h5.59Z"/><path class="cls-1" d="M103.31,30.64c.42,1.29.9,2.54,1.43,3.75a19.49,19.49,0,0,0,1.78,3.22,9.41,9.41,0,0,0,2.16,2.27,4.35,4.35,0,0,0,2.6.85,4.5,4.5,0,0,0,2.13-.52,5.83,5.83,0,0,0,1.78-1.49,7.83,7.83,0,0,0,1.26-2.26A9.88,9.88,0,0,0,117,33.6a11.4,11.4,0,0,0-.36-3.81,9.2,9.2,0,0,0-1.37-3,6.44,6.44,0,0,0-2.1-1.91,5,5,0,0,0-2.49-.68,3.14,3.14,0,0,0-1.36.31,3.75,3.75,0,0,0-1.2.91,4.89,4.89,0,0,0-.86,1.42,4.76,4.76,0,0,0-.34,1.85,6.76,6.76,0,0,0,.18,1.6,4,4,0,0,0,.53,1.31,3,3,0,0,0,.87.89,2.22,2.22,0,0,0,1.21.33,2.44,2.44,0,0,0,1.86-.76,3.52,3.52,0,0,0,.71-2.44,6.37,6.37,0,0,0-.07-1,4,4,0,0,0-.27-.94l.22,0,.22,0a1.74,1.74,0,0,1,1,.4,4.15,4.15,0,0,1,.92,1,5.25,5.25,0,0,1,.64,1.46,4.91,4.91,0,0,1,.19,1.65,5.25,5.25,0,0,1-.43,1.7,5.54,5.54,0,0,1-.9,1.42,5,5,0,0,1-1.2,1,2.47,2.47,0,0,1-1.27.38,4,4,0,0,1-2.07-.56,6.6,6.6,0,0,1-1.75-1.54,12.89,12.89,0,0,1-1.48-2.23,22.89,22.89,0,0,1-1.24-2.64c-.37-.92-.71-1.86-1-2.8s-.6-1.85-.86-2.71l-1.56-.86c.23,1.05.51,2.22.82,3.48S102.89,29.36,103.31,30.64Z"/><path class="cls-1" d="M120.07,23.33l-2.2-2.78H99l-.29-.39a1.2,1.2,0,0,1-.2-.37,2.39,2.39,0,0,1-.13-.38,7.14,7.14,0,0,1-.09-.77l-1.26-1.32c0,.7.09,1.32.14,1.85s.09,1,.13,1.38.06.74.1,1,.06.55.09.79a3.56,3.56,0,0,0-1-1.37,2.13,2.13,0,0,0-1.1-.39l0-.06h-1.3l-.7-.05,0,.06H80.15l-.3-.39a1.46,1.46,0,0,1-.2-.37,1.7,1.7,0,0,1-.12-.38,6.46,6.46,0,0,1-.1-.77l-1.26-1.32c0,.7.1,1.32.15,1.85s.09,1,.12,1.38.07.74.1,1,.07.55.1.79a3.57,3.57,0,0,0-1-1.37,2.06,2.06,0,0,0-.66-.34l-.08-.11H75.22l-.71-.05,0,.06H57.34l2.08,2.78h5.16a16.6,16.6,0,0,0-1,1.58,6.77,6.77,0,0,0-.52,1.34,5.91,5.91,0,0,0-.2,1.57,7.78,7.78,0,0,0,.26,2,6.54,6.54,0,0,0,.74,1.75,4,4,0,0,0,1.16,1.23,2.61,2.61,0,0,0,1.5.47,2.58,2.58,0,0,0,.85-.15,7.39,7.39,0,0,0,.78-.32l.36-.18.28-.15a1.34,1.34,0,0,1,.37-.13c.1,0,.21.12.32.37a1.8,1.8,0,0,1,.18.82,1.88,1.88,0,0,1-.5,1.26,3.44,3.44,0,0,1-1.21.87,3.65,3.65,0,0,1-1.49.31,2.13,2.13,0,0,1-1.33-.42,7.2,7.2,0,0,1-1.58-1.79,11.19,11.19,0,0,1-1.1-2.31,15.66,15.66,0,0,1-.63-2.66A17.42,17.42,0,0,1,61.69,26l0-1.06-.59-.48c-.18-.14-.47-.33-.85-.57,0,.7,0,1.43,0,2.18s0,1.48.07,2.21.09,1.43.17,2.1a15.08,15.08,0,0,0,.32,1.8,22.61,22.61,0,0,0,.88,2.72A12.06,12.06,0,0,0,63,37.35a6.71,6.71,0,0,0,1.76,1.8,3.91,3.91,0,0,0,2.28.69,3.18,3.18,0,0,0,1.67-.46,4.73,4.73,0,0,0,1.36-1.25A6.21,6.21,0,0,0,71,36.29a6.88,6.88,0,0,0,.34-2.19,6,6,0,0,0-.25-1.44,14.72,14.72,0,0,0-.62-1.8,12.41,12.41,0,0,0-.78-1.59,1.88,1.88,0,0,0-.73-.82l-.29-.17a7.12,7.12,0,0,0-.79.46l-.92.6a7,7,0,0,1-.85.48,1.52,1.52,0,0,1-.58.18c-.51,0-.77-.3-.77-.89a2.69,2.69,0,0,1,.2-.89,7.38,7.38,0,0,1,.47-1A6,6,0,0,1,66,26.3a1.68,1.68,0,0,1,.6-.5,6.15,6.15,0,0,0,2.32,2.14,8.53,8.53,0,0,0,3.88.87,23.77,23.77,0,0,0-.56,2.59A17.64,17.64,0,0,0,72,34.13a56.62,56.62,0,0,0,.6,8.09,2.43,2.43,0,0,0,.85.5,7.59,7.59,0,0,0,.8.19l.5-.19a15.12,15.12,0,0,1-.68-3.64A20.71,20.71,0,0,1,74.19,35a19.16,19.16,0,0,1,.87-3.85,8,8,0,0,1,1.65-2.92c-.48-.69-.91-1.3-1.31-1.84s-.81-1.09-1.26-1.67l-.79.34-.76.33a4.5,4.5,0,0,1-.74.24,2.57,2.57,0,0,1-.62.09,7,7,0,0,1-.89-.09,9.94,9.94,0,0,1-1.26-.24,4.2,4.2,0,0,1-1.14-.47.87.87,0,0,1-.49-.76.46.46,0,0,1,.1-.16,1.9,1.9,0,0,1,.24-.28l.29-.27a.42.42,0,0,1,.21-.11h8l0,0a1.32,1.32,0,0,1,1.59.73,6.35,6.35,0,0,1,.43,2.64V41.49c.32.42.61.8.89,1.13s.46.54.69.77.4.35.5.35V23.33H91.81v8.25c-.27-.61-.56-1.22-.89-1.81a9.59,9.59,0,0,0-1.1-1.6A4.83,4.83,0,0,0,88.47,27a3.15,3.15,0,0,0-1.63-.43,3.23,3.23,0,0,0-1.46.34,4.06,4.06,0,0,0-1.22,1,5,5,0,0,0-.84,1.5,5.82,5.82,0,0,0-.31,2,5,5,0,0,0,.8,3,2.69,2.69,0,0,0,2.29,1.08,2.22,2.22,0,0,0,1.61-.7,2.87,2.87,0,0,0,.69-2.11A4.7,4.7,0,0,0,88.08,31c0-.11-.08-.23-.14-.37l-.18-.36a.56.56,0,0,0,0-.08.56.56,0,0,1,0-.08,2.35,2.35,0,0,1,1.42.69,6.41,6.41,0,0,1,1.24,1.62,14.92,14.92,0,0,1,1,2.23c.18.5.34,1,.49,1.53V40a9.15,9.15,0,0,0-.89-1.55,7.32,7.32,0,0,0-1.13-1.27,6.15,6.15,0,0,0-1.3-.87,3.11,3.11,0,0,0-1.37-.34,3.49,3.49,0,0,0-2.74,1.21,5.26,5.26,0,0,0-1.07,3.58,3.88,3.88,0,0,0,.79,2.58,2.5,2.5,0,0,0,2,.93,1.7,1.7,0,0,0,1.52-.83,3.74,3.74,0,0,0,.53-2A5.08,5.08,0,0,0,88,40a4.83,4.83,0,0,0-.54-1.18,2.79,2.79,0,0,1,1.6.49,5.74,5.74,0,0,1,1.32,1.29,8.71,8.71,0,0,1,1,1.8,13,13,0,0,1,.67,2c0,.22.1.4.15.55s.09.29.13.44a2.11,2.11,0,0,1,.06.41c0,.17,0,.41,0,.71.2.2.39.38.57.53a3.72,3.72,0,0,0,.49.35.92.92,0,0,0,.45.15V37l0,0V23.33h1.24l0,0a1.33,1.33,0,0,1,1.6.73,6.51,6.51,0,0,1,.43,2.64V41.49c.31.42.61.8.89,1.13s.46.54.69.77.4.35.49.35V23.33h20.83Z"/><path class="cls-1" d="M175.26,20.55l-.29-.39a1.46,1.46,0,0,1-.2-.37,1.7,1.7,0,0,1-.12-.38,4.85,4.85,0,0,1-.1-.77l-1.26-1.32c.05.7.1,1.32.15,1.85s.09,1,.12,1.38.07.74.1,1,.06.55.1.79a3.57,3.57,0,0,0-1-1.37,2.2,2.2,0,0,0-1.15-.4h0c-.12-.07-.21-.08-.27,0h-1l-.71-.05,0,.06H141.94a1.62,1.62,0,0,1-.1-.31,3.62,3.62,0,0,0-.13-.35,4.44,4.44,0,0,0-.15-.44,1.24,1.24,0,0,1-.07-.25,4.71,4.71,0,0,1,.14-.53,5.9,5.9,0,0,1,.45-1.07,8.51,8.51,0,0,1,.83-1.26,4.31,4.31,0,0,1,1.25-1.07,4,4,0,0,1,1.74-.51,5.15,5.15,0,0,1,2.27.39A12.17,12.17,0,0,1,151,16.82a25.55,25.55,0,0,1,3.52,3.3l-.69-2.7A25.83,25.83,0,0,0,152,15.15a14,14,0,0,0-2.11-1.86A10.21,10.21,0,0,0,147.53,12a7,7,0,0,0-2.53-.46,4.08,4.08,0,0,0-1.89.54,7.66,7.66,0,0,0-1.9,1.46,7.76,7.76,0,0,0-1.47,2.13,5.68,5.68,0,0,0-.6,2.54,2.39,2.39,0,0,0,.34,1.29,7.94,7.94,0,0,0,.7,1h-16.8c.38.51.66.87.83,1.09l.46.6.34.46a3.56,3.56,0,0,1,.32.5,2.25,2.25,0,0,1,.24.46c.06.15.13.32.21.49a3.84,3.84,0,0,0,.28.53,2.72,2.72,0,0,0,.41.5,2.39,2.39,0,0,0,1.16.72l.77.27a5.06,5.06,0,0,1,.84.36,4,4,0,0,1,1.28,1.12,4.38,4.38,0,0,1,.74,2.28h-.06a.05.05,0,0,0,0,0l-.35,0h-.29a2.94,2.94,0,0,0-1.39.31,3.08,3.08,0,0,0-1,.83,3.87,3.87,0,0,0-.63,1.17,4.46,4.46,0,0,0-.24,1.35,4.83,4.83,0,0,0,.13,1.37,3.39,3.39,0,0,0,.52,1.19,3,3,0,0,0,.88.85,2.22,2.22,0,0,0,1.23.33,2.29,2.29,0,0,0,1.36-.47,3.28,3.28,0,0,0,1.06-1.42,4.86,4.86,0,0,1,1.09.93c.41.44.76.82,1,1.15a4.17,4.17,0,0,1,.57.91,9.62,9.62,0,0,1,.43,1.18c.12.41.23.85.32,1.3s.18.89.26,1.3a5.12,5.12,0,0,0,.49.53,4.57,4.57,0,0,0,.41.37.62.62,0,0,0,.36.16V23.33h3.09V40.5a.62.62,0,0,0,0,.4,1.23,1.23,0,0,0,.13.2.24.24,0,0,0,.06.11l.08.12a2,2,0,0,1,.25.31,3,3,0,0,0,.27.35l.35.43c.15.18.29.35.42.53s.33.4.49.62V23.33h5.61l.3.06.39.1.35.2c.1.07.17.09.22.07a10.76,10.76,0,0,1-1,.49c-.18.11-.37.23-.56.37a3.83,3.83,0,0,0-.55.46,3.92,3.92,0,0,0-.93,1.15A3.5,3.5,0,0,0,146,28a2.72,2.72,0,0,0,.61,1.92,1.93,1.93,0,0,0,1.44.66,1.9,1.9,0,0,0,1-.33,3.54,3.54,0,0,0,.94-.88,6,6,0,0,0,.72-1.2,4.37,4.37,0,0,0,.37-1.36,1.22,1.22,0,0,1,.32,0,2.28,2.28,0,0,1,1.61.64,2.34,2.34,0,0,1,.69,1.8,2.07,2.07,0,0,1-.49,1.37,3.73,3.73,0,0,1-1.19.93,6.26,6.26,0,0,1-1.43.51,6,6,0,0,1-1.21.17,5.62,5.62,0,0,1-2.31-.53,10.67,10.67,0,0,1-2.73-1.95l2.05,6.74a21.27,21.27,0,0,1,3.23,1.1,18,18,0,0,1,3.25,1.84A21.15,21.15,0,0,1,156,42a21.93,21.93,0,0,1,2.84,3.68l-1-4.56c-.38-.52-.71-1-1-1.35s-.55-.7-.79-1-.47-.51-.69-.72-.44-.4-.66-.58c-.38-.29-.78-.58-1.22-.87s-1-.7-1.69-1.21q.23-.16.45-.3a3.29,3.29,0,0,0,.46-.3l.69-.47a8.57,8.57,0,0,0,.7-.58,5.26,5.26,0,0,0,1.06-1.54,5.45,5.45,0,0,0,.42-2.29,7.2,7.2,0,0,0-.36-2.3,7.35,7.35,0,0,0-.95-1.9A5.39,5.39,0,0,0,153,24.42a4.43,4.43,0,0,0-1.65-.7l-.06-.09a.37.37,0,0,0-.06-.1,1.67,1.67,0,0,0-.13-.2h17v3.14a5.65,5.65,0,0,0-1-1.39,1.77,1.77,0,0,0-1.33-.6,1.6,1.6,0,0,0-1.07.57,3.58,3.58,0,0,0-.83,1.28,5.79,5.79,0,0,0-1.28-1.4,2.74,2.74,0,0,0-1.71-.55,3.29,3.29,0,0,0-1.59.4A4.68,4.68,0,0,0,158,25.84a5.27,5.27,0,0,0-.87,1.57,6.43,6.43,0,0,0-.39,1.93,10.12,10.12,0,0,0,.16,2.56,6.2,6.2,0,0,0,.68,1.8,3.64,3.64,0,0,0,1,1.12,3.06,3.06,0,0,0,1.24.5,3.3,3.3,0,0,0,1.21,0,3,3,0,0,0,1.13-.47,2.68,2.68,0,0,0,.84-.9,2.38,2.38,0,0,0,.33-1.27,5.79,5.79,0,0,0-.14-1.17,4.9,4.9,0,0,0-.4-1.19,2.94,2.94,0,0,0-.65-.91,1.35,1.35,0,0,0-.94-.36,1.73,1.73,0,0,0-1.38.69,2.92,2.92,0,0,0-.6,1.82,3.33,3.33,0,0,0,.08.73,2.4,2.4,0,0,1-.37-1.92,2.74,2.74,0,0,1,.85-1.8,2.08,2.08,0,0,1,1.77-.45,3,3,0,0,1,1,.33,3.71,3.71,0,0,1,.89.71,4.23,4.23,0,0,1,.69,1.09,5.63,5.63,0,0,1,.41,1.47l1.19-.59c0-.29-.06-.5-.08-.63a3.48,3.48,0,0,0,0-.36c0-.11,0-.21,0-.3a2.66,2.66,0,0,1,0-.3,1.83,1.83,0,0,1,.24-1,.74.74,0,0,1,.65-.36,1,1,0,0,1,.56.19,2.41,2.41,0,0,1,.51.5,3.51,3.51,0,0,1,.37.66,1.91,1.91,0,0,1,.15.73V41.13a5.07,5.07,0,0,0,.48.66l.68.89.89,1.13V23.33h1.24l0,0a1.32,1.32,0,0,1,1.59.73,6.35,6.35,0,0,1,.43,2.64V41.49c.31.42.61.8.89,1.13s.46.54.69.77.4.35.5.35V23.33h4l-2.07-2.78ZM135.31,35.32q-.44-.76-.9-1.47c-.3-.48-.62-.94-.95-1.41a8.81,8.81,0,0,0-.11-1.9c-.11-.64-.21-1.23-.31-1.76a6.44,6.44,0,0,0-.64-1.9,12,12,0,0,0-1-1.6c-.27-.36-.54-.69-.82-1l-.84-.94h5.58Z"/><path class="cls-1" d="M243.9,20.55h-2.18l-.29-.39a1.2,1.2,0,0,1-.2-.37,1.7,1.7,0,0,1-.12-.38,4.85,4.85,0,0,1-.1-.77l-1.26-1.32c.05.7.1,1.32.14,1.85s.09,1,.13,1.38.06.74.1,1,.06.55.1.79a3.57,3.57,0,0,0-1-1.37,2.13,2.13,0,0,0-1.1-.39l0-.06h-1.3l-.7-.05,0,.06H221.86l-.3-.39a1.43,1.43,0,0,1-.19-.37,1.69,1.69,0,0,1-.13-.38c0-.14-.06-.4-.1-.77l-1.26-1.32c.05.7.1,1.32.15,1.85s.09,1,.12,1.38.07.74.1,1,.07.55.1.79a3.57,3.57,0,0,0-1-1.37,2.16,2.16,0,0,0-1-.38l0-.07h-1.37l-.7-.05,0,.06H202.19l-.29-.39a1.2,1.2,0,0,1-.2-.37,1.7,1.7,0,0,1-.12-.38,4.85,4.85,0,0,1-.1-.77l-1.26-1.32c.05.7.1,1.32.15,1.85s.09,1,.12,1.38.06.74.1,1,.06.55.1.79a3.57,3.57,0,0,0-1-1.37,2.13,2.13,0,0,0-1.1-.39l0-.06h-1.3l-.7-.05,0,.06H183.05l.82,1.09c.18.22.33.42.46.6l.35.46a4.78,4.78,0,0,1,.32.5,1.8,1.8,0,0,1,.23.46c.06.15.13.32.21.49a5.45,5.45,0,0,0,.29.53,2.31,2.31,0,0,0,.4.5,2.47,2.47,0,0,0,1.17.72l.76.27a5.06,5.06,0,0,1,.84.36,4.16,4.16,0,0,1,1.29,1.12,4.47,4.47,0,0,1,.74,2.28h-.06l0,0-.36,0h-.28a3,3,0,0,0-1.4.31,3.15,3.15,0,0,0-1,.83,3.87,3.87,0,0,0-.63,1.17A4.84,4.84,0,0,0,187,34.9a3.22,3.22,0,0,0,.52,1.19,2.93,2.93,0,0,0,.87.85,2.33,2.33,0,0,0,2.6-.14,3.28,3.28,0,0,0,1.06-1.42,5.34,5.34,0,0,1,1.09.93c.41.44.75.82,1,1.15a3.53,3.53,0,0,1,.57.91,8.21,8.21,0,0,1,.43,1.18c.13.41.23.85.33,1.3s.17.89.25,1.3a5.16,5.16,0,0,0,.5.53,3.51,3.51,0,0,0,.41.37.62.62,0,0,0,.36.16V23.33h1.23l0,0a1.33,1.33,0,0,1,1.6.73,6.35,6.35,0,0,1,.43,2.64V41.49c.31.42.61.8.89,1.13s.46.54.69.77.4.35.5.35V23.33H206v10.9l2.38,3.23a14.82,14.82,0,0,1,2.19-4.7,10.46,10.46,0,0,1,3.12-2.93,29.45,29.45,0,0,0-.32,4.46,30.39,30.39,0,0,0,.27,4.08c.13,1,.28,2,.43,3a2.56,2.56,0,0,0-.56-.42,5.75,5.75,0,0,0-1.5-.55,10.4,10.4,0,0,0-1.7-.19l-1.74-.1a12.61,12.61,0,0,1-1.62-.17,3.7,3.7,0,0,1-1.26-.46,2.24,2.24,0,0,1-.81-.89,3.4,3.4,0,0,1-.29-1.52v-.35a3.37,3.37,0,0,1,0-.44q0-.27.06-.42a1.34,1.34,0,0,1,.24-.41l-1.16-1.55c-.22.88-.39,1.66-.52,2.34a9.92,9.92,0,0,0-.2,2,7.07,7.07,0,0,0,.31,2.25,4.44,4.44,0,0,0,.85,1.55,3.91,3.91,0,0,0,1.25,1,6.4,6.4,0,0,0,1.49.51,9.69,9.69,0,0,0,1.62.2l1.64,0,1.54,0a11.48,11.48,0,0,1,1.35.05,2,2,0,0,1,1.08.37,2.94,2.94,0,0,1,.63.72l.28.52c.09.16.2.33.31.51a5.17,5.17,0,0,0,.46.62,10.47,10.47,0,0,0,.93.9V33.07c0-.22-.06-.35-.17-.38a.31.31,0,0,0-.23,0h0s0,0,0,0l-.05,0a1.79,1.79,0,0,0-.2.2l-.26.3-.18.23c.07-.38.15-.75.24-1.13a44.16,44.16,0,0,1,1.46-4.65l-2.87-2.88a16.08,16.08,0,0,0-2.16,1.36,15.11,15.11,0,0,0-1.57,1.39c-.41.39-.82.82-1.23,1.28s-.88,1-1.41,1.49v-7H218l0,0a1.31,1.31,0,0,1,1.59.73,6.33,6.33,0,0,1,.44,2.64V41.49c.31.42.61.8.89,1.13s.46.54.69.77.39.35.49.35V23.33h1.66a3.15,3.15,0,0,0,.76,1,3,3,0,0,0,.87.51,1.75,1.75,0,0,0,.47.13l.44.07.42.05.42.05a3,3,0,0,1,.64.2,1.27,1.27,0,0,1,.59.51,3.52,3.52,0,0,1,.44,1.07,11,11,0,0,1,.28,1.88c-.09.18-.24.45-.43.81s-.4.75-.63,1.14-.46.77-.69,1.11-.43.51-.59.51-.21-.08-.32-.25a2.94,2.94,0,0,1-.35-.67,6.82,6.82,0,0,1-.31-1,7.38,7.38,0,0,1-.18-1.16L224,31.39c.17.39.3.74.41,1s.21.55.31.79.21.49.32.73.24.47.37.69a3.89,3.89,0,0,0,1,1.09,2.16,2.16,0,0,0,1.37.43,1.34,1.34,0,0,0,.83-.28,3.36,3.36,0,0,0,.74-.76A7.83,7.83,0,0,0,230,34c.21-.4.41-.8.61-1.22q.12-.3.27-.6c.1-.2.19-.38.27-.56a3.84,3.84,0,0,1,.27-.49c.1-.16.19-.31.27-.47.38-.55.75-.82,1.11-.82a.9.9,0,0,1,.52.2,3.62,3.62,0,0,1,.58.47,2.74,2.74,0,0,1,.47.62,1.13,1.13,0,0,1,.19.56v9.11c.33.47.63.87.91,1.23a8.32,8.32,0,0,0,.7.82c.23.24.38.36.46.36V23.33h1.24l0,0a1.33,1.33,0,0,1,1.6.73,6.35,6.35,0,0,1,.43,2.64V41.49c.31.42.61.8.89,1.13s.46.54.69.77.4.35.5.35V23.33h4ZM195,35.32q-.45-.76-.9-1.47c-.31-.48-.62-.94-1-1.41a9.49,9.49,0,0,0-.11-1.9c-.11-.64-.21-1.23-.31-1.76a6.75,6.75,0,0,0-.65-1.9,11.06,11.06,0,0,0-1-1.6c-.26-.36-.53-.69-.81-1l-.84-.94H195Zm39.53-6.74c-.2-.35-.43-.73-.69-1.12a6.66,6.66,0,0,0-.84-1,1.43,1.43,0,0,0-1-.47,1.25,1.25,0,0,0-.69.22,4.07,4.07,0,0,0-.69.54,5,5,0,0,0-.41-1.9,6.21,6.21,0,0,0-1-1.53h5.31Z"/></g></g></svg>